<svg width="48" height="48" viewBox="0 0 48 48" fill="none" xmlns="http://www.w3.org/2000/svg">
<path d="M38.1241 40.4366C34.2155 44.3452 24.2056 40.6726 15.7665 32.2335C7.32745 23.7944 3.65478 13.7845 7.56341 9.8759L10.1369 7.30237C11.9136 5.52571 14.8411 5.57268 16.6757 7.40726L20.6618 11.3934C22.4964 13.228 22.5434 16.1555 20.7667 17.9322L20.214 18.4849C19.2547 19.4442 19.1609 20.9916 20.0522 22.0717C20.9119 23.1136 21.8388 24.1513 22.8438 25.1562C23.8487 26.1612 24.8864 27.0881 25.9283 27.9478C27.0084 28.8391 28.5558 28.7453 29.5151 27.786L30.0678 27.2333C31.8445 25.4566 34.772 25.5036 36.6066 27.3381L40.5927 31.3243C42.4273 33.1589 42.4743 36.0864 40.6976 37.8631L38.1241 40.4366Z" fill="#F9D1CE"/>
</svg>
