<svg width="14" height="14" viewBox="0 0 14 14" fill="none" xmlns="http://www.w3.org/2000/svg">
<path d="M12.5583 10.818C12.3942 10.9821 12.1717 11.0742 11.9396 11.0742C11.7076 11.0742 11.4851 10.9821 11.321 10.818L6.98977 6.48678L2.65851 10.818C2.49349 10.9774 2.27246 11.0656 2.04304 11.0636C1.81362 11.0616 1.59416 10.9696 1.43192 10.8074C1.26969 10.6451 1.17767 10.4257 1.17568 10.1963C1.17368 9.96683 1.26188 9.74581 1.42126 9.58078L6.37114 4.63091C6.53523 4.46687 6.75775 4.37472 6.98977 4.37472C7.22178 4.37472 7.4443 4.46687 7.60839 4.63091L12.5583 9.58078C12.7223 9.74487 12.8145 9.96739 12.8145 10.1994C12.8145 10.4314 12.7223 10.6539 12.5583 10.818Z" fill="#F9D1CE"/>
</svg>
