<svg width="14" height="14" viewBox="0 0 14 14" fill="none" xmlns="http://www.w3.org/2000/svg">
<path d="M1.43197 4.63119C1.59606 4.46715 1.81858 4.375 2.05059 4.375C2.28261 4.375 2.50513 4.46715 2.66922 4.63119L7.00047 8.96244L11.3317 4.63119C11.4967 4.4718 11.7178 4.3836 11.9472 4.3856C12.1766 4.38759 12.3961 4.47961 12.5583 4.64185C12.7205 4.80408 12.8126 5.02354 12.8146 5.25296C12.8166 5.48238 12.7284 5.70341 12.569 5.86844L7.61909 10.8183C7.45501 10.9824 7.23249 11.0745 7.00047 11.0745C6.76845 11.0745 6.54593 10.9824 6.38184 10.8183L1.43197 5.86844C1.26793 5.70435 1.17578 5.48183 1.17578 5.24981C1.17578 5.01779 1.26793 4.79528 1.43197 4.63119Z" fill="#A4B0CC"/>
</svg>
