<svg width="14" height="14" viewBox="0 0 14 14" fill="none" xmlns="http://www.w3.org/2000/svg">
<path d="M4.63119 1.43148C4.46715 1.59557 4.375 1.81809 4.375 2.05011C4.375 2.28212 4.46715 2.50464 4.63119 2.66873L8.96244 6.99998L4.63119 11.3312C4.4718 11.4963 4.3836 11.7173 4.3856 11.9467C4.38759 12.1761 4.47961 12.3956 4.64185 12.5578C4.80408 12.7201 5.02354 12.8121 5.25296 12.8141C5.48238 12.8161 5.70341 12.7279 5.86844 12.5685L10.8183 7.61861C10.9824 7.45452 11.0745 7.232 11.0745 6.99998C11.0745 6.76796 10.9824 6.54544 10.8183 6.38136L5.86844 1.43148C5.70435 1.26744 5.48183 1.17529 5.24981 1.17529C5.01779 1.17529 4.79528 1.26744 4.63119 1.43148Z" fill="#114990"/>
</svg>
