<svg width="100" height="100" viewBox="0 0 100 100" fill="none" xmlns="http://www.w3.org/2000/svg">
<path d="M79.3043 69.3662H77.8043H79.3043ZM45.0783 52.5563C45.9067 52.5563 46.5783 51.8848 46.5783 51.0563C46.5783 50.2279 45.9067 49.5563 45.0783 49.5563V52.5563ZM16.2089 49.9957C15.6231 50.5815 15.6231 51.5312 16.2089 52.117L25.7548 61.6629C26.3406 62.2487 27.2904 62.2487 27.8762 61.6629C28.462 61.0772 28.462 60.1274 27.8762 59.5416L19.3909 51.0563L27.8762 42.5711C28.462 41.9853 28.462 41.0355 27.8762 40.4497C27.2904 39.864 26.3406 39.864 25.7548 40.4497L16.2089 49.9957ZM17.2696 36.1761C16.4411 36.1761 15.7696 36.8476 15.7696 37.6761C15.7696 38.5045 16.4411 39.1761 17.2696 39.1761V36.1761ZM46.1389 38.7367C46.7247 38.1509 46.7247 37.2012 46.1389 36.6154L36.593 27.0695C36.0072 26.4837 35.0574 26.4837 34.4717 27.0695C33.8859 27.6552 33.8859 28.605 34.4717 29.1908L42.9569 37.6761L34.4717 46.1613C33.8859 46.7471 33.8859 47.6969 34.4717 48.2827C35.0574 48.8684 36.0072 48.8684 36.593 48.2827L46.1389 38.7367ZM12 26.5H52.4869V23.5H12V26.5ZM9.5 65.3662V29H6.5V65.3662H9.5ZM54.987 29V37.6761H57.987V29H54.987ZM54.987 37.6761V69.3662H57.987V37.6761H54.987ZM56.487 39.1761H76.7304V36.1761H56.487V39.1761ZM79.2304 41.6761V47.0563H82.2304V41.6761H79.2304ZM84.7304 52.5563H86V49.5563H84.7304V52.5563ZM88.5 55.0563V65.3662H91.5V55.0563H88.5ZM67.1826 67.8662H56.487V70.8662H67.1826V67.8662ZM73.2435 62.2324C71.4872 62.2324 70.0695 62.6435 68.9494 63.3376C67.8336 64.0291 67.098 64.9486 66.6192 65.8387C66.1447 66.7209 65.9146 67.5869 65.8009 68.2212C65.7434 68.5416 65.714 68.8123 65.6989 69.0092C65.6913 69.1079 65.6872 69.1889 65.685 69.2492C65.684 69.2793 65.6834 69.3044 65.683 69.324C65.6828 69.3338 65.6827 69.3423 65.6827 69.3493C65.6827 69.3528 65.6826 69.356 65.6826 69.3588C65.6826 69.3602 65.6826 69.3615 65.6826 69.3628C65.6826 69.3634 65.6826 69.3643 65.6826 69.3646C65.6826 69.3654 65.6826 69.3662 67.1826 69.3662C68.6826 69.3662 68.6826 69.367 68.6826 69.3677C68.6826 69.3679 68.6826 69.3687 68.6826 69.3691C68.6826 69.37 68.6826 69.3708 68.6826 69.3715C68.6826 69.373 68.6826 69.3741 68.6826 69.3749C68.6826 69.3766 68.6825 69.3769 68.6826 69.3761C68.6826 69.3743 68.6827 69.3678 68.6831 69.3567C68.6839 69.3344 68.6858 69.2944 68.69 69.239C68.6986 69.1279 68.7165 68.9584 68.7538 68.7506C68.8294 68.3286 68.9781 67.7861 69.2612 67.2599C69.54 66.7416 69.9408 66.2526 70.5297 65.8877C71.1142 65.5255 71.9693 65.2324 73.2435 65.2324V62.2324ZM86 67.8662H79.3043V70.8662H86V67.8662ZM73.2435 65.2324C74.5177 65.2324 75.3728 65.5255 75.9573 65.8877C76.5461 66.2526 76.9469 66.7416 77.2257 67.2599C77.5088 67.7861 77.6575 68.3286 77.7332 68.7506C77.7704 68.9584 77.7884 69.1279 77.7969 69.239C77.8012 69.2944 77.803 69.3344 77.8038 69.3567C77.8042 69.3678 77.8044 69.3743 77.8044 69.3761C77.8044 69.3769 77.8044 69.3765 77.8044 69.3749C77.8044 69.3741 77.8044 69.373 77.8044 69.3715C77.8044 69.3708 77.8044 69.37 77.8043 69.3691C77.8043 69.3687 77.8043 69.3679 77.8043 69.3677C77.8043 69.367 77.8043 69.3662 79.3043 69.3662C80.8043 69.3662 80.8043 69.3654 80.8043 69.3646C80.8043 69.3643 80.8043 69.3634 80.8043 69.3628C80.8043 69.3615 80.8043 69.3602 80.8043 69.3588C80.8043 69.356 80.8043 69.3528 80.8043 69.3493C80.8042 69.3423 80.8041 69.3338 80.8039 69.324C80.8036 69.3044 80.803 69.2793 80.8019 69.2492C80.7997 69.1889 80.7957 69.1079 80.7881 69.0092C80.773 68.8123 80.7436 68.5416 80.6861 68.2212C80.5724 67.5869 80.3423 66.7209 79.8678 65.8387C79.3889 64.9486 78.6534 64.0291 77.5375 63.3376C76.4174 62.6435 74.9997 62.2324 73.2435 62.2324V65.2324ZM73.2435 76.5C74.9997 76.5 76.4174 76.0889 77.5375 75.3947C78.6534 74.7033 79.3889 73.7838 79.8678 72.8937C80.3423 72.0115 80.5724 71.1455 80.6861 70.5112C80.7436 70.1908 80.773 69.9201 80.7881 69.7232C80.7957 69.6245 80.7997 69.5435 80.8019 69.4832C80.803 69.4531 80.8036 69.428 80.8039 69.4084C80.8041 69.3986 80.8042 69.3901 80.8043 69.3831C80.8043 69.3796 80.8043 69.3764 80.8043 69.3736C80.8043 69.3722 80.8043 69.3708 80.8043 69.3696C80.8043 69.369 80.8043 69.3681 80.8043 69.3678C80.8043 69.367 80.8043 69.3662 79.3043 69.3662C77.8043 69.3662 77.8043 69.3654 77.8043 69.3647C77.8043 69.3645 77.8043 69.3637 77.8043 69.3633C77.8044 69.3624 77.8044 69.3616 77.8044 69.3609C77.8044 69.3594 77.8044 69.3583 77.8044 69.3575C77.8044 69.3559 77.8044 69.3555 77.8044 69.3563C77.8044 69.3581 77.8042 69.3646 77.8038 69.3757C77.803 69.3979 77.8012 69.438 77.7969 69.4934C77.7884 69.6045 77.7704 69.774 77.7332 69.9818C77.6575 70.4038 77.5088 70.9463 77.2257 71.4725C76.9469 71.9908 76.5461 72.4798 75.9573 72.8447C75.3728 73.2069 74.5177 73.5 73.2435 73.5V76.5ZM67.1826 69.3662C65.6826 69.3662 65.6826 69.367 65.6826 69.3678C65.6826 69.3681 65.6826 69.369 65.6826 69.3696C65.6826 69.3708 65.6826 69.3722 65.6826 69.3736C65.6826 69.3764 65.6827 69.3796 65.6827 69.3831C65.6827 69.3901 65.6828 69.3986 65.683 69.4084C65.6834 69.428 65.684 69.4531 65.685 69.4832C65.6872 69.5435 65.6913 69.6245 65.6989 69.7232C65.714 69.9201 65.7434 70.1908 65.8009 70.5112C65.9146 71.1455 66.1447 72.0115 66.6192 72.8937C67.098 73.7838 67.8336 74.7033 68.9494 75.3947C70.0695 76.0889 71.4872 76.5 73.2435 76.5V73.5C71.9693 73.5 71.1142 73.2069 70.5297 72.8447C69.9408 72.4798 69.54 71.9908 69.2612 71.4725C68.9781 70.9463 68.8294 70.4038 68.7538 69.9818C68.7165 69.774 68.6986 69.6045 68.69 69.4934C68.6858 69.438 68.6839 69.3979 68.6831 69.3757C68.6827 69.3646 68.6826 69.3581 68.6826 69.3563C68.6825 69.3555 68.6826 69.3558 68.6826 69.3575C68.6826 69.3583 68.6826 69.3594 68.6826 69.3609C68.6826 69.3616 68.6826 69.3624 68.6826 69.3633C68.6826 69.3637 68.6826 69.3645 68.6826 69.3647C68.6826 69.3654 68.6826 69.3662 67.1826 69.3662ZM20.8348 67.8662H12V70.8662H20.8348V67.8662ZM26.5391 62.2324C24.8544 62.2324 23.4908 62.6524 22.4164 63.3599C21.3505 64.0617 20.6569 64.9882 20.2096 65.8718C19.7654 66.7491 19.5508 67.6086 19.4448 68.2363C19.3913 68.5537 19.3639 68.8215 19.3498 69.0159C19.3428 69.1134 19.339 69.1932 19.337 69.2523C19.336 69.2819 19.3355 69.3065 19.3352 69.3255C19.335 69.3351 19.3349 69.3433 19.3349 69.3501C19.3348 69.3535 19.3348 69.3565 19.3348 69.3592C19.3348 69.3605 19.3348 69.3618 19.3348 69.363C19.3348 69.3635 19.3348 69.3644 19.3348 69.3647C19.3348 69.3654 19.3348 69.3662 20.8348 69.3662C22.3348 69.3662 22.3348 69.3669 22.3348 69.3676C22.3348 69.3678 22.3348 69.3685 22.3348 69.3689C22.3348 69.3697 22.3348 69.3705 22.3348 69.3712C22.3348 69.3725 22.3348 69.3735 22.3348 69.3742C22.3347 69.3755 22.3347 69.3756 22.3348 69.3745C22.3348 69.3723 22.3349 69.3652 22.3353 69.3535C22.3361 69.3302 22.3379 69.2889 22.342 69.2323C22.3502 69.1186 22.3674 68.9463 22.403 68.7355C22.4753 68.3069 22.6172 67.7579 22.8861 67.2268C23.1518 66.702 23.5278 66.22 24.0662 65.8655C24.5961 65.5166 25.3717 65.2324 26.5391 65.2324V62.2324ZM56.487 67.8662H32.2435V70.8662H56.487V67.8662ZM32.2435 69.3662C33.7435 69.3662 33.7435 69.3654 33.7435 69.3647C33.7435 69.3644 33.7435 69.3635 33.7435 69.363C33.7435 69.3618 33.7435 69.3605 33.7435 69.3592C33.7435 69.3565 33.7434 69.3535 33.7434 69.3501C33.7434 69.3433 33.7433 69.3351 33.7431 69.3255C33.7428 69.3065 33.7422 69.2819 33.7412 69.2523C33.7392 69.1932 33.7355 69.1134 33.7284 69.0159C33.7144 68.8215 33.687 68.5537 33.6334 68.2363C33.5275 67.6086 33.3129 66.7491 32.8687 65.8718C32.4214 64.9882 31.7278 64.0617 30.6618 63.3599C29.5874 62.6524 28.2239 62.2324 26.5391 62.2324V65.2324C27.7065 65.2324 28.4821 65.5166 29.0121 65.8655C29.5505 66.22 29.9265 66.702 30.1922 67.2268C30.461 67.7579 30.6029 68.3069 30.6753 68.7355C30.7108 68.9463 30.728 69.1186 30.7362 69.2323C30.7403 69.2889 30.7421 69.3302 30.7429 69.3535C30.7433 69.3652 30.7435 69.3723 30.7435 69.3745C30.7435 69.3756 30.7435 69.3755 30.7435 69.3742C30.7435 69.3735 30.7435 69.3725 30.7435 69.3712C30.7435 69.3705 30.7435 69.3697 30.7435 69.3689C30.7435 69.3685 30.7435 69.3678 30.7435 69.3676C30.7435 69.3669 30.7435 69.3662 32.2435 69.3662ZM32.2435 69.3662C30.7435 69.3662 30.7435 69.3655 30.7435 69.3648C30.7435 69.3646 30.7435 69.3639 30.7435 69.3635C30.7435 69.3627 30.7435 69.3619 30.7435 69.3612C30.7435 69.3599 30.7435 69.3589 30.7435 69.3582C30.7435 69.3569 30.7435 69.3568 30.7435 69.3579C30.7435 69.3601 30.7433 69.3672 30.7429 69.3789C30.7421 69.4022 30.7403 69.4435 30.7362 69.5001C30.728 69.6138 30.7108 69.7861 30.6753 69.9969C30.6029 70.4255 30.461 70.9745 30.1922 71.5056C29.9265 72.0304 29.5505 72.5124 29.0121 72.8669C28.4821 73.2158 27.7065 73.5 26.5391 73.5V76.5C28.2239 76.5 29.5874 76.0799 30.6618 75.3725C31.7278 74.6707 32.4214 73.7442 32.8687 72.8606C33.3129 71.9833 33.5275 71.1238 33.6334 70.4961C33.687 70.1787 33.7144 69.9109 33.7284 69.7165C33.7355 69.619 33.7392 69.5392 33.7412 69.4801C33.7422 69.4505 33.7428 69.4259 33.7431 69.4069C33.7433 69.3973 33.7434 69.3891 33.7434 69.3823C33.7434 69.3789 33.7435 69.3759 33.7435 69.3732C33.7435 69.3719 33.7435 69.3706 33.7435 69.3694C33.7435 69.3689 33.7435 69.368 33.7435 69.3677C33.7435 69.367 33.7435 69.3662 32.2435 69.3662ZM26.5391 73.5C25.3717 73.5 24.5961 73.2158 24.0662 72.8669C23.5278 72.5124 23.1518 72.0304 22.8861 71.5056C22.6172 70.9745 22.4753 70.4255 22.403 69.9969C22.3674 69.7861 22.3502 69.6138 22.342 69.5001C22.3379 69.4435 22.3361 69.4022 22.3353 69.3789C22.3349 69.3672 22.3348 69.3601 22.3348 69.3579C22.3347 69.3568 22.3347 69.3569 22.3348 69.3582C22.3348 69.3589 22.3348 69.3599 22.3348 69.3612C22.3348 69.3619 22.3348 69.3627 22.3348 69.3635C22.3348 69.3639 22.3348 69.3646 22.3348 69.3648C22.3348 69.3655 22.3348 69.3662 20.8348 69.3662C19.3348 69.3662 19.3348 69.367 19.3348 69.3677C19.3348 69.368 19.3348 69.3689 19.3348 69.3694C19.3348 69.3706 19.3348 69.3719 19.3348 69.3732C19.3348 69.3759 19.3348 69.3789 19.3349 69.3823C19.3349 69.3891 19.335 69.3973 19.3352 69.4069C19.3355 69.4259 19.336 69.4505 19.337 69.4801C19.339 69.5392 19.3428 69.619 19.3498 69.7165C19.3639 69.9109 19.3913 70.1787 19.4448 70.4961C19.5508 71.1238 19.7654 71.9833 20.2096 72.8606C20.6569 73.7442 21.3505 74.6707 22.4164 75.3725C23.4908 76.0799 24.8544 76.5 26.5391 76.5V73.5ZM45.0783 49.5563H17.2696V52.5563H45.0783V49.5563ZM17.2696 39.1761H45.0783V36.1761H17.2696V39.1761ZM88.5 65.3662C88.5 66.7469 87.3807 67.8662 86 67.8662V70.8662C89.0376 70.8662 91.5 68.4038 91.5 65.3662H88.5ZM86 52.5563C87.3807 52.5563 88.5 53.6756 88.5 55.0563H91.5C91.5 52.0188 89.0376 49.5563 86 49.5563V52.5563ZM6.5 65.3662C6.5 68.4038 8.96244 70.8662 12 70.8662V67.8662C10.6193 67.8662 9.5 66.7469 9.5 65.3662H6.5ZM79.2304 47.0563C79.2304 50.0939 81.6929 52.5563 84.7304 52.5563V49.5563C83.3497 49.5563 82.2304 48.437 82.2304 47.0563H79.2304ZM52.4869 26.5C53.8677 26.5 54.987 27.6193 54.987 29H57.987C57.987 25.9624 55.5245 23.5 52.4869 23.5V26.5ZM76.7304 39.1761C78.1111 39.1761 79.2304 40.2953 79.2304 41.6761H82.2304C82.2304 38.6385 79.768 36.1761 76.7304 36.1761V39.1761ZM12 23.5C8.96243 23.5 6.5 25.9624 6.5 29H9.5C9.5 27.6193 10.6193 26.5 12 26.5V23.5Z" fill="#EB6359"/>
</svg>
