<svg width="32" height="32" viewBox="0 0 32 32" fill="none" xmlns="http://www.w3.org/2000/svg">
<path d="M25.382 3H6.61803C5.87465 3 5.39116 3.78231 5.72361 4.44721L5.89443 4.78885C5.96385 4.92771 6 5.08082 6 5.23607V26.3074C6 26.4346 5.97572 26.5607 5.92848 26.6788L5.54856 27.6286C5.28581 28.2855 5.76957 29 6.47703 29H25.523C26.2304 29 26.7142 28.2855 26.4514 27.6286L26.0715 26.6788C26.0243 26.5607 26 26.4346 26 26.3074V5.23607C26 5.08082 26.0361 4.92771 26.1056 4.78885L26.2764 4.44721C26.6088 3.78231 26.1253 3 25.382 3Z" fill="#F9D1CE"/>
<path d="M10 6.5C9.72386 6.5 9.5 6.72386 9.5 7C9.5 7.27614 9.72386 7.5 10 7.5V6.5ZM22 7.5C22.2761 7.5 22.5 7.27614 22.5 7C22.5 6.72386 22.2761 6.5 22 6.5V7.5ZM20 24.5C19.7239 24.5 19.5 24.7239 19.5 25C19.5 25.2761 19.7239 25.5 20 25.5V24.5ZM22 25.5C22.2761 25.5 22.5 25.2761 22.5 25C22.5 24.7239 22.2761 24.5 22 24.5V25.5ZM16.6464 10.6464L15.6464 11.6464L16.3536 12.3536L17.3536 11.3536L16.6464 10.6464ZM16.3536 11.6464L15.3536 10.6464L14.6464 11.3536L15.6464 12.3536L16.3536 11.6464ZM15.6464 19.6464L14.6464 20.6464L15.3536 21.3536L16.3536 20.3536L15.6464 19.6464ZM15.6464 20.3536L16.6464 21.3536L17.3536 20.6464L16.3536 19.6464L15.6464 20.3536ZM15.5 12V16H16.5V12H15.5ZM15.5 16V20H16.5V16H15.5ZM16.2481 16.4341L19.7481 14.4341L19.2519 13.5659L15.7519 15.5659L16.2481 16.4341ZM19.9743 14.1581L20.4743 12.6581L19.5257 12.3419L19.0257 13.8419L19.9743 14.1581ZM19.3419 14.4743L20.8419 14.9743L21.1581 14.0257L19.6581 13.5257L19.3419 14.4743ZM16.2481 15.5659L12.7481 13.5659L12.2519 14.4341L15.7519 16.4341L16.2481 15.5659ZM12.9743 13.8419L12.4743 12.3419L11.5257 12.6581L12.0257 14.1581L12.9743 13.8419ZM12.3419 13.5257L10.8419 14.0257L11.1581 14.9743L12.6581 14.4743L12.3419 13.5257ZM15.7519 16.4341L19.2519 18.4341L19.7481 17.5659L16.2481 15.5659L15.7519 16.4341ZM19.0257 18.1581L19.5257 19.6581L20.4743 19.3419L19.9743 17.8419L19.0257 18.1581ZM19.6581 18.4743L21.1581 17.9743L20.8419 17.0257L19.3419 17.5257L19.6581 18.4743ZM15.7519 15.5659L12.2519 17.5659L12.7481 18.4341L16.2481 16.4341L15.7519 15.5659ZM12.0257 17.8419L11.5257 19.3419L12.4743 19.6581L12.9743 18.1581L12.0257 17.8419ZM12.6581 17.5257L11.1581 17.0257L10.8419 17.9743L12.3419 18.4743L12.6581 17.5257ZM20 25.5H22V24.5H20V25.5ZM10 7.5H16V6.5H10V7.5ZM16 7.5H22V6.5H16V7.5Z" fill="#EB6359"/>
</svg>
