<svg width="96" height="80" viewBox="0 0 96 80" fill="none" xmlns="http://www.w3.org/2000/svg">
<g clip-path="url(#clip0_2_2586)">
<mask id="mask0_2_2586" style="mask-type:alpha" maskUnits="userSpaceOnUse" x="0" y="0" width="96" height="80">
<path d="M95.9981 0H0V79.9145H95.9981V0Z" fill="white"/>
</mask>
<g mask="url(#mask0_2_2586)">
<path fill-rule="evenodd" clip-rule="evenodd" d="M87.8688 39.7892C89.3642 40.7719 90.4987 43.2818 91.1009 44.829C91.5445 45.9683 92.1663 47.8251 92.3171 49.3507C93.3657 49.9305 94.2129 50.8563 94.444 52.0801C94.5062 52.408 94.5173 52.7362 94.4825 53.0585C96.2294 54.5292 96.4897 56.8011 95.1196 58.708C95.9923 61.8885 95.3687 65.1341 93.078 67.6501C91.2958 69.6082 88.7466 70.8106 86.1121 70.9887C84.0033 71.1315 81.9844 70.6167 80.2588 69.5226C80.1786 69.6082 80.0923 69.69 79.999 69.7681C78.6437 70.9032 76.5302 70.5814 74.8835 70.593C74.5141 70.5953 74.1508 70.5363 73.807 70.4214C66.5938 76.5685 57.4977 79.9239 47.997 79.9239C38.4921 79.9239 29.3835 76.5671 22.155 70.3959C21.9257 70.3061 21.7134 70.1913 21.5203 70.0536C20.9648 70.5772 20.2361 70.9097 19.3253 70.9766C17.9302 71.0799 16.5307 70.8209 15.5747 69.7114C15.0114 69.0576 14.7313 68.2318 14.5916 67.3516C13.2983 69.5877 11.1586 70.9999 8.06744 70.9999C6.48968 70.9999 5.01901 70.5572 3.78087 69.5603C-0.258207 66.3077 -0.000609812 58.7527 -0.000609812 54.0293C-0.000609812 50.8577 -0.0353676 47.2499 0.818865 44.1866C1.92878 40.2062 4.83931 38.5351 8.12878 39.4179C8.42165 17.6035 26.1597 0.0090332 47.997 0.0090332C69.9582 0.0090332 87.7737 17.8034 87.8688 39.7892Z" fill="#DADADB"/>
<mask id="mask1_2_2586" style="mask-type:alpha" maskUnits="userSpaceOnUse" x="9" y="1" width="77" height="77">
<path d="M47.9771 1.58075H47.9307C26.9433 1.58075 9.92969 18.6307 9.92969 39.663C9.92969 60.6952 26.9433 77.7452 47.9307 77.7452H47.9771C68.9644 77.7452 85.978 60.6952 85.978 39.663C85.978 18.6307 68.9644 1.58075 47.9771 1.58075Z" fill="white"/>
</mask>
<g mask="url(#mask1_2_2586)">
<g style="mix-blend-mode:darken">
<path d="M85.978 39.6626C85.978 60.6948 68.9541 77.7448 47.9539 77.7448C26.9537 77.7448 9.92969 60.6948 9.92969 39.6626C9.92969 18.6304 26.9537 1.58038 47.9539 1.58038C68.9541 1.58038 85.978 18.6304 85.978 39.6626Z" fill="#0E76A8"/>
</g>
</g>
<path fill-rule="evenodd" clip-rule="evenodd" d="M33.4339 56.4141C32.608 52.3962 32.3061 53.4777 31.3942 50.6846C29.7069 45.5161 34.8218 42.8954 32.436 41.329C30.1381 39.8199 23.4349 38.0489 24.1247 33.3904C24.5122 30.7743 26.3571 29.6766 28.7538 30.1893C31.5848 30.7944 33.8656 33.9536 35.8398 33.1369C37.4286 32.479 34.031 31.8698 33.7862 26.7172C33.6446 23.7315 35.1876 19.1942 36.4318 16.4919C36.9429 15.3824 36.6657 16.1228 35.812 14.8233C34.4864 12.806 34.1717 7.87645 36.5704 9.21937C37.2983 9.62721 39.6239 11.7498 40.3169 11.8984C40.4317 11.9232 43.7775 10.8219 48.0829 11.7038C48.8132 11.8535 48.5821 11.8948 49.4702 10.9944C50.3792 10.0733 52.2996 8.22449 53.7209 8.87184C54.737 9.33501 54.5607 11.6857 54.6089 12.7839C54.6275 13.201 54.6646 13.3399 55.053 13.8408C57.4351 16.9106 60.6102 19.884 62.4671 23.8709C64.1686 27.5216 67.2267 37.6664 67.4722 43.0958C67.5372 44.5285 69.1551 44.9044 69.1551 47.7036C69.1551 50.3 66.8964 50.3298 66.4115 52.9044C65.465 57.9281 62.9251 58.8292 62.2036 63.6423C61.9391 65.4069 59.4122 66.9279 56.3406 66.9962C52.7734 67.0748 49.2011 64.9033 52.3553 61.7693C52.8165 61.3113 52.8894 60.7836 52.8745 60.3828C52.8254 58.9943 46.2751 59.1092 46.4074 60.7478C46.5457 62.4575 48.0601 62.3938 47.9274 64.0905C47.7878 65.8696 45.1917 67.1157 42.1294 66.8749C35.2195 66.3304 34.7058 62.6096 33.4339 56.4141Z" fill="#2B2B2A"/>
<path fill-rule="evenodd" clip-rule="evenodd" d="M35.1826 29.9999C34.0353 28.8662 33.9647 26.5112 34.2614 24.4724C34.5304 22.6272 34.9616 21.1769 35.8503 18.929C36.5303 17.2081 37.6777 13.8491 39.1955 12.9606C40.5648 12.1588 47.2882 11.183 48.4139 12.4133C49.4518 13.5486 50.5353 16.4796 51.5964 15.636C52.2627 15.1063 52.4984 13.8423 53.9688 16.5359C55.0582 18.5318 55.7287 20.3358 55.9612 22.5616C56.2878 25.6965 54.991 24.9902 54.7576 26.3053C54.6652 26.8252 54.9664 31.6232 51.8678 30.7599C51.4642 30.6473 51.8381 31.2339 50.706 32.046C49.4783 32.9263 47.9916 32.5484 47.221 32.5746C46.9504 32.5839 47.1374 32.7755 46.5482 33.3605C45.2717 34.6281 43.6699 35.5047 41.8136 35.5047C39.841 35.5047 39.079 34.6998 41.0011 33.949C42.3305 33.4296 43.3645 32.5577 44.1759 31.3046L44.5098 30.4306C43.5493 31.9949 42.3037 33.4203 40.2898 33.8111C38.0049 34.2552 36.2852 32.9258 35.6174 30.9179C35.3897 30.2339 35.5891 30.4315 35.1826 29.9999ZM37.484 36.9916C35.4144 39.5199 32.7544 45.1316 33.1631 48.516C33.7256 53.1807 37.4521 55.4494 41.9945 56.7788C44.4046 57.4846 47.7903 57.7236 49.9232 57.2522C57.0678 55.6731 61.0405 51.0162 63.2728 47.0457C63.8374 46.0418 64.2397 43.006 63.115 42.514C61.5439 41.8268 60.8224 45.6065 59.0653 47.6414C57.7986 49.1084 55.3153 50.8298 53.5512 51.119C48.6389 51.9234 46.995 47.0848 52.3727 42.6539C53.3777 41.8251 54.9204 40.9418 54.0639 39.4218C53.4681 38.3645 50.487 37.1429 49.4142 36.6943C48.1471 36.164 48.5238 36.5672 46.7106 36.9064C44.3494 37.3489 40.7844 37.1404 38.4964 36.5847C38.0965 36.4877 37.9265 36.451 37.484 36.9916ZM37.4052 30.5059C36.9028 29.3163 35.7694 30.779 37.299 31.8978C39.6689 33.631 41.4598 30.0753 39.9951 30.1114C39.0971 30.1336 40.164 31.1069 37.7313 30.7259C37.4829 30.6871 37.4619 30.6407 37.4052 30.5059Z" fill="white"/>
<path fill-rule="evenodd" clip-rule="evenodd" d="M44.5025 25.5714C44.2029 27.8531 44.9101 31.4223 47.9424 30.8002C50.8646 30.2007 51.388 26.4372 50.3844 25.2726C49.9608 24.7808 47.729 22.8684 47.4371 23.4059C47.0437 24.1312 47.2214 26.416 44.8192 25.3099C44.6164 25.2166 44.55 25.2084 44.5025 25.5714Z" fill="#DADADB"/>
<path fill-rule="evenodd" clip-rule="evenodd" d="M36.2894 24.1544C35.3714 25.6115 34.2684 27.6654 35.0971 29.4181C35.3499 29.9528 35.9557 30.6515 35.9797 29.4131C36.0099 27.852 36.4524 27.4473 37.0909 26.0693C37.5184 25.1465 37.0909 25.1684 36.7565 24.6289C36.425 24.0944 36.6231 23.6238 36.2894 24.1544Z" fill="#DADADB"/>
<path fill-rule="evenodd" clip-rule="evenodd" d="M36.7565 22.524C36.5252 23.3622 35.1667 26.7669 35.8359 26.9474C36.8489 27.2208 37.6499 25.4491 38.1604 24.8106C38.7896 24.0238 39.4063 23.3052 39.1829 21.9377C39.0453 21.0956 38.1524 19.5904 37.2303 20.9562C36.9018 21.4428 36.9537 21.8098 36.7565 22.524ZM44.4683 23.6089C44.194 23.9232 44.8541 23.8973 44.6306 23.6002C44.5928 23.5502 44.5151 23.5551 44.4683 23.6089ZM37.8591 23.0921C37.555 23.3778 38.1991 23.6911 38.2117 23.2796C38.2161 23.1392 38.0042 22.9555 37.8591 23.0921ZM37.5867 23.5252C37.3739 23.769 37.8861 23.749 37.7126 23.5184C37.6833 23.4797 37.623 23.4834 37.5867 23.5252ZM44.8193 23.0508C44.4274 23.419 45.2575 23.8227 45.2738 23.2924C45.2792 23.1114 45.0063 22.8748 44.8193 23.0508ZM44.0323 23.2801C43.8822 24.0751 45.1505 25.0652 45.6888 24.2406C46.4933 23.0084 44.3209 21.747 44.0323 23.2801ZM38.5817 23.0867C38.6981 23.7037 37.7141 24.4719 37.2963 23.832C36.672 22.8758 38.3578 21.8971 38.5817 23.0867ZM38.6185 22.5266C39.4033 23.3178 38.2092 24.8515 37.207 24.3401C36.0067 23.7275 37.6831 21.5819 38.6185 22.5266ZM43.9848 22.5582C42.9734 23.578 44.5123 25.5545 45.8039 24.8954C47.3507 24.1059 45.1904 21.3408 43.9848 22.5582ZM42.333 23.9237C42.6285 24.2009 43.3624 24.3914 43.9655 24.9764C44.9315 25.9135 45.6522 27.9569 47.1071 26.7745C49.1454 25.1186 47.1554 21.5929 46.0952 20.8719C44.4423 19.7479 42.1166 23.0034 42.1231 23.4678C42.1249 23.6088 42.1827 23.7828 42.333 23.9237Z" fill="#2B2B2A"/>
<path fill-rule="evenodd" clip-rule="evenodd" d="M27.8476 31.5603C27.9903 31.5894 28.2056 31.5894 28.3008 31.4671C28.396 31.3447 28.3712 31.1 28.4353 30.3825C28.4995 29.6649 28.6525 28.4744 28.7292 27.8668C28.8057 27.2591 28.8057 27.2342 28.7167 27.2155C28.6277 27.1968 28.4498 27.1845 28.3237 27.1782C28.1973 27.1719 28.1228 27.1719 28.0773 27.3005C28.0318 27.4291 28.0151 27.6862 27.9469 28.2981C27.8786 28.91 27.7586 29.8763 27.6862 30.455C27.6138 31.0336 27.5889 31.2244 27.6117 31.3489C27.6344 31.4733 27.7047 31.5313 27.8476 31.5603Z" fill="#ECECEC"/>
<path fill-rule="evenodd" clip-rule="evenodd" d="M26.7434 27.2952C27.5272 27.4909 29.472 27.8194 30.28 27.6683C31.1806 27.4999 31.111 26.7897 31.146 25.4544L31.2758 18.5424C31.2155 17.8273 30.8792 17.5396 30.2151 17.4186C29.5608 17.2994 29.2339 17.4619 28.8712 18.0079C27.8375 19.5638 25.6048 24.53 25.9294 26.3545C26.0471 27.0164 26.1725 27.1527 26.7434 27.2952Z" fill="#7F451B"/>
<mask id="mask2_2_2586" style="mask-type:alpha" maskUnits="userSpaceOnUse" x="1" y="40" width="94" height="30">
<path d="M94.3756 40.6861H1.48438V69.4686H94.3756V40.6861Z" fill="white"/>
<path d="M83.1519 47.8738C83.6206 46.5746 84.4033 44.5555 84.9295 43.5203C85.4557 42.4853 85.7252 42.4337 86.0139 42.5816C87.0421 43.1084 89.278 49.2924 88.9588 50.1048C88.6062 51.0017 84.0052 50.347 83.3575 50.0857C82.5297 49.7509 82.6838 49.1725 83.1519 47.8738Z" fill="black"/>
<path d="M17.6879 63.8252C17.6804 63.0077 17.6804 63.0012 18.357 63.0087C18.8537 63.0142 19.1432 62.9719 19.3086 63.0961C19.5764 63.297 19.5182 63.9345 19.4863 65.9213C19.4843 66.0473 19.4835 66.1668 19.4826 66.2798C19.4763 67.1391 19.4728 67.6218 19.0126 67.6557C17.8488 67.7417 17.8278 67.4362 17.7756 66.6783L17.7742 66.6588C17.725 65.9446 17.6939 64.6468 17.6888 63.9405C17.6886 63.9 17.6882 63.8619 17.6879 63.8252Z" fill="black"/>
<path d="M9.95895 58.9375C9.96016 58.7632 10.1176 58.6307 10.2886 58.6618C11.051 58.7999 11.8182 58.9343 12.5859 59.0659C12.7196 59.0891 12.8175 59.2049 12.8167 59.3412C12.8032 61.7093 12.5813 63.7441 11.9138 65.1981C11.2093 66.7321 10.0116 67.67 7.99775 67.67C5.64823 67.67 4.44472 65.8835 3.85798 63.2661C3.25717 60.5855 3.24707 57.1674 3.24707 54.0245C3.24707 50.8078 3.29831 47.392 3.94408 45.0761C4.57199 42.8246 5.79643 41.796 8.16131 43.0243C9.82476 43.8882 10.9756 45.0808 11.6985 46.6508C12.404 48.1834 12.7227 50.1242 12.7227 52.5063C12.7227 52.6579 12.5772 52.7672 12.432 52.724C11.638 52.4891 10.8441 52.2446 10.0502 51.9911C9.93487 51.9544 9.85669 51.847 9.85669 51.7256V51.6387C9.85669 48.4926 9.34449 46.9428 8.16131 46.4173C7.33911 46.052 6.86876 46.5671 6.60359 47.9755C6.33531 49.3998 6.2678 51.6922 6.2678 54.8248C6.2678 57.8379 6.30088 60.1837 6.5519 61.7981C6.79995 63.393 7.28348 64.2519 8.16131 64.3137C9.41738 64.4025 9.93218 62.916 9.95895 58.9375Z" fill="black"/>
<path fill-rule="evenodd" clip-rule="evenodd" d="M32.8593 59.3961C33.4489 61.9521 34.052 64.4881 34.6529 66.9981C34.6949 67.1739 34.5616 67.3426 34.3811 67.3422C33.8314 67.3403 33.2839 67.3385 32.7372 67.3366C32.4505 67.3357 32.1641 67.3347 31.8777 67.3338C31.7472 67.3333 31.6346 67.2422 31.6068 67.1148C31.3895 66.1155 31.1783 65.1093 30.9675 64.1003C30.9413 63.9748 30.8332 63.8832 30.7054 63.8785C29.6187 63.8376 28.538 63.7962 27.4579 63.7502C27.3218 63.7441 27.2015 63.8376 27.1735 63.971C26.9568 65.0056 26.7461 66.0472 26.5357 67.092C26.5095 67.2227 26.3948 67.3161 26.2619 67.3157C25.823 67.3143 25.3843 67.312 24.9463 67.3096C24.554 67.3078 24.1623 67.3059 23.7718 67.3045C23.5942 67.3036 23.4626 67.139 23.5008 66.9655C24.1127 64.1789 24.7204 61.4346 25.3372 58.7386C25.9488 56.0668 26.5779 53.4257 27.2029 50.8204C27.2377 50.6753 27.3803 50.5837 27.5266 50.6111C28.6182 50.8185 29.716 50.9984 30.8141 51.1751C30.9266 51.1933 31.0167 51.2784 31.0417 51.3895C31.6475 54.0892 32.2507 56.7577 32.8593 59.3961ZM29.9142 61.2393C29.9923 61.2444 30.0704 61.249 30.1486 61.2541C30.331 61.2662 30.4751 61.1016 30.4396 60.9217C30.3929 60.6859 30.346 60.4497 30.2991 60.2135C30.1257 59.3407 29.9517 58.4652 29.7869 57.5877C29.6925 57.086 29.5969 56.5824 29.5011 56.0779C29.3703 55.3898 29.2391 54.6993 29.1102 54.0078C29.1039 53.9739 29.0555 53.9729 29.0484 54.0069C28.8097 55.1494 28.5704 56.2951 28.341 57.4408C28.2513 57.8886 28.1607 58.3373 28.0699 58.7869C27.9365 59.4472 27.8027 60.1098 27.6707 60.7747C27.6381 60.9389 27.7567 61.0951 27.9235 61.1067C28.5857 61.1532 29.2484 61.196 29.9142 61.2393Z" fill="black"/>
<path d="M44.8614 61.638C44.8635 61.638 44.8651 61.6394 44.8651 61.6417C44.8648 63.378 44.6573 64.8878 43.9615 65.9586C43.2637 67.0323 42.0595 67.6698 40.0454 67.6698C37.696 67.6698 36.5061 66.5901 35.9058 65.0342C35.3012 63.4672 35.2861 61.4408 35.2861 59.5795C35.2861 57.6708 35.3441 55.6309 35.9833 54.1206C36.6178 52.6215 37.8586 51.6446 40.209 51.7655C41.8779 51.851 43.0226 52.3067 43.7378 53.1799C44.4511 54.0513 44.7706 55.3389 44.7706 57.0133C44.7706 57.1295 44.6764 57.223 44.5607 57.2225C43.7397 57.2165 42.9187 57.2104 42.0977 57.2025C41.9907 57.2011 41.9046 57.1142 41.9046 57.0068C41.9046 54.9148 41.3966 53.9988 40.209 53.9574C39.3914 53.929 38.9097 54.3712 38.6427 55.3151C38.3763 56.2563 38.3157 57.7042 38.3157 59.6595C38.3157 61.5376 38.3494 62.9962 38.5996 63.9899C38.8484 64.9775 39.3313 65.5006 40.209 65.5048C41.4561 65.5104 41.9724 64.5149 42.006 61.9058C42.008 61.751 42.1336 61.6254 42.2881 61.6264C43.1417 61.632 44.0016 61.6347 44.8614 61.638Z" fill="black"/>
<path d="M51.0568 67.2332C50.7237 66.7278 50.2369 65.7871 49.9933 65.1984C49.7497 64.6098 49.7497 64.3731 50.0254 64.1792C50.6777 63.7207 52.7416 63.6114 53.2988 64.0825C53.9716 64.6507 52.194 67.1076 51.9198 67.4164C51.5691 67.8112 51.39 67.7396 51.0568 67.2332Z" fill="black"/>
<path d="M55.5506 63.2615L47.4242 63.3117C46.4108 63.2829 46.3323 63.1969 46.239 63.0676C45.8479 62.5245 45.2314 60.161 46.454 59.5147C47.5949 58.9107 53.4125 59.1227 54.8662 59.2203C56.2595 59.3138 56.6609 59.4784 56.9472 59.7909C57.4775 60.3684 57.6594 61.4611 57.4418 62.1814C57.1416 63.1713 56.5648 63.2327 55.5506 63.2615Z" fill="black"/>
<path d="M58.6113 51.6923C58.6113 51.5523 58.7143 51.4342 58.8526 51.4156C61.3725 51.0687 63.8999 50.6331 66.4277 50.1216C66.6003 50.0867 66.7618 50.2188 66.7618 50.3955V52.6725C66.7618 52.8078 66.6648 52.9236 66.5321 52.9468C64.9509 53.2267 63.3696 53.4816 61.7957 53.7006C61.6574 53.7196 61.5549 53.8377 61.5549 53.9772V57.2568C61.5549 57.4214 61.6964 57.5502 61.8597 57.5344C63.2888 57.3935 64.7179 57.2251 66.1475 57.0461C66.3136 57.0252 66.4607 57.1549 66.4607 57.3233V59.5947C66.4607 59.7388 66.3507 59.8593 66.2078 59.8723C64.743 60.0062 63.2786 60.1336 61.8138 60.2382C61.6681 60.2485 61.5549 60.3703 61.5549 60.5168V64.3496C61.5549 64.5068 61.6843 64.6333 61.8416 64.6286C63.4494 64.5798 65.0641 64.5231 66.6792 64.4612C66.837 64.4552 66.9683 64.5817 66.9683 64.7402V67.0317C66.9683 67.1851 66.8444 67.3097 66.6908 67.3106L58.8907 67.3385C58.7366 67.339 58.6113 67.2139 58.6113 67.0596V51.6923Z" fill="black"/>
<path d="M65.5569 47.608C65.5569 48.3836 65.0451 49.1178 64.4122 49.2499C63.7798 49.3815 63.2676 48.8761 63.2676 48.1186C63.2676 47.3616 63.7798 46.6255 64.4122 46.474C65.0451 46.3222 65.5569 46.8324 65.5569 47.608Z" fill="black"/>
<path d="M62.0452 48.3485C62.0452 49.0957 61.5288 49.7983 60.9005 49.9002C60.2727 50.0015 59.7559 49.478 59.7559 48.7456C59.7559 48.0137 60.2727 47.3395 60.9005 47.2209C61.5288 47.1028 62.0452 47.6013 62.0452 48.3485Z" fill="black"/>
<path d="M77.7518 66.9654C77.7518 67.1188 77.6279 67.2434 77.4748 67.2443C76.6716 67.2495 75.8689 67.255 75.0713 67.2606C74.9168 67.2616 74.791 67.1365 74.791 66.9816V59.0025C74.791 58.8319 74.6393 58.7012 74.4704 58.7263C73.4431 58.8807 72.4224 59.023 71.4016 59.1648C71.4007 59.1652 71.4002 59.1657 71.4002 59.1666V67.0077C71.4002 67.1616 71.2758 67.2862 71.1227 67.2867C70.3195 67.2899 69.5168 67.295 68.7197 67.3006C68.5652 67.3015 68.4395 67.1765 68.4395 67.0216V49.9344C68.4395 49.8079 68.5244 49.6972 68.6464 49.6647C69.4435 49.4531 70.2462 49.2392 71.0494 49.0235C71.2262 48.976 71.4002 49.1095 71.4002 49.2932V55.9903C71.4002 56.0034 71.4123 56.0131 71.4252 56.0108C72.4706 55.8127 73.5165 55.6146 74.5693 55.3975C74.6982 55.371 74.791 55.2571 74.791 55.1245V48.0568C74.791 47.9377 74.8662 47.8317 74.9785 47.7927C75.7728 47.5169 76.5723 47.2356 77.3732 46.9343C77.556 46.8655 77.7518 47.0008 77.7518 47.1961V66.9654Z" fill="black"/>
<path d="M89.6706 51.9406C87.4323 51.516 83.6346 51.5941 81.5007 52.174C80.7374 52.3814 80.5175 52.5757 80.5499 52.7445C80.6232 53.1272 81.8366 53.0179 83.145 52.8998C83.8531 52.8356 84.5895 52.7692 85.188 52.7771C86.0779 52.7882 87.0602 52.8812 87.9399 52.964C88.5691 53.0235 89.1463 53.0784 89.5996 53.0946C91.6862 53.1695 91.4718 52.2823 89.6706 51.9406Z" fill="black"/>
<path d="M15.5459 54.0745C15.7536 53.6118 15.9952 53.0734 16.0538 52.8688C16.149 52.5363 16.3259 52.0592 16.5318 51.5031C16.58 51.3734 16.6296 51.2395 16.6802 51.1018C17.0459 50.1077 17.7522 48.57 18.2889 47.8804C18.6635 47.4001 22.2222 54.6766 22.0565 55.1551C22.035 55.1867 22.0137 55.2174 21.9927 55.2467C21.6523 55.5429 20.2094 55.2927 18.7436 55.0254C18.6763 54.937 18.6088 54.8584 18.54 54.7957C18.2643 54.5423 18.0131 54.6357 17.7527 54.8468C16.4612 54.6218 15.3538 54.4827 15.2421 54.8264C15.163 54.9282 15.3374 54.5395 15.5459 54.0745Z" fill="black"/>
<path d="M15.242 54.8266C14.5892 56.8381 14.0494 58.8245 13.7716 60.4101C13.6342 61.1974 13.6585 61.5303 14.5211 61.7209C15.3701 61.9083 17.0313 61.959 18.3572 61.999L18.5263 62.0041C19.8081 62.0432 20.7502 62.0715 21.5502 61.9929C23.6416 61.7865 23.6871 61.0406 23.2956 59.29C22.9185 57.6063 22.5176 56.3531 22.0563 55.1553C22.0442 55.1902 22.0227 55.2209 21.9926 55.2469C21.9815 55.2628 21.9705 55.2781 21.9596 55.2934C21.9365 55.3255 21.9141 55.3571 21.8928 55.3883C21.8173 55.4976 21.7553 55.6003 21.6963 55.698C21.5779 55.8937 21.4717 56.0695 21.2934 56.2402C20.198 57.2882 19.5981 56.3434 19.0766 55.5222C18.9633 55.3437 18.8537 55.1707 18.7435 55.0256C18.6872 55.0154 18.6309 55.0052 18.5746 54.9949C18.2975 54.9442 18.0211 54.894 17.7526 54.8471C17.6443 54.9349 17.5343 55.0433 17.4204 55.1558C17.2354 55.3381 17.0398 55.5311 16.8231 55.664C16.1835 56.0569 15.5893 55.4413 15.242 54.8266Z" fill="black"/>
<path d="M48.9751 54.9164C47.2198 54.9275 46.061 57.2004 46.1277 58.3907C46.1519 58.8236 46.6059 58.7627 47.4666 58.6474C47.8434 58.5972 48.2976 58.5363 48.828 58.5019C49.2795 58.4726 49.788 58.4535 50.2729 58.4354C50.8533 58.414 51.3994 58.3935 51.772 58.3582C52.4559 58.2936 52.5562 58.1787 52.5204 57.8737C52.4847 57.5691 52.3126 57.0739 52.062 56.5964C51.4212 55.3758 50.3462 54.908 48.9751 54.9164Z" fill="black"/>
<path d="M49.0439 54.1915C48.7906 54.1966 48.5605 54.2017 48.3336 54.1552C47.7434 54.0338 48.7688 52.8253 49.0356 52.6012C51.4525 50.566 54.1808 52.7495 54.2713 53.8427C54.2866 54.0259 54.1492 54.0534 53.8741 54.1082C53.8254 54.118 53.7729 54.1287 53.7163 54.1408C52.8139 54.337 52.3861 54.5379 52.1137 54.6657C51.7467 54.8383 51.6609 54.8782 51.0767 54.5965C50.1844 54.1664 49.565 54.1798 49.0439 54.1915Z" fill="black"/>
<path d="M53.368 57.5756C53.426 57.7304 53.478 57.8695 53.523 57.9736C53.671 58.3149 53.8524 58.3028 54.2255 58.2787C54.5131 58.2601 54.9149 58.234 55.5037 58.3572C55.8828 58.4368 56.2099 58.5693 56.4777 58.6781C56.9403 58.8655 57.2256 58.9812 57.2943 58.6265C57.6595 56.7326 54.7776 53.9957 52.6818 55.1419C52.1862 55.4125 52.3908 55.7198 52.6799 56.1555C52.7801 56.3071 52.891 56.4736 52.9861 56.6596C53.1304 56.9423 53.2599 57.2873 53.368 57.5756Z" fill="black"/>
<path d="M89.4581 54.6316C85.8886 53.9797 82.8606 54.1043 79.5486 55.2379C78.6299 55.5527 78.6067 55.6671 78.5668 55.8903C78.4257 56.6775 78.7686 56.8384 79.3556 57.1137C79.4813 57.1727 79.6191 57.2374 79.7653 57.3146C80.3499 57.6228 80.1147 58.1943 79.7704 59.0308C79.3203 60.1226 78.6846 61.6663 79.446 63.6644C81.2454 68.3891 88.0573 69.1079 90.9419 64.8882C92.7793 62.202 92.0504 60.0933 91.6203 58.849C91.4537 58.3659 91.3317 58.013 91.4217 57.8065C91.482 57.6698 91.6565 57.4996 91.8532 57.308C92.6401 56.5413 93.789 55.4225 89.4581 54.6316Z" fill="black"/>
</mask>
<g mask="url(#mask2_2_2586)">
<path d="M83.1519 47.8739C83.6206 46.5747 84.4033 44.5556 84.9295 43.5204C85.4557 42.4854 85.7252 42.4338 86.0139 42.5817C87.0421 43.1085 89.278 49.2926 88.9588 50.1049C88.6062 51.0018 84.0052 50.3471 83.3575 50.0858C82.5297 49.751 82.6838 49.1726 83.1519 47.8739Z" fill="#E41C53"/>
<path d="M17.6879 63.8253C17.6804 63.0079 17.6804 63.0013 18.357 63.0088C18.8537 63.0144 19.1432 62.9721 19.3086 63.0962C19.5764 63.2971 19.5182 63.9346 19.4863 65.9215C19.4843 66.0475 19.4835 66.167 19.4826 66.28C19.4763 67.1392 19.4728 67.6219 19.0126 67.6558C17.8488 67.7419 17.8278 67.4364 17.7756 66.6784L17.7742 66.6589C17.725 65.9447 17.6939 64.6469 17.6888 63.9406C17.6886 63.9002 17.6882 63.862 17.6879 63.8253Z" fill="#E41C53"/>
<path d="M9.95993 58.9377C9.96113 58.7633 10.1186 58.6308 10.2896 58.6619C11.0519 58.8 11.8191 58.9344 12.5869 59.066C12.7206 59.0893 12.8185 59.205 12.8177 59.3413C12.8042 61.7094 12.5823 63.7442 11.9147 65.1982C11.2102 66.7322 10.0126 67.6701 7.99872 67.6701C5.64921 67.6701 4.4457 65.8836 3.85896 63.2662C3.25815 60.5856 3.24805 57.1675 3.24805 54.0246C3.24805 50.8079 3.29929 47.3921 3.94506 45.0762C4.57296 42.8247 5.79741 41.7962 8.16228 43.0244C9.82574 43.8883 10.9766 45.0809 11.6995 46.6509C12.405 48.1835 12.7237 50.1244 12.7237 52.5065C12.7237 52.6581 12.5782 52.7673 12.433 52.7241C11.639 52.4893 10.8451 52.2447 10.0511 51.9913C9.93585 51.9545 9.85766 51.8471 9.85766 51.7258V51.6388C9.85766 48.4927 9.34546 46.9429 8.16228 46.4175C7.34009 46.0521 6.86974 46.5672 6.60457 47.9757C6.33629 49.3999 6.26878 51.6923 6.26878 54.8249C6.26878 57.838 6.30186 60.1838 6.55288 61.7983C6.80093 63.3932 7.28446 64.252 8.16228 64.3138C9.41836 64.4026 9.93315 62.9161 9.95993 58.9377Z" fill="#E41C53"/>
<path fill-rule="evenodd" clip-rule="evenodd" d="M32.8593 59.3962C33.4489 61.9522 34.052 64.4882 34.6529 66.9982C34.6949 67.174 34.5616 67.3428 34.3811 67.3423C33.8314 67.3404 33.2839 67.3386 32.7372 67.3367C32.4505 67.3358 32.1641 67.3349 31.8777 67.3339C31.7472 67.3335 31.6346 67.2423 31.6068 67.1149C31.3895 66.1157 31.1783 65.1094 30.9675 64.1004C30.9413 63.9749 30.8332 63.8833 30.7054 63.8786C29.6187 63.8377 28.538 63.7963 27.4579 63.7503C27.3218 63.7443 27.2015 63.8377 27.1735 63.9712C26.9568 65.0058 26.7461 66.0473 26.5357 67.0921C26.5095 67.2228 26.3948 67.3163 26.2619 67.3158C25.823 67.3144 25.3843 67.3121 24.9463 67.3098C24.554 67.3079 24.1623 67.306 23.7718 67.3046C23.5942 67.3037 23.4626 67.1391 23.5008 66.9657C24.1127 64.179 24.7204 61.4347 25.3372 58.7387C25.9488 56.0669 26.5779 53.4258 27.2029 50.8205C27.2377 50.6754 27.3803 50.5838 27.5266 50.6112C28.6182 50.8186 29.716 50.9986 30.8141 51.1753C30.9266 51.1934 31.0167 51.2785 31.0417 51.3896C31.6475 54.0893 32.2507 56.7579 32.8593 59.3962ZM29.9142 61.2394C29.9923 61.2445 30.0704 61.2491 30.1486 61.2543C30.331 61.2663 30.4751 61.1017 30.4396 60.9218C30.3929 60.6861 30.346 60.4498 30.2991 60.2136C30.1257 59.3408 29.9517 58.4653 29.7869 57.5879C29.6925 57.0861 29.5969 56.5826 29.5011 56.0781C29.3703 55.3899 29.2391 54.6994 29.1102 54.0079C29.1039 53.974 29.0555 53.9731 29.0484 54.007C28.8097 55.1495 28.5704 56.2952 28.341 57.4409C28.2513 57.8887 28.1607 58.3374 28.0699 58.7871C27.9365 59.4473 27.8027 60.1099 27.6707 60.7749C27.6381 60.939 27.7567 61.0952 27.9235 61.1069C28.5857 61.1534 29.2484 61.1961 29.9142 61.2394Z" fill="#E41C53"/>
<path d="M44.8624 61.6381C44.8645 61.6381 44.8661 61.6395 44.8661 61.6418C44.8658 63.3781 44.6583 64.8879 43.9625 65.9588C43.2647 67.0324 42.0605 67.6699 40.0464 67.6699C37.6969 67.6699 36.507 66.5902 35.9068 65.0344C35.3022 63.4674 35.2871 61.441 35.2871 59.5796C35.2871 57.6709 35.3451 55.631 35.9843 54.1207C36.6188 52.6216 37.8596 51.6447 40.21 51.7656C41.8789 51.8511 43.0235 52.3068 43.7387 53.1801C44.4521 54.0514 44.7715 55.339 44.7715 57.0134C44.7715 57.1296 44.6773 57.2231 44.5617 57.2226C43.7407 57.2166 42.9197 57.2105 42.0987 57.2026C41.9917 57.2012 41.9055 57.1143 41.9055 57.0069C41.9055 54.9149 41.3976 53.9989 40.21 53.9575C39.3923 53.9291 38.9107 54.3713 38.6436 55.3153C38.3773 56.2564 38.3167 57.7044 38.3167 59.6596C38.3167 61.5377 38.3503 62.9963 38.6006 63.99C38.8494 64.9776 39.3323 65.5007 40.21 65.5049C41.4571 65.5105 41.9734 64.515 42.007 61.906C42.009 61.7511 42.1346 61.6256 42.2891 61.6265C43.1427 61.6321 44.0026 61.6349 44.8624 61.6381Z" fill="#E41C53"/>
<path d="M51.0568 67.2333C50.7237 66.7279 50.2369 65.7872 49.9933 65.1985C49.7497 64.6099 49.7497 64.3732 50.0254 64.1793C50.6777 63.7208 52.7416 63.6116 53.2988 64.0826C53.9716 64.6508 52.194 67.1078 51.9198 67.4165C51.5691 67.8113 51.39 67.7397 51.0568 67.2333Z" fill="#E41C53"/>
<path d="M55.5506 63.2616L47.4242 63.3119C46.4108 63.283 46.3323 63.197 46.239 63.0677C45.8479 62.5246 45.2314 60.1611 46.454 59.5148C47.5949 58.9108 53.4125 59.1228 54.8662 59.2205C56.2595 59.3139 56.6609 59.4785 56.9472 59.791C57.4775 60.3685 57.6594 61.4612 57.4418 62.1815C57.1416 63.1714 56.5648 63.2328 55.5506 63.2616Z" fill="#E41C53"/>
<path d="M58.6113 51.6924C58.6113 51.5525 58.7143 51.4343 58.8526 51.4158C61.3725 51.0689 63.8999 50.6332 66.4277 50.1217C66.6003 50.0868 66.7618 50.2189 66.7618 50.3956V52.6726C66.7618 52.8079 66.6648 52.9237 66.5321 52.9469C64.9509 53.2269 63.3696 53.4817 61.7957 53.7007C61.6574 53.7197 61.5549 53.8379 61.5549 53.9773V57.2569C61.5549 57.4215 61.6964 57.5503 61.8597 57.5345C63.2888 57.3936 64.7179 57.2253 66.1475 57.0462C66.3136 57.0253 66.4607 57.1551 66.4607 57.3234V59.5948C66.4607 59.739 66.3507 59.8594 66.2078 59.8724C64.743 60.0063 63.2786 60.1337 61.8138 60.2384C61.6681 60.2486 61.5549 60.3704 61.5549 60.5169V64.3498C61.5549 64.5069 61.6843 64.6334 61.8416 64.6287C63.4494 64.5799 65.0641 64.5232 66.6792 64.4614C66.837 64.4553 66.9683 64.5818 66.9683 64.7403V67.0318C66.9683 67.1852 66.8444 67.3098 66.6908 67.3108L58.8907 67.3387C58.7366 67.3391 58.6113 67.2141 58.6113 67.0597V51.6924Z" fill="#E41C53"/>
<path d="M65.5569 47.6082C65.5569 48.3838 65.0451 49.118 64.4122 49.2501C63.7798 49.3817 63.2676 48.8762 63.2676 48.1188C63.2676 47.3618 63.7798 46.6257 64.4122 46.4742C65.0451 46.3224 65.5569 46.8326 65.5569 47.6082Z" fill="#E41C53"/>
<path d="M62.0452 48.3487C62.0452 49.0959 61.5288 49.7985 60.9005 49.9003C60.2727 50.0017 59.7559 49.4781 59.7559 48.7458C59.7559 48.0139 60.2727 47.3397 60.9005 47.2211C61.5288 47.103 62.0452 47.6015 62.0452 48.3487Z" fill="#E41C53"/>
<path d="M77.7528 66.9655C77.7528 67.1189 77.6289 67.2435 77.4758 67.2445C76.6726 67.2496 75.8699 67.2552 75.0723 67.2607C74.9178 67.2617 74.792 67.1366 74.792 66.9818V59.0026C74.792 58.832 74.6403 58.7013 74.4714 58.7264C73.4441 58.8808 72.4233 59.0231 71.4026 59.1649C71.4016 59.1654 71.4012 59.1658 71.4012 59.1668V67.0078C71.4012 67.1617 71.2768 67.2863 71.1237 67.2868C70.3205 67.29 69.5178 67.2952 68.7207 67.3007C68.5662 67.3017 68.4404 67.1766 68.4404 67.0217V49.9345C68.4404 49.808 68.5253 49.6974 68.6474 49.6648C69.4445 49.4532 70.2472 49.2394 71.0504 49.0236C71.2272 48.9762 71.4012 49.1096 71.4012 49.2933V55.9905C71.4012 56.0035 71.4132 56.0132 71.4262 56.0109C72.4716 55.8128 73.5174 55.6147 74.5702 55.3976C74.6992 55.3711 74.792 55.2572 74.792 55.1247V48.0569C74.792 47.9379 74.8672 47.8318 74.9795 47.7928C75.7738 47.517 76.5733 47.2357 77.3741 46.9344C77.5569 46.8656 77.7528 47.0009 77.7528 47.1962V66.9655Z" fill="#E41C53"/>
<path d="M89.6706 51.9407C87.4323 51.5161 83.6346 51.5943 81.5007 52.1741C80.7374 52.3815 80.5175 52.5758 80.5499 52.7446C80.6232 53.1273 81.8366 53.018 83.145 52.8999C83.8531 52.8358 84.5895 52.7693 85.188 52.7772C86.0779 52.7883 87.0602 52.8813 87.9399 52.9641C88.5691 53.0236 89.1463 53.0785 89.5996 53.0948C91.6862 53.1696 91.4718 52.2824 89.6706 51.9407Z" fill="#E41C53"/>
<path d="M15.5459 54.0746C15.7536 53.6119 15.9952 53.0735 16.0538 52.8689C16.149 52.5364 16.3259 52.0594 16.5318 51.5032C16.58 51.3735 16.6296 51.2396 16.6802 51.102C17.0459 50.1078 17.7522 48.5701 18.2889 47.8805C18.6635 47.4002 22.2222 54.6768 22.0565 55.1552C22.035 55.1868 22.0137 55.2175 21.9927 55.2468C21.6523 55.543 20.2094 55.2929 18.7436 55.0255C18.6763 54.9372 18.6088 54.8586 18.54 54.7958C18.2643 54.5424 18.0131 54.6358 17.7527 54.8469C16.4612 54.6219 15.3538 54.4829 15.2421 54.8265C15.163 54.9283 15.3374 54.5396 15.5459 54.0746Z" fill="#E41C53"/>
<path d="M15.242 54.8267C14.5892 56.8382 14.0494 58.8247 13.7716 60.4103C13.6342 61.1975 13.6585 61.5304 14.5211 61.721C15.3701 61.9084 17.0313 61.9591 18.3572 61.9991L18.5263 62.0042C19.8081 62.0433 20.7502 62.0716 21.5502 61.9931C23.6416 61.7866 23.6871 61.0408 23.2956 59.2901C22.9185 57.6064 22.5176 56.3533 22.0563 55.1555C22.0442 55.1903 22.0227 55.221 21.9926 55.2471C21.9815 55.2629 21.9705 55.2782 21.9596 55.2936C21.9365 55.3257 21.9141 55.3573 21.8928 55.3884C21.8173 55.4977 21.7553 55.6005 21.6963 55.6981C21.5779 55.8939 21.4717 56.0696 21.2934 56.2403C20.198 57.2883 19.5981 56.3435 19.0766 55.5223C18.9633 55.3438 18.8537 55.1708 18.7435 55.0257C18.6872 55.0155 18.6309 55.0053 18.5746 54.995C18.2975 54.9444 18.0211 54.8941 17.7526 54.8472C17.6443 54.9351 17.5343 55.0434 17.4204 55.1559C17.2354 55.3382 17.0398 55.5312 16.8231 55.6642C16.1835 56.0571 15.5893 55.4414 15.242 54.8267Z" fill="#E41C53"/>
<path d="M48.9751 54.9165C47.2198 54.9277 46.061 57.2005 46.1277 58.3909C46.1519 58.8238 46.6059 58.7628 47.4666 58.6475C47.8434 58.5973 48.2976 58.5364 48.828 58.502C49.2795 58.4727 49.788 58.4536 50.2729 58.4355C50.8533 58.4141 51.3994 58.3936 51.772 58.3583C52.4559 58.2937 52.5562 58.1788 52.5204 57.8738C52.4847 57.5692 52.3126 57.074 52.062 56.5965C51.4212 55.3759 50.3462 54.9081 48.9751 54.9165Z" fill="#E41C53"/>
<path d="M49.0439 54.1916C48.7906 54.1967 48.5605 54.2018 48.3336 54.1553C47.7434 54.034 48.7688 52.8255 49.0356 52.6013C51.4525 50.5661 54.1808 52.7497 54.2713 53.8428C54.2866 54.026 54.1492 54.0535 53.8741 54.1084C53.8254 54.1181 53.7729 54.1288 53.7163 54.1409C52.8139 54.3371 52.3861 54.538 52.1137 54.6659C51.7467 54.8384 51.6609 54.8784 51.0767 54.5966C50.1844 54.1665 49.565 54.18 49.0439 54.1916Z" fill="#E41C53"/>
<path d="M53.368 57.5767C53.426 57.7315 53.478 57.8706 53.523 57.9747C53.671 58.316 53.8524 58.3039 54.2255 58.2798C54.5131 58.2612 54.9149 58.2351 55.5037 58.3583C55.8828 58.4379 56.2099 58.5704 56.4777 58.6792C56.9403 58.8666 57.2256 58.9823 57.2943 58.6276C57.6595 56.7337 54.7776 53.9968 52.6818 55.143C52.1862 55.4136 52.3908 55.7209 52.6799 56.1566C52.7801 56.3082 52.891 56.4747 52.9861 56.6607C53.1304 56.9434 53.2599 57.2884 53.368 57.5767Z" fill="#E41C53"/>
<path d="M89.4581 54.6317C85.8886 53.9798 82.8606 54.1044 79.5486 55.2381C78.6299 55.5528 78.6067 55.6672 78.5668 55.8904C78.4257 56.6776 78.7686 56.8385 79.3556 57.1138C79.4813 57.1729 79.6191 57.2375 79.7653 57.3147C80.3499 57.623 80.1147 58.1944 79.7704 59.0309C79.3203 60.1227 78.6846 61.6665 79.446 63.6645C81.2454 68.3892 88.0573 69.1081 90.9419 64.8883C92.7793 62.2021 92.0504 60.0934 91.6203 58.8491C91.4537 58.366 91.3317 58.0131 91.4217 57.8066C91.482 57.6699 91.6565 57.4997 91.8532 57.3082C92.6401 56.5414 93.789 55.4227 89.4581 54.6317Z" fill="#E41C53"/>
<path d="M84.9292 43.5214L83.3581 42.7194V42.7194L84.9292 43.5214ZM83.1516 47.8748L84.81 48.4751L83.1516 47.8748ZM86.0136 42.5827L85.2104 44.1557V44.1558L85.2108 44.156L86.0136 42.5827ZM88.9585 50.1058L87.3178 49.4581V49.4586L88.9585 50.1058ZM83.3572 50.0868L82.6979 51.7254L83.3572 50.0868ZM18.3567 63.0091L18.3771 61.2422H18.3766H18.376L18.3567 63.0091ZM17.6875 63.8257L19.4506 63.8094L17.6875 63.8257ZM19.3082 63.0966L18.2519 64.511L19.3082 63.0966ZM19.4859 65.9218L17.723 65.8934V65.8944L19.4859 65.9218ZM19.4823 66.2803L21.2454 66.2933L19.4823 66.2803ZM19.0122 67.6562L19.1416 69.4185H19.1422L19.0122 67.6562ZM17.7752 66.6788L19.5342 66.5574V66.557L17.7752 66.6788ZM17.7738 66.6593L16.0149 66.7811L17.7738 66.6593ZM17.6885 63.941L19.4516 63.9284V63.9279V63.9275L17.6885 63.941ZM11.9142 65.1983L13.516 65.9367L11.9142 65.1983ZM3.85846 63.2663L2.13814 63.6536H2.13816L3.85846 63.2663ZM3.94456 45.0763L2.24646 44.6007L2.24645 44.6007L3.94456 45.0763ZM8.16178 43.0245L7.35049 44.5933H7.35054L8.16178 43.0245ZM11.699 46.651L13.3 45.9109V45.9109L11.699 46.651ZM8.16178 46.4175L7.44705 48.0329H7.44723L8.16178 46.4175ZM6.60407 47.9757L8.33661 48.3036L8.33666 48.3031L6.60407 47.9757ZM6.55238 61.7983L4.81018 62.0703H4.81023L6.55238 61.7983ZM8.16178 64.3139L8.28608 62.5516H8.2859L8.16178 64.3139ZM32.8594 59.3962L34.5773 58.9982L32.8594 59.3962ZM32.7373 67.3368L32.7316 69.1037L32.7373 67.3368ZM24.9464 67.3098L24.9378 69.0767L24.9464 67.3098ZM25.3373 58.7387L23.6188 58.344L25.3373 58.7387ZM29.9143 61.2394L29.8011 63.0026L29.9143 61.2394ZM30.2992 60.2137L28.5699 60.5587L30.2992 60.2137ZM29.787 57.5879L31.5197 57.2605L29.787 57.5879ZM29.5012 56.0781L27.7691 56.4087L29.5012 56.0781ZM29.0485 54.007L30.7743 54.3693L29.0485 54.007ZM28.3411 57.441L30.0698 57.7888H30.0698L28.3411 57.441ZM28.07 58.7871L29.7982 59.1372L28.07 58.7871ZM44.8618 61.6384L44.8556 63.4053H44.8557L44.8618 61.6384ZM43.9618 65.959L45.4393 66.9229H45.4394L43.9618 65.959ZM35.9062 65.0346L37.5507 64.3976V64.3971L35.9062 65.0346ZM35.9837 54.121L37.6069 54.811L35.9837 54.121ZM40.2094 51.7658L40.1191 53.5304H40.1192L40.2094 51.7658ZM43.7381 53.1803L45.1012 52.0597H45.1011L43.7381 53.1803ZM40.2094 53.9578L40.2706 52.1922H40.2706L40.2094 53.9578ZM38.643 55.3155L40.3393 55.7977L38.643 55.3155ZM38.6 63.9903L36.8904 64.4227L38.6 63.9903ZM40.2094 65.5052L40.2174 63.7382H40.2173L40.2094 65.5052ZM49.9929 65.1992L48.3638 65.8758L48.3643 65.8762L49.9929 65.1992ZM51.0564 67.234L52.5282 66.2617V66.2612L51.0564 67.234ZM50.0249 64.18L51.0369 65.627L51.0374 65.6265H51.0378L50.0249 64.18ZM53.2984 64.0833L52.1616 65.434H52.1621L53.2984 64.0833ZM51.9194 67.4172L50.6031 66.2417L50.6026 66.2422L50.6021 66.2426L51.9194 67.4172ZM47.4238 63.3128L47.3737 65.0793L47.4043 65.0797H47.4349L47.4238 63.3128ZM55.5501 63.2626L55.5613 65.0295L55.5803 65.029L55.5993 65.0286L55.5501 63.2626ZM46.2386 63.0687L44.8087 64.1023L44.8095 64.1037L44.8103 64.1046L46.2386 63.0687ZM46.4536 59.5157L47.2762 61.0785L47.2767 61.0781L46.4536 59.5157ZM54.8658 59.2214L54.9836 57.4582L54.8658 59.2214ZM56.9468 59.7919L55.6485 60.9874L55.649 60.9879V60.9883L56.9468 59.7919ZM57.4414 62.1824L59.1285 62.6957V62.6953V62.6948L57.4414 62.1824ZM64.4119 49.2503L64.0533 47.5201H64.0528L64.4119 49.2503ZM64.4119 46.4743L64.8221 48.1929H64.8226L64.4119 46.4743ZM60.9004 49.9008L61.1816 51.6454V51.6449L60.9004 49.9008ZM60.9004 47.2215L61.2262 48.9582H61.2266L60.9004 47.2215ZM71.402 59.1656L71.6432 60.9163H71.6437L71.6442 60.9158L71.402 59.1656ZM71.4256 56.0116L71.0976 54.2753L71.4256 56.0116ZM81.5008 52.1745L81.0391 50.4694L81.5008 52.1745ZM89.6707 51.9411L89.9988 50.2049L89.6707 51.9411ZM80.55 52.7451L82.2817 52.4122L82.2812 52.4094L82.2807 52.4066L80.55 52.7451ZM83.1452 52.9004L82.9869 51.1404L83.1452 52.9004ZM85.1881 52.7776L85.1654 54.5441H85.1658L85.1881 52.7776ZM87.9401 52.9646L88.1052 51.2055L87.9401 52.9646ZM89.5997 53.0952L89.6629 51.3292H89.6624L89.5997 53.0952ZM16.0537 52.8692L17.7484 53.357H17.7484L16.0537 52.8692ZM15.5458 54.0749L13.9377 53.3505L15.5458 54.0749ZM16.5318 51.5036L14.8789 50.8884L16.5318 51.5036ZM16.6801 51.1023L15.0258 50.4908L16.6801 51.1023ZM18.2889 47.8809L16.8993 46.7933L16.8989 46.7937L16.8986 46.7942L18.2889 47.8809ZM18.54 54.7961L17.3484 56.0981L17.3486 56.0985L18.54 54.7961ZM13.7717 60.4103L12.0351 60.1048L12.035 60.1053L12.035 60.1058L13.7717 60.4103ZM14.5212 61.7211L14.9009 59.9956L14.5212 61.7211ZM18.3573 61.9992L18.4106 60.2332H18.4105L18.3573 61.9992ZM18.5264 62.0043L18.5798 60.2383H18.5798L18.5264 62.0043ZM21.5503 61.9932L21.7229 63.7513H21.7232L21.5503 61.9932ZM23.2957 59.2902L25.0162 58.9038L25.016 58.9033L23.2957 59.2902ZM21.9597 55.2937L20.5253 54.266H20.5253L21.9597 55.2937ZM21.8928 55.3885L20.4431 54.3828L20.4427 54.3832L20.4423 54.3837L21.8928 55.3885ZM21.6963 55.6982L23.2047 56.6133L21.6963 55.6982ZM21.2935 56.2404L20.0765 54.9617L20.0762 54.9621H20.076L21.2935 56.2404ZM19.0767 55.5224L17.5891 56.471L19.0767 55.5224ZM18.5747 54.9951L18.2587 56.7337L18.5747 54.9951ZM17.4205 55.156L18.657 56.4157L17.4205 55.156ZM16.8232 55.6642L15.9024 54.1572L15.9019 54.1577L16.8232 55.6642ZM46.1276 58.3909L47.8878 58.2923V58.2914L46.1276 58.3909ZM48.9749 54.9166L48.9638 53.1496H48.9633L48.9749 54.9166ZM47.4665 58.6476L47.6999 60.3992L47.4665 58.6476ZM48.8278 58.5021L48.7137 56.7388L48.8278 58.5021ZM50.2727 58.4356L50.2073 56.67L50.2727 58.4356ZM51.7719 58.3584L51.6067 56.5993H51.6062H51.6057L51.7719 58.3584ZM52.5203 57.8739L50.7692 58.0803L52.5203 57.8739ZM52.0619 56.5965L53.6223 55.774V55.7735L52.0619 56.5965ZM48.3337 54.1558L48.6882 52.4247H48.6877L48.3337 54.1558ZM49.044 54.1921L49.0826 55.9586L49.044 54.1921ZM49.0357 52.6019L50.1697 53.9545L49.0357 52.6019ZM54.2714 53.8434L52.5142 53.9898V53.9903L52.5147 53.9908L54.2714 53.8434ZM53.8742 54.1089L53.5304 52.3759L53.8742 54.1089ZM53.7164 54.1414L53.3429 52.4145H53.3425L53.7164 54.1414ZM52.1138 54.6664L51.3659 53.0664L52.1138 54.6664ZM51.0768 54.5971L51.8415 53.005L51.0768 54.5971ZM53.523 57.9748L51.905 58.6769L51.9055 58.6774L53.523 57.9748ZM53.368 57.5767L51.7176 58.1984L53.368 57.5767ZM54.2254 58.2798L54.1113 56.5166L54.2254 58.2798ZM55.5037 58.3584L55.8647 56.6291L55.5037 58.3584ZM56.4777 58.6792L57.1389 57.0411L56.4777 58.6792ZM57.2943 58.6276L59.0254 58.9633V58.9629L57.2943 58.6276ZM52.6817 55.143L53.5257 56.6942L53.5262 56.6937L52.6817 55.143ZM52.6799 56.1567L54.148 55.1783L52.6799 56.1567ZM52.9861 56.6607L54.5553 55.8554V55.8549H54.5549L52.9861 56.6607ZM79.5483 55.2383L78.9785 53.5662H78.978L79.5483 55.2383ZM89.4578 54.632L89.1418 56.3701V56.3706L89.4578 54.632ZM78.5665 55.8907L76.8311 55.5782V55.5787L78.5665 55.8907ZM79.3553 57.1141L80.1023 55.5136L79.3553 57.1141ZM79.765 57.3149L80.5862 55.7512H80.5858L79.765 57.3149ZM79.7701 59.0312L81.3996 59.7054L79.7701 59.0312ZM79.4457 63.6648L77.7986 64.2948L79.4457 63.6648ZM90.9416 64.8886L89.4875 63.8898V63.8903L90.9416 64.8886ZM91.62 58.8494L93.2862 58.271L91.62 58.8494ZM91.4214 57.8069L89.8072 57.0969L91.4214 57.8069ZM91.8529 57.3084L93.082 58.5755L91.8529 57.3084ZM77.3736 46.9351L77.993 48.5895L77.3736 46.9351ZM74.9789 47.7935L75.5561 49.4632L74.9789 47.7935ZM74.5697 55.3983L74.2147 53.6676L74.5697 55.3983ZM68.6468 49.6655L68.1958 47.9576L68.6468 49.6655ZM68.7201 67.3014L68.708 65.5345L68.7201 67.3014ZM71.1231 67.2875L71.1301 69.0544L71.1231 67.2875ZM74.4708 58.7271L74.7325 60.4745L74.4708 58.7271ZM77.4752 67.2452L77.4868 69.0121L77.4752 67.2452ZM58.8904 67.3391L58.8969 69.106L58.8904 67.3391ZM66.679 64.4618L66.7463 66.2273L66.679 64.4618ZM61.8414 64.6291L61.7881 62.8627L61.8414 64.6291ZM61.8136 60.2388L61.6888 58.476L61.8136 60.2388ZM66.2076 59.8728L66.3672 61.6328L66.2076 59.8728ZM26.5358 67.0922L24.8075 66.7425L26.5358 67.0922ZM26.262 67.3158L26.2557 69.0828L26.262 67.3158ZM58.8524 51.4162L58.6125 49.6655L58.8524 51.4162ZM23.7719 67.3047L23.7786 65.5377L23.7719 67.3047ZM23.5009 66.9657L21.7789 66.5858L23.5009 66.9657ZM66.4275 50.1221L66.0786 48.39L66.4275 50.1221ZM44.561 57.2229L44.5733 55.4559L44.561 57.2229ZM44.8655 61.6421L43.1023 61.6416L44.8655 61.6421ZM27.6708 60.7749L25.9415 60.4299L27.6708 60.7749ZM27.9236 61.1069L28.0475 59.3441L27.9236 61.1069ZM10.0506 51.9913L10.586 50.3076L10.0506 51.9913ZM42.0064 61.9062L43.7694 61.929L42.0064 61.9062ZM42.2885 61.6267L42.2996 59.8598L42.2885 61.6267ZM66.6906 67.3112L66.6846 65.5442L66.6906 67.3112ZM29.1103 54.008L27.3771 54.3321L29.1103 54.008ZM66.1473 57.0466L66.3658 58.8001L66.1473 57.0466ZM30.1487 61.2543L30.0353 63.0175L30.1487 61.2543ZM30.4397 60.9218L32.1692 60.5782L30.4397 60.9218ZM27.203 50.8205L28.9174 51.2339L27.203 50.8205ZM27.5267 50.6113L27.8544 48.8755L27.5267 50.6113ZM61.7955 53.7011L62.0377 55.4513L61.7955 53.7011ZM61.8595 57.5349L61.6869 55.7763L61.8595 57.5349ZM30.8142 51.1753L30.535 52.9199L30.8142 51.1753ZM31.0418 51.3897L32.762 51.0019L31.0418 51.3897ZM66.5319 52.9473L66.2252 51.2074L66.5319 52.9473ZM42.0981 57.2029L42.0804 58.9698L42.0981 57.2029ZM10.2891 58.662L9.97506 60.4006L10.2891 58.662ZM9.95943 58.9377L11.7225 58.9494L9.95943 58.9377ZM34.653 66.9982L32.9384 67.4102L34.653 66.9982ZM34.3812 67.3423L34.3753 69.1093L34.3812 67.3423ZM30.9676 64.1005L32.6933 63.7382L30.9676 64.1005ZM30.7055 63.8787L30.6391 65.6442L30.7055 63.8787ZM27.458 63.7503L27.3827 65.5154L27.458 63.7503ZM27.1736 63.9712L28.8992 64.3343L27.1736 63.9712ZM75.0717 67.2614L75.0596 65.4945L75.0717 67.2614ZM12.5864 59.0661L12.2886 60.8079L12.5864 59.0661ZM12.8172 59.3413L14.5804 59.3511L12.8172 59.3413ZM31.8778 67.334L31.872 69.1009L31.8778 67.334ZM31.6069 67.115L29.8842 67.4911L31.6069 67.115ZM71.0498 49.0243L71.5064 50.7308L71.0498 49.0243ZM12.4325 52.7242L12.9321 51.0297L12.4325 52.7242ZM83.3581 42.7194C82.7767 43.8633 81.9615 45.9766 81.4933 47.2745L84.81 48.4751C85.2786 47.175 86.0293 45.2498 86.5003 44.3234L83.3581 42.7194ZM86.8167 41.0097C86.6232 40.9104 86.2618 40.7531 85.7913 40.7544C85.2832 40.7559 84.8517 40.9394 84.5209 41.1814C83.9813 41.576 83.6245 42.1954 83.3581 42.7194L86.5003 44.3234C86.6107 44.1068 86.684 43.9886 86.723 43.9327C86.7689 43.8675 86.7318 43.9392 86.6 44.0355C86.4386 44.1537 86.1611 44.2873 85.8015 44.2883C85.4786 44.2892 85.2596 44.1809 85.2104 44.1557L86.8167 41.0097ZM90.5992 50.7531C90.7356 50.4057 90.7509 50.0812 90.7523 49.911C90.7546 49.7097 90.7365 49.5125 90.7138 49.34C90.6683 48.9931 90.5843 48.6063 90.485 48.2203C90.2841 47.4401 89.9802 46.5115 89.6401 45.6113C89.3005 44.7128 88.9061 43.7946 88.5135 43.0447C88.3182 42.6726 88.1048 42.3051 87.8788 41.9911C87.6992 41.7412 87.3457 41.2807 86.8158 41.0093L85.2108 44.156C84.938 44.0163 84.8796 43.8642 85.0178 44.0566C85.1097 44.1849 85.2368 44.3932 85.3913 44.6876C85.6966 45.2708 86.0344 46.0482 86.3425 46.863C86.6497 47.6763 86.9095 48.4788 87.0705 49.1033C87.1517 49.419 87.1981 49.6529 87.2176 49.8017C87.2278 49.8771 87.226 49.8966 87.2264 49.8757C87.2264 49.8631 87.2274 49.8231 87.2357 49.7627C87.2441 49.7069 87.264 49.5962 87.3178 49.4581L90.5992 50.7531ZM82.6979 51.7254C83.0751 51.8779 83.6825 51.9918 84.1789 52.0713C84.7543 52.1629 85.4554 52.248 86.1528 52.294C86.8325 52.3387 87.5888 52.3526 88.2416 52.2717C88.5613 52.2322 88.952 52.1592 89.3241 52.003C89.6568 51.8635 90.2976 51.5212 90.5992 50.7531L87.3178 49.4586C87.5317 48.9145 87.9512 48.7481 87.9623 48.7434C88.0129 48.722 87.9813 48.7434 87.8097 48.7643C87.4807 48.8053 86.9801 48.8071 86.3847 48.7676C85.8066 48.7295 85.2136 48.6579 84.7329 48.5811C84.1738 48.4919 83.9632 48.4263 84.0161 48.4477L82.6979 51.7254ZM81.4933 47.2745C81.3773 47.5968 81.2586 47.9334 81.1713 48.2468C81.0874 48.5491 80.9978 48.9466 81.0057 49.3749C81.014 49.8459 81.1426 50.3848 81.5198 50.8693C81.8729 51.3232 82.3257 51.5752 82.6979 51.7254L84.0165 48.4477C83.9748 48.431 84.1362 48.4854 84.3 48.6955C84.3845 48.8039 84.4467 48.9252 84.4852 49.0475C84.5227 49.1652 84.5302 49.2586 84.5311 49.3098C84.533 49.3893 84.5176 49.3777 84.5682 49.1959C84.616 49.0252 84.6921 48.8025 84.81 48.4751L81.4933 47.2745ZM18.376 61.2422C18.2554 61.2408 17.9849 61.2343 17.7391 61.2664C17.4681 61.3013 16.8609 61.4235 16.3987 61.9918C15.9987 62.4837 15.9511 63.0301 15.9366 63.2063C15.9188 63.4221 15.9229 63.6727 15.9244 63.8415L19.4506 63.8094C19.4496 63.7029 19.449 63.6294 19.4495 63.569C19.45 63.5076 19.4515 63.4909 19.4509 63.4978C19.4507 63.5002 19.445 63.5797 19.412 63.6945C19.3767 63.8173 19.2999 64.0182 19.1324 64.2241C18.7538 64.6896 18.273 64.7603 18.1921 64.771C18.1364 64.7779 18.1196 64.7738 18.3373 64.7761L18.376 61.2422ZM20.3645 61.6816C19.8148 61.2696 19.2136 61.2496 19.0202 61.2427C18.8925 61.238 18.7611 61.2399 18.6699 61.2408C18.5661 61.2422 18.4764 61.2436 18.3771 61.2422L18.3362 64.7761C18.4852 64.7775 18.618 64.7756 18.7133 64.7747C18.7636 64.7738 18.8009 64.7733 18.8334 64.7733C18.8655 64.7733 18.8836 64.7738 18.8931 64.7742C18.9027 64.7747 18.8949 64.7747 18.8755 64.7724C18.856 64.7705 18.8153 64.7649 18.7605 64.7524C18.648 64.7263 18.4547 64.6631 18.2519 64.511L20.3645 61.6816ZM21.2489 65.9502C21.2638 65.0202 21.2886 64.2706 21.2716 63.7782C21.263 63.5304 21.2419 63.2063 21.157 62.8878C21.0646 62.5404 20.8569 62.0508 20.3645 61.6816L18.2519 64.511C17.8935 64.2423 17.7789 63.9075 17.7499 63.7987C17.7284 63.7182 17.7409 63.7155 17.7473 63.9005C17.7602 64.2739 17.7399 64.8365 17.723 65.8934L21.2489 65.9502ZM21.2454 66.2933C21.2462 66.1799 21.2471 66.0673 21.2489 65.9497L17.723 65.8944C17.7209 66.0287 17.7199 66.1552 17.7191 66.2673L21.2454 66.2933ZM19.1422 69.4185C19.5829 69.3855 20.0886 69.2232 20.508 68.8145C20.8938 68.4388 21.0526 68.0021 21.1258 67.7148C21.2514 67.2219 21.243 66.6216 21.2454 66.2933L17.7191 66.2673C17.7175 66.4937 17.716 66.643 17.71 66.7639C17.7035 66.8918 17.6951 66.8955 17.7091 66.8406C17.723 66.7857 17.7944 66.5295 18.0499 66.2808C18.3389 65.999 18.6716 65.9097 18.8822 65.8939L19.1422 69.4185ZM16.0162 66.8006C16.0266 66.9508 16.0434 67.2447 16.0999 67.52C16.1615 67.8194 16.3064 68.3016 16.7196 68.7229C17.1415 69.153 17.646 69.3213 18.0395 69.3883C18.4133 69.452 18.7978 69.4436 19.1416 69.4185L18.8828 65.8939C18.6448 65.9116 18.5902 65.8976 18.6311 65.9046C18.6918 65.9148 18.9696 65.9753 19.2343 66.2454C19.4902 66.5063 19.5472 66.775 19.5538 66.8071C19.5577 66.8262 19.5554 66.8211 19.5505 66.7709C19.5455 66.7197 19.5411 66.6579 19.5342 66.5574L16.0162 66.8006ZM16.0149 66.7811L16.0162 66.8006L19.5342 66.557L19.5328 66.5374L16.0149 66.7811ZM15.9253 63.9535C15.9304 64.6724 15.962 66.0125 16.0149 66.7811L19.5328 66.5374C19.4874 65.8776 19.4565 64.6226 19.4516 63.9284L15.9253 63.9535ZM15.9244 63.8415C15.9247 63.8787 15.9251 63.9159 15.9253 63.9545L19.4516 63.9275C19.4513 63.8856 19.4509 63.8461 19.4506 63.8094L15.9244 63.8415ZM12.8841 57.3247C12.1197 57.1931 11.3582 57.0601 10.6031 56.9234L9.97506 60.4006C10.7446 60.5401 11.5177 60.6754 12.2886 60.8079L12.8841 57.3247ZM13.516 65.9367C14.3517 64.1163 14.5667 61.7542 14.5804 59.3511L11.0541 59.3311C11.0408 61.6649 10.8118 63.3718 10.3125 64.4594L13.516 65.9367ZM7.99822 69.4371C9.28756 69.4371 10.4456 69.133 11.4241 68.4806C12.3965 67.832 13.0616 66.9262 13.516 65.9367L10.3125 64.4594C10.0624 65.0044 9.77638 65.3345 9.47047 65.5387C9.1705 65.7386 8.72279 65.9032 7.99822 65.9032V69.4371ZM2.13816 63.6536C2.46128 65.0951 2.99511 66.5184 3.9338 67.606C4.93323 68.7638 6.30637 69.4371 7.99822 69.4371V65.9032C7.34056 65.9032 6.93721 65.6837 6.60082 65.2941C6.20369 64.8337 5.84238 64.0549 5.57874 62.8789L2.13816 63.6536ZM1.48438 54.0247C1.48438 57.1122 1.48586 60.7433 2.13814 63.6536L5.57878 62.8789C5.02941 60.428 5.01072 57.2229 5.01072 54.0247H1.48438ZM2.24645 44.6007C1.52255 47.1969 1.48438 50.8768 1.48438 54.0247H5.01072C5.01072 50.7396 5.07503 47.5875 5.64267 45.5518L2.24645 44.6007ZM8.97312 41.4557C7.54198 40.7124 5.95833 40.4011 4.53466 41.207C3.2272 41.9471 2.59545 43.3493 2.24646 44.6007L5.64267 45.5519C5.92158 44.5518 6.21598 44.3139 6.26897 44.2839C6.27714 44.2793 6.28516 44.2758 6.30066 44.2727C6.3176 44.2693 6.35959 44.2633 6.43587 44.2702C6.5978 44.2847 6.89295 44.3556 7.35049 44.5933L8.97312 41.4557ZM13.3 45.9109C12.4025 43.9616 10.9615 42.4884 8.97302 41.4557L7.35054 44.5933C8.68901 45.2884 9.54963 46.2003 10.098 47.3912L13.3 45.9109ZM14.4863 52.5065C14.4863 49.9891 14.1532 47.7642 13.3 45.9109L10.098 47.3912C10.6558 48.603 10.96 50.2597 10.96 52.5065H14.4863ZM9.51529 53.6746C10.3208 53.9322 11.1267 54.18 11.9328 54.419L12.9321 51.0297C12.1504 50.7982 11.3684 50.5573 10.586 50.3076L9.51529 53.6746ZM8.09399 51.6389V51.7258H11.6203V51.6389H8.09399ZM7.44723 48.0329C7.45145 48.0348 7.60573 48.0683 7.77718 48.5942C7.96602 49.1735 8.09399 50.1254 8.09399 51.6389H11.6203C11.6203 50.0068 11.4922 48.6104 11.1292 47.4968C10.7487 46.33 10.0553 45.326 8.87637 44.8022L7.44723 48.0329ZM8.33666 48.3031C8.39062 48.0167 8.44435 47.8358 8.485 47.7321C8.52894 47.62 8.52968 47.6698 8.43317 47.7684C8.30905 47.8953 8.09116 48.0315 7.81068 48.0641C7.56676 48.0924 7.42654 48.0236 7.44705 48.0329L8.87656 44.8023C8.48593 44.6287 7.9786 44.4875 7.40696 44.5534C6.79876 44.6237 6.29249 44.9086 5.9149 45.2946C5.2661 45.9578 5.01146 46.9044 4.87147 47.6479L8.33666 48.3031ZM8.03144 54.825C8.03144 51.6556 8.10457 49.5353 8.33661 48.3036L4.87147 47.6479C4.567 49.2642 4.50511 51.7291 4.50511 54.825H8.03144ZM8.29453 61.5263C8.0688 60.0742 8.03144 57.8776 8.03144 54.825H4.50511C4.50511 57.7985 4.53393 60.2932 4.81018 62.0703L8.29453 61.5263ZM8.2859 62.5516C8.35383 62.5562 8.45335 62.5828 8.54578 62.6441C8.62851 62.6985 8.6448 62.7408 8.61835 62.6981C8.58921 62.6511 8.53344 62.5418 8.47015 62.3358C8.4077 62.1322 8.34742 61.8667 8.29448 61.5263L4.81023 62.0703C4.94682 62.9487 5.17502 63.841 5.62346 64.5636C6.12476 65.3717 6.93202 65.9985 8.03771 66.0766L8.2859 62.5516ZM8.1963 58.9257C8.18298 60.9083 8.04124 62.0215 7.85109 62.5855C7.76154 62.8515 7.7183 62.8157 7.83694 62.7162C8.00894 62.5716 8.20971 62.546 8.28608 62.5516L8.03748 66.0766C8.74191 66.1264 9.47803 65.9483 10.1007 65.4257C10.67 64.9481 10.9926 64.3083 11.1921 63.7164C11.5801 62.5646 11.7091 60.9451 11.7225 58.9494L8.1963 58.9257ZM36.3675 66.5858C35.7669 64.0772 35.1652 61.5468 34.5773 58.9982L31.1415 59.7942C31.7328 62.3572 32.3372 64.8993 32.9384 67.4102L36.3675 66.5858ZM32.7316 69.1037C33.2783 69.1056 33.8257 69.1074 34.3753 69.1093L34.3872 65.5754C33.8373 65.5735 33.2897 65.5717 32.743 65.5698L32.7316 69.1037ZM31.872 69.1009C32.1584 69.1018 32.445 69.1028 32.7316 69.1037L32.743 65.5698C32.4563 65.5689 32.1699 65.5679 31.8836 65.567L31.872 69.1009ZM29.2418 64.4622C29.4527 65.4717 29.6652 66.4844 29.8842 67.4911L33.3296 66.7383C33.114 65.7474 32.9041 64.7473 32.6933 63.7382L29.2418 64.4622ZM27.3827 65.5154C28.4678 65.5619 29.5525 65.6033 30.6391 65.6442L30.772 62.1131C29.685 62.0717 28.6085 62.0308 27.5332 61.9848L27.3827 65.5154ZM28.2642 67.4414C28.4744 66.3975 28.6839 65.3615 28.8992 64.3343L25.448 63.6085C25.2298 64.6501 25.0179 65.6977 24.8075 66.7425L28.2642 67.4414ZM24.9378 69.0767C25.3756 69.079 25.8155 69.0814 26.2557 69.0828L26.2684 65.5489C25.8308 65.5475 25.3932 65.5452 24.955 65.5428L24.9378 69.0767ZM23.7651 69.0716C24.1546 69.073 24.5453 69.0749 24.9378 69.0767L24.955 65.5428C24.5628 65.541 24.1703 65.5391 23.7786 65.5377L23.7651 69.0716ZM23.6188 58.344C23.0001 61.0474 22.3911 63.7978 21.7789 66.5858L25.2228 67.3451C25.8344 64.5603 26.4408 61.8216 27.0559 59.134L23.6188 58.344ZM25.4887 50.4076C24.8634 53.0138 24.2325 55.6629 23.6188 58.344L27.0559 59.134C27.6653 56.4715 28.2926 53.8373 28.9174 51.2339L25.4887 50.4076ZM31.0934 49.4307C29.9971 49.2544 28.9201 49.0773 27.8544 48.8755L27.1989 52.3475C28.3165 52.5596 29.4351 52.7432 30.535 52.9199L31.0934 49.4307ZM34.5773 58.9982C33.9698 56.3645 33.3675 53.7002 32.762 51.0019L29.3216 51.7774C29.9277 54.4785 30.5318 57.1508 31.1416 59.7942L34.5773 58.9982ZM30.2621 59.4911C30.1838 59.486 30.1056 59.4808 30.0276 59.4762L29.8011 63.0026C29.8792 63.0077 29.9572 63.0124 30.0353 63.0175L30.2621 59.4911ZM28.5699 60.5587C28.6169 60.7954 28.6636 61.0306 28.7101 61.2654L32.1692 60.5782C32.1223 60.3415 32.0753 60.1049 32.0284 59.8686L28.5699 60.5587ZM28.0542 57.9148C28.2211 58.8024 28.3969 59.6873 28.5699 60.5587L32.0284 59.8686C31.8548 58.9945 31.6826 58.1277 31.5197 57.2605L28.0542 57.9148ZM27.7691 56.4087C27.865 56.9137 27.9603 57.4154 28.0543 57.9148L31.5197 57.2605C31.425 56.757 31.329 56.252 31.2332 55.7475L27.7691 56.4087ZM27.3771 54.3321C27.5066 55.0272 27.6384 55.721 27.7691 56.4087L31.2332 55.7475C31.1023 55.0588 30.9717 54.3716 30.8435 53.6834L27.3771 54.3321ZM30.0698 57.7888C30.2976 56.6514 30.5353 55.5131 30.7743 54.3693L27.3228 53.6448C27.0843 54.7864 26.8435 55.9391 26.6124 57.0936L30.0698 57.7888ZM29.7982 59.1372C29.8889 58.688 29.9798 58.2379 30.0698 57.7888L26.6124 57.0931C26.5231 57.5391 26.4327 57.9864 26.3419 58.4365L29.7982 59.1372ZM29.4001 61.1194C29.5314 60.4582 29.6646 59.7984 29.7982 59.1372L26.3419 58.4365C26.2086 59.0963 26.0741 59.7622 25.9415 60.4299L29.4001 61.1194ZM30.0276 59.4762C29.3608 59.4329 28.7035 59.3906 28.0475 59.3441L27.7998 62.8696C28.4682 62.9166 29.1361 62.9599 29.8011 63.0026L30.0276 59.4762ZM45.4394 66.9229C46.4322 65.3945 46.6285 63.4351 46.6285 61.6421L43.1023 61.6416C43.102 63.3221 42.8828 64.3813 42.4844 64.9946L45.4394 66.9229ZM40.0458 69.4371C42.4647 69.4371 44.324 68.6392 45.4393 66.9229L42.4844 64.9946C42.2042 65.4257 41.655 65.9032 40.0458 65.9032V69.4371ZM34.2617 65.6716C34.6546 66.69 35.2893 67.6725 36.3131 68.3862C37.3383 69.1009 38.597 69.4371 40.0458 69.4371V65.9032C39.1452 65.9032 38.6342 65.6995 38.327 65.4852C38.0183 65.2704 37.7581 64.9346 37.5507 64.3976L34.2617 65.6716ZM33.5233 59.5799C33.5233 61.3571 33.5158 63.7387 34.2617 65.6716L37.5507 64.3971C37.0874 63.1965 37.0497 61.5254 37.0497 59.5799H33.5233ZM34.3605 53.4314C33.5584 55.3262 33.5233 57.733 33.5233 59.5799H37.0497C37.0497 57.6093 37.1305 55.9363 37.6069 54.811L34.3605 53.4314ZM40.2996 50.0012C38.8663 49.9273 37.5948 50.1812 36.5367 50.8266C35.4715 51.4757 34.7883 52.4205 34.3605 53.4314L37.6069 54.811C37.8136 54.3228 38.0679 54.0294 38.3694 53.8457C38.6779 53.6574 39.2021 53.483 40.1191 53.5304L40.2996 50.0012ZM45.1011 52.0597C43.9427 50.6447 42.2179 50.0993 40.2996 50.0012L40.1192 53.5304C41.5386 53.603 42.1031 53.9689 42.3751 54.3014L45.1011 52.0597ZM46.5338 57.0136C46.5338 55.1676 46.1916 53.3914 45.1012 52.0597L42.375 54.3014C42.7114 54.712 43.0077 55.5103 43.0077 57.0136H46.5338ZM42.0804 58.9698C42.9044 58.9777 43.7277 58.9838 44.5488 58.9894L44.5733 55.4559C43.7524 55.4499 42.9337 55.4443 42.1157 55.4359L42.0804 58.9698ZM40.1481 55.7238C40.2227 55.7266 40.1804 55.7382 40.0927 55.687C39.9969 55.6317 39.9585 55.5666 39.962 55.5731C39.9749 55.5964 40.0259 55.7038 40.07 55.9572C40.1134 56.2074 40.1417 56.5491 40.1417 57.0071H43.6681C43.6681 55.8898 43.5456 54.7585 43.0429 53.8541C42.7711 53.3649 42.3829 52.9325 41.858 52.6279C41.341 52.3285 40.7898 52.2099 40.2706 52.1922L40.1481 55.7238ZM40.3393 55.7977C40.3791 55.6568 40.4137 55.5829 40.4299 55.5536C40.4445 55.5271 40.4337 55.5554 40.3823 55.6005C40.3569 55.6229 40.3259 55.6452 40.2902 55.6656C40.2545 55.6856 40.2202 55.7001 40.1901 55.7094C40.1298 55.7289 40.1075 55.7224 40.1482 55.7238L40.2706 52.1922C39.5071 52.1652 38.7153 52.3652 38.0572 52.9436C37.446 53.4807 37.1287 54.1902 36.9467 54.8333L40.3393 55.7977ZM40.0792 59.6599C40.0792 57.6548 40.1516 56.4608 40.3393 55.7977L36.9467 54.8333C36.6017 56.0525 36.5529 57.7539 36.5529 59.6599H40.0792ZM40.3095 63.5578C40.1237 62.8199 40.0792 61.6002 40.0792 59.6599H36.5529C36.5529 61.4761 36.5757 63.1733 36.8904 64.4227L40.3095 63.5578ZM40.2173 63.7382C40.1725 63.7378 40.1898 63.7317 40.2432 63.7517C40.2692 63.7615 40.2981 63.7754 40.3273 63.794C40.3563 63.8126 40.3799 63.8322 40.3977 63.8494C40.4333 63.8842 40.4318 63.8963 40.4094 63.8517C40.3859 63.8047 40.3486 63.7131 40.3095 63.5578L36.8904 64.4227C37.0558 65.0793 37.3514 65.8102 37.94 66.3835C38.578 67.0052 39.3803 67.2684 40.2014 67.2721L40.2173 63.7382ZM40.2434 61.8834C40.2356 62.4856 40.2002 62.9459 40.1453 63.2942C40.0893 63.649 40.0225 63.8233 39.9888 63.8903C39.9644 63.9386 39.9929 63.8633 40.1122 63.7922C40.2262 63.7243 40.2932 63.7387 40.2174 63.7382L40.2014 67.2721C40.7491 67.2744 41.3483 67.1661 41.9109 66.8318C42.4788 66.4942 42.8723 66.0078 43.1371 65.4824C43.6211 64.5208 43.7522 63.2649 43.7694 61.929L40.2434 61.8834ZM44.868 59.8714C44.0077 59.8682 43.1503 59.8654 42.2996 59.8598L42.2774 63.3937C43.1338 63.3988 43.9961 63.4021 44.8556 63.4053L44.868 59.8714ZM48.3643 65.8762C48.6441 66.5523 49.1814 67.5948 49.5846 68.2072L52.5282 66.2612C52.2655 65.8618 51.8289 65.023 51.6215 64.5222L48.3643 65.8762ZM49.013 62.7334C48.8097 62.8757 48.5555 63.0975 48.3559 63.4318C48.1467 63.7824 48.0604 64.1525 48.0516 64.4962C48.0367 65.0672 48.2446 65.5865 48.3638 65.8758L51.6215 64.5227C51.5733 64.4064 51.558 64.3557 51.5552 64.346C51.5515 64.332 51.5807 64.4269 51.577 64.5868C51.5719 64.7733 51.5222 65.0114 51.383 65.2448C51.2531 65.4619 51.1023 65.5814 51.0369 65.627L49.013 62.7334ZM54.4347 62.732C53.9276 62.3038 53.31 62.1573 52.9434 62.0941C52.5115 62.0192 52.0535 62.0011 51.6294 62.0173C51.2021 62.0341 50.7552 62.0875 50.34 62.1829C49.9646 62.2689 49.4524 62.4242 49.0125 62.7339L51.0378 65.6265C50.964 65.6782 50.9265 65.6884 50.9599 65.6754C50.9863 65.6651 51.0411 65.6475 51.1264 65.6279C51.299 65.5879 51.5255 65.5577 51.7654 65.5489C52.008 65.5391 52.2113 65.5535 52.3435 65.5763C52.4085 65.5875 52.4279 65.5963 52.4126 65.5903C52.4061 65.5879 52.2985 65.5493 52.1616 65.434L54.4347 62.732ZM53.2357 68.5927C53.4766 68.3216 54.064 67.5153 54.5113 66.6946C54.734 66.2863 54.9883 65.7567 55.1186 65.2169C55.2091 64.8435 55.4546 63.5936 54.4347 62.732L52.1621 65.434C51.8238 65.1485 51.7185 64.7942 51.6939 64.5961C51.6726 64.4259 51.7027 64.3381 51.692 64.3836C51.6698 64.4743 51.589 64.6845 51.4164 65.0007C51.2568 65.2936 51.0652 65.594 50.894 65.8423C50.7088 66.1111 50.5966 66.2487 50.6031 66.2417L53.2357 68.5927ZM49.5841 68.2067C49.6857 68.3611 49.8305 68.569 50.0143 68.7591C50.1892 68.9409 50.5349 69.2511 51.0633 69.3804C51.6647 69.5273 52.1927 69.3701 52.5588 69.16C52.8762 68.9781 53.103 68.7419 53.2367 68.5917L50.6021 66.2426C50.5604 66.2896 50.6332 66.1924 50.8077 66.0925C51.0313 65.9646 51.428 65.8316 51.899 65.9469C52.2976 66.0441 52.5138 66.2664 52.5504 66.3045C52.5959 66.3514 52.5931 66.3603 52.5282 66.2617L49.5841 68.2067ZM47.4349 65.0797L55.5613 65.0295L55.539 61.4956L47.4131 61.5458L47.4349 65.0797ZM44.8103 64.1046C44.8465 64.1549 45.0038 64.3808 45.2781 64.5822C45.548 64.7803 45.823 64.8812 46.0413 64.9379C46.416 65.036 46.8735 65.0648 47.3737 65.0793L47.4739 61.5468C47.241 61.5398 47.0874 61.5305 46.9881 61.5212C46.8818 61.5114 46.8795 61.5049 46.931 61.5184C46.9913 61.5342 47.1658 61.5872 47.363 61.7323C47.5648 61.8806 47.6771 62.0471 47.6669 62.0327L44.8103 64.1046ZM45.6307 57.9529C44.0143 58.8075 43.9239 60.5982 43.9818 61.4505C44.0172 61.9718 44.1212 62.4712 44.2487 62.8906C44.3635 63.2681 44.5434 63.7341 44.8087 64.1023L47.6683 62.035C47.7184 62.1043 47.7235 62.1303 47.6985 62.0731C47.679 62.0285 47.6511 61.9564 47.6219 61.8602C47.5621 61.663 47.5147 61.4296 47.4999 61.211C47.4841 60.9795 47.511 60.8586 47.5198 60.8316C47.5217 60.8265 47.5101 60.8637 47.4669 60.919C47.4201 60.979 47.3537 61.0376 47.2762 61.0785L45.6307 57.9529ZM54.9836 57.4582C54.2162 57.407 52.3556 57.328 50.5321 57.3387C49.6217 57.3438 48.6886 57.3717 47.892 57.441C47.4948 57.4754 47.1036 57.5228 46.7529 57.5898C46.4369 57.6502 46.0111 57.7516 45.6302 57.9529L47.2767 61.0781C47.1811 61.1287 47.1867 61.1046 47.4131 61.0613C47.6043 61.0246 47.8664 60.9902 48.1977 60.9614C48.8584 60.9042 49.6844 60.8777 50.5525 60.8725C52.2869 60.8623 54.0617 60.9381 54.7484 60.9841L54.9836 57.4582ZM58.245 58.5964C57.4344 57.7125 56.3464 57.5498 54.9836 57.4582L54.7479 60.9841C55.4198 61.0292 55.707 61.085 55.8216 61.119C55.8619 61.1311 55.836 61.1278 55.7794 61.0929C55.7167 61.0548 55.6703 61.0111 55.6485 60.9874L58.245 58.5964ZM59.1285 62.6948C59.3382 62.0015 59.3317 61.2487 59.205 60.5963C59.0793 59.9486 58.7948 59.1953 58.2445 58.596L55.649 60.9883C55.6313 60.9688 55.6457 60.9786 55.6726 61.0376C55.6982 61.0948 55.7251 61.1743 55.7436 61.271C55.7627 61.3677 55.7696 61.4617 55.7678 61.5426C55.7668 61.5816 55.7636 61.6133 55.7603 61.6365C55.7566 61.6602 55.7534 61.6709 55.7538 61.67L59.1285 62.6948ZM55.5993 65.0286C56.0262 65.0165 56.8066 65.009 57.5026 64.6873C58.3963 64.2734 58.8788 63.5183 59.1285 62.6957L55.7538 61.6691C55.7214 61.7769 55.7116 61.7555 55.7664 61.6844C55.7951 61.6472 55.835 61.6049 55.8856 61.5649C55.9362 61.5249 55.9849 61.497 56.0243 61.4784C56.0958 61.4459 56.1153 61.4547 56.0123 61.4677C55.9645 61.4738 55.9005 61.4793 55.8118 61.484C55.7237 61.4891 55.623 61.4928 55.501 61.4961L55.5993 65.0286ZM66.0786 48.39C63.5837 48.8945 61.093 49.3242 58.6125 49.6655L59.0923 53.1664C61.6516 52.8144 64.2157 52.3722 66.776 51.8542L66.0786 48.39ZM68.5248 52.673V50.396H64.9984V52.673H68.5248ZM62.0377 55.4513C63.6371 55.2286 65.2397 54.9705 66.8386 54.6878L66.2252 51.2074C64.6616 51.484 63.1021 51.7351 61.5528 51.9509L62.0377 55.4513ZM63.3178 57.2573V53.9778H59.7915V57.2573H63.3178ZM65.9283 55.2932C64.5071 55.4717 63.0947 55.6373 61.6869 55.7763L62.0321 59.2935C63.4826 59.1502 64.9284 58.9801 66.3658 58.8001L65.9283 55.2932ZM68.2236 59.5952V57.3238H64.6973V59.5952H68.2236ZM61.9389 62.0011C63.4208 61.8955 64.8991 61.7667 66.3672 61.6328L66.0475 58.1133C64.5869 58.2468 63.136 58.3732 61.6888 58.476L61.9389 62.0011ZM63.3178 64.3502V60.5173H59.7915V64.3502H63.3178ZM66.6117 62.6962C65.0003 62.758 63.3907 62.8143 61.7881 62.8627L61.8943 66.3952C63.5081 66.3463 65.1274 66.2896 66.7463 66.2273L66.6117 62.6962ZM68.7312 67.0322V64.7407H65.2049V67.0322H68.7312ZM58.8969 69.106L66.6971 69.0781L66.6846 65.5442L58.8844 65.5721L58.8969 69.106ZM64.7711 50.98C65.6308 50.801 66.2698 50.2523 66.6669 49.6827C67.0711 49.1033 67.3198 48.3752 67.3198 47.6084H63.7934C63.7934 47.6079 63.7934 47.6103 63.793 47.6149C63.792 47.6191 63.7906 47.6251 63.7888 47.6316C63.7837 47.6465 63.7781 47.6563 63.7763 47.6586C63.7744 47.6619 63.7855 47.6437 63.8231 47.6163C63.8612 47.5889 63.9373 47.5442 64.0533 47.5201L64.7711 50.98ZM61.5041 48.1189C61.5041 48.8876 61.7667 49.6855 62.3648 50.276C62.9884 50.8926 63.8728 51.1674 64.7711 50.98L64.0528 47.5201C64.1665 47.4963 64.3122 47.4954 64.4676 47.5414C64.6217 47.5875 64.7479 47.6684 64.8402 47.76C65.0239 47.9413 65.0304 48.1073 65.0304 48.1189H61.5041ZM64.0022 44.7558C63.1694 44.9553 62.5476 45.4965 62.1565 46.0588C61.7584 46.6305 61.5041 47.3527 61.5041 48.1189H65.0304C65.0304 48.1282 65.0295 48.125 65.0337 48.112C65.0379 48.0985 65.0444 48.0869 65.0485 48.0804C65.0536 48.0734 65.0476 48.085 65.0188 48.1064C64.9901 48.1278 64.9256 48.1678 64.8221 48.1929L64.0022 44.7558ZM67.3198 47.6084C67.3198 46.8449 67.066 46.0374 66.4623 45.4382C65.8248 44.8052 64.9149 44.5368 64.0018 44.7559L64.8226 48.1929C64.7047 48.2208 64.5493 48.2268 64.3804 48.1794C64.2129 48.132 64.0774 48.045 63.9809 47.9492C63.8867 47.8553 63.8389 47.7637 63.8162 47.7037C63.8046 47.673 63.799 47.6493 63.7962 47.6335C63.7934 47.6172 63.7934 47.6089 63.7934 47.6084H67.3198ZM61.1816 51.6449C62.053 51.504 62.7137 50.9777 63.1267 50.4169C63.5466 49.8473 63.8083 49.1205 63.8083 48.3491H60.2819C60.2819 48.3254 60.2861 48.3231 60.2903 48.3175C60.2954 48.3105 60.3158 48.2845 60.3631 48.2529C60.4109 48.2203 60.4968 48.1761 60.6193 48.1566L61.1816 51.6449ZM57.9926 48.7462C57.9926 50.2509 59.1916 51.9667 61.1816 51.6454L60.6197 48.1566C60.8953 48.112 61.1719 48.2175 61.3445 48.3919C61.5004 48.5495 61.5189 48.7002 61.5189 48.7462H57.9926ZM60.5752 45.4851C58.9837 45.7848 57.9926 47.3038 57.9926 48.7462H61.5189C61.5189 48.7904 61.5069 48.809 61.4981 48.8206C61.4944 48.8257 61.4215 48.9215 61.2262 48.9582L60.5752 45.4851ZM63.8083 48.3491C63.8083 47.5726 63.5364 46.7803 62.9406 46.1969C62.3254 45.5945 61.4591 45.3185 60.5747 45.4852L61.2266 48.9582C60.9705 49.0066 60.6763 48.9206 60.4764 48.7248C60.2959 48.5481 60.2819 48.3789 60.2819 48.3491H63.8083ZM75.0838 69.0284C75.8814 69.0228 76.6841 69.0172 77.4868 69.0121L77.464 65.4782C76.6604 65.4838 75.8572 65.4889 75.0596 65.4945L75.0838 69.0284ZM71.6442 60.9158C72.6636 60.774 73.6941 60.6308 74.7325 60.4745L74.2096 56.9797C73.193 57.1327 72.1819 57.2736 71.1593 57.4158L71.6442 60.9158ZM68.7322 69.0684C69.5293 69.0628 70.3297 69.0577 71.1301 69.0544L71.1162 65.521C70.3102 65.5238 69.5056 65.5294 68.708 65.5345L68.7322 69.0684ZM70.5928 47.3178C69.7924 47.5331 68.9915 47.7465 68.1958 47.9576L69.0983 51.3738C69.8968 51.1618 70.7009 50.9475 71.5064 50.7308L70.5928 47.3178ZM74.2147 53.6676C73.1777 53.8815 72.1458 54.0768 71.0976 54.2753L71.7532 57.7478C72.7967 57.5502 73.856 57.3494 74.9246 57.129L74.2147 53.6676ZM76.7537 45.281C75.9751 45.5739 75.1928 45.8492 74.4012 46.1242L75.5561 49.4632C76.3537 49.1861 77.1708 48.8987 77.993 48.5895L76.7537 45.281ZM81.9624 53.8801C82.8385 53.642 84.165 53.4849 85.5922 53.4477C87.0125 53.4105 88.3873 53.496 89.3427 53.6774L89.9988 50.2049C88.7158 49.9617 87.0724 49.8738 85.5008 49.9147C83.9358 49.9556 82.297 50.1277 81.0391 50.4694L81.9624 53.8801ZM82.2807 52.4066C82.3656 52.8427 82.2594 53.2487 82.0757 53.5458C81.9184 53.7992 81.7388 53.9224 81.6896 53.955C81.601 54.0126 81.6321 53.9698 81.9624 53.8801L81.0391 50.4694C80.6067 50.5871 80.1459 50.7447 79.7645 50.994C79.4253 51.2153 78.5915 51.9114 78.8194 53.0831L82.2807 52.4066ZM82.9869 51.1404C82.2984 51.2027 81.7713 51.2478 81.4056 51.2436C81.2089 51.2413 81.202 51.2237 81.2906 51.2497C81.3388 51.2632 81.5138 51.3171 81.7137 51.4733C81.9416 51.6514 82.1963 51.9644 82.2817 52.4122L78.8184 53.0775C79.037 54.2191 80.0373 54.5655 80.3143 54.645C80.692 54.7543 81.0836 54.7738 81.3634 54.7771C81.9494 54.7845 82.683 54.7161 83.3034 54.6599L82.9869 51.1404ZM85.2108 51.0107C84.5023 51.0014 83.6667 51.079 82.9869 51.1404L83.3034 54.6599C84.0397 54.5934 84.6768 54.5381 85.1654 54.5441L85.2108 51.0107ZM88.1052 51.2055C87.2413 51.1241 86.1852 51.0232 85.2104 51.0107L85.1658 54.5441C85.9709 54.5543 86.8789 54.6394 87.7744 54.7241L88.1052 51.2055ZM89.6624 51.3292C89.2722 51.3153 88.7539 51.2669 88.1052 51.2055L87.7744 54.7241C88.385 54.7817 89.0207 54.8426 89.5371 54.8608L89.6624 51.3292ZM89.3427 53.6774C89.681 53.7415 89.8447 53.8145 89.8763 53.8317C89.8944 53.8415 89.8169 53.8043 89.7116 53.6932C89.6169 53.5932 89.3691 53.2928 89.3343 52.7981C89.2944 52.2294 89.5603 51.7974 89.8067 51.5654C90.0141 51.3701 90.1988 51.3143 90.2113 51.3101C90.2442 51.2999 90.0976 51.345 89.6629 51.3292L89.5366 54.8608C90.1454 54.8826 90.7542 54.8449 91.2775 54.6785C91.5351 54.5966 91.8988 54.4446 92.2218 54.1405C92.5832 53.7997 92.9006 53.2468 92.8519 52.5507C92.8083 51.9286 92.4909 51.4938 92.2686 51.2595C92.0352 51.0135 91.7722 50.841 91.5494 50.721C91.0998 50.4778 90.5611 50.3118 89.9988 50.2049L89.3427 53.6774ZM14.3591 52.3815C14.3692 52.3461 14.3695 52.3522 14.3393 52.4289C14.3143 52.4921 14.2797 52.5754 14.2363 52.6763C14.1492 52.879 14.043 53.1157 13.9377 53.3505L17.154 54.7998C17.2564 54.5715 17.3748 54.3074 17.4752 54.074C17.5588 53.8792 17.6824 53.5872 17.7484 53.357L14.3591 52.3815ZM14.8789 50.8884C14.684 51.4148 14.4774 51.9686 14.359 52.3815L17.7484 53.357C17.8205 53.1054 17.9677 52.7042 18.1847 52.1187L14.8789 50.8884ZM15.0258 50.4908C14.976 50.6261 14.9271 50.7587 14.8789 50.8884L18.1847 52.1187C18.2327 51.989 18.2831 51.8532 18.3344 51.7137L15.0258 50.4908ZM16.8986 46.7942C16.5116 47.2917 16.1354 47.9869 15.8355 48.603C15.5218 49.2479 15.2303 49.9352 15.0258 50.4908L18.3344 51.7137C18.4957 51.2753 18.7402 50.6964 19.0053 50.1519C19.2841 49.5785 19.5295 49.16 19.6791 48.9675L16.8986 46.7942ZM23.722 55.7354C23.8446 55.3815 23.8274 55.0746 23.8204 54.9714C23.8106 54.8282 23.7877 54.7041 23.7693 54.6185C23.7319 54.4441 23.6782 54.2698 23.6279 54.1205C23.5244 53.8131 23.3772 53.4435 23.2118 53.0557C22.8775 52.2708 22.4196 51.2967 21.9494 50.363C21.4819 49.4344 20.981 48.5035 20.5586 47.8186C20.357 47.4917 20.1277 47.1453 19.8987 46.8802C19.8063 46.7733 19.5908 46.5306 19.2776 46.3488C19.1206 46.2578 18.7734 46.0833 18.3021 46.0916C17.7281 46.1017 17.2231 46.3779 16.8993 46.7933L19.6784 48.9685C19.378 49.3539 18.9026 49.6153 18.364 49.625C17.9282 49.6325 17.6222 49.4716 17.5118 49.4079C17.2918 49.28 17.191 49.1447 17.2315 49.1917C17.2681 49.2344 17.377 49.3814 17.5591 49.6766C17.9041 50.236 18.3528 51.0642 18.8011 51.9546C19.2466 52.8395 19.6708 53.7443 19.9688 54.4437C20.1196 54.7975 20.2262 55.0709 20.287 55.2513C20.3188 55.3457 20.325 55.3764 20.3218 55.3611C20.3204 55.355 20.308 55.2988 20.3021 55.2109C20.2989 55.1635 20.2786 54.8998 20.3908 54.5762L23.722 55.7354ZM23.4302 56.2701C23.4548 56.2357 23.484 56.1939 23.5152 56.1478L20.5976 54.1633C20.5859 54.1805 20.5725 54.1996 20.5552 54.2242L23.4302 56.2701ZM18.4281 56.7644C19.1459 56.8951 19.9447 57.0387 20.6143 57.1057C20.9461 57.1392 21.3167 57.162 21.6668 57.1378C21.9105 57.1215 22.5909 57.0666 23.1482 56.5817L20.8372 53.9127C21.0624 53.7169 21.2737 53.6509 21.341 53.6318C21.4198 53.61 21.4577 53.6104 21.4282 53.6123C21.3662 53.6165 21.2207 53.6151 20.966 53.5895C20.4625 53.5393 19.807 53.424 19.059 53.2877L18.4281 56.7644ZM17.3486 56.0985C17.338 56.0888 17.3305 56.0813 17.3259 56.0762C17.3213 56.0716 17.319 56.0692 17.3191 56.0692C17.3193 56.0692 17.3212 56.0716 17.3249 56.0762C17.3287 56.0809 17.3339 56.0874 17.3405 56.0962L20.1466 53.9559C20.0435 53.8201 19.9051 53.6527 19.7313 53.4932L17.3486 56.0985ZM18.8626 56.2204C18.9196 56.1739 18.739 56.3478 18.3837 56.3975C18.1793 56.4259 17.9587 56.4073 17.7486 56.3329C17.5484 56.2618 17.4167 56.1609 17.3484 56.0981L19.7316 53.4937C19.2829 53.0813 18.6434 52.7934 17.8975 52.8971C17.2826 52.9831 16.8461 53.3096 16.6428 53.4746L18.8626 56.2204ZM16.9188 55.3736C16.7838 55.7893 16.5139 56.0539 16.2981 56.1962C16.1036 56.3245 15.9399 56.3654 15.8903 56.3766C15.7985 56.3975 15.8009 56.3813 15.9773 56.3892C16.3031 56.4036 16.8008 56.4752 17.4507 56.5882L18.0546 53.1064C17.413 52.9948 16.7112 52.8841 16.1326 52.8585C15.8567 52.8464 15.4805 52.846 15.1094 52.9301C14.8364 52.9925 13.8985 53.2538 13.5653 54.2805L16.9188 55.3736ZM13.9377 53.3505C13.8377 53.5737 13.7309 53.8113 13.6606 53.9791C13.6375 54.034 13.5747 54.1823 13.5329 54.3274C13.5228 54.3623 13.4903 54.4757 13.4726 54.6218C13.4646 54.6873 13.4469 54.8542 13.4737 55.064C13.4916 55.2044 13.5796 55.8168 14.1672 56.2576C14.8715 56.7858 15.6072 56.5933 15.8802 56.484C16.1526 56.3752 16.3297 56.2236 16.3863 56.1743C16.5222 56.0562 16.6108 55.9414 16.6326 55.9135L13.8515 53.7406C13.8635 53.7253 13.9441 53.6192 14.074 53.5063C14.1276 53.4598 14.3021 53.3105 14.5725 53.2022C14.8433 53.0938 15.5774 52.9009 16.2805 53.4286C16.8668 53.8685 16.9542 54.479 16.9716 54.6166C16.9981 54.824 16.9806 54.9872 16.9731 55.0486C16.9564 55.1862 16.9265 55.2881 16.9207 55.3085C16.8958 55.3946 16.8749 55.4355 16.9116 55.3481C16.9608 55.2304 17.0454 55.0416 17.154 54.7998L13.9377 53.3505ZM15.5084 60.7158C15.7661 59.2451 16.2786 57.3461 16.9188 55.3736L13.5653 54.2805C12.8999 56.3306 12.333 58.4049 12.0351 60.1048L15.5084 60.7158ZM14.9009 59.9956C14.7681 59.9663 14.8023 59.9584 14.9029 60.0165C15.0381 60.0951 15.2365 60.2606 15.366 60.5354C15.4794 60.7763 15.4722 60.9613 15.4722 60.9641C15.472 60.9706 15.4721 60.9558 15.478 60.9088C15.4839 60.8628 15.4935 60.8014 15.5085 60.7154L12.035 60.1058C11.9991 60.3113 11.9539 60.5908 11.9469 60.8767C11.9397 61.1692 11.9667 61.597 12.1768 62.0434C12.6476 63.0436 13.6161 63.3304 14.1415 63.4467L14.9009 59.9956ZM18.4105 60.2332C16.9916 60.1899 15.5454 60.1379 14.9009 59.9956L14.1414 63.4467C15.1949 63.6792 17.0712 63.728 18.304 63.7652L18.4105 60.2332ZM21.3778 60.2346C20.7158 60.2997 19.903 60.2783 18.5798 60.2383L18.473 63.7703C19.7135 63.808 20.7848 63.8438 21.7229 63.7513L21.3778 60.2346ZM21.5751 59.6766C21.621 59.8812 21.6559 60.0518 21.6809 60.1983C21.706 60.3457 21.7178 60.4494 21.7219 60.5224C21.7311 60.6847 21.6958 60.5866 21.79 60.4052C21.8399 60.309 21.9064 60.2285 21.9739 60.1704C22.0364 60.1165 22.0768 60.1011 22.0622 60.1072C22.0456 60.1146 21.9877 60.1365 21.8684 60.1625C21.7502 60.1881 21.5903 60.2137 21.3775 60.2346L21.7232 63.7513C22.7799 63.6471 24.2292 63.363 24.9181 62.0364C25.2362 61.424 25.2695 60.7981 25.2425 60.3215C25.2156 59.8472 25.1162 59.3511 25.0162 58.9038L21.5751 59.6766ZM20.4115 55.7917C20.8428 56.9118 21.218 58.0822 21.5753 59.6771L25.016 58.9033C24.6192 57.1313 24.1925 55.7949 23.7013 54.5195L20.4115 55.7917ZM23.1483 56.5817C23.3825 56.378 23.5971 56.0962 23.7222 55.7345L20.3905 54.5767C20.4914 54.2851 20.663 54.0642 20.8372 53.9127L23.1483 56.5817ZM23.3941 56.3213C23.4047 56.3064 23.4173 56.2887 23.4302 56.2701L20.5552 54.2242C20.5459 54.2372 20.5364 54.2507 20.5253 54.266L23.3941 56.3213ZM23.3425 56.3943C23.355 56.3761 23.3695 56.3557 23.3941 56.3213L20.5253 54.266C20.5037 54.2963 20.4734 54.3386 20.4431 54.3828L23.3425 56.3943ZM23.2047 56.6133C23.2658 56.5119 23.3022 56.4524 23.3434 56.3929L20.4423 54.3837C20.3325 54.5432 20.2449 54.6887 20.188 54.7831L23.2047 56.6133ZM22.5105 57.5191C22.8802 57.1652 23.0941 56.796 23.2047 56.6133L20.188 54.7831C20.062 54.9919 20.0634 54.9742 20.0765 54.9617L22.5105 57.5191ZM17.5891 56.471C17.7102 56.6616 17.8917 56.9499 18.101 57.2178C18.3058 57.48 18.6242 57.8385 19.0749 58.1045C19.5734 58.3988 20.2122 58.5639 20.9206 58.4151C21.5733 58.2775 22.0996 57.912 22.511 57.5186L20.076 54.9621C19.9396 55.0928 19.9802 55.0021 20.196 54.9565C20.3111 54.9324 20.4431 54.9286 20.5774 54.9542C20.7076 54.9793 20.8049 55.0244 20.8648 55.0598C20.9216 55.0932 20.9465 55.1188 20.9411 55.1137C20.936 55.1086 20.9148 55.0872 20.8771 55.0388C20.793 54.931 20.7039 54.7938 20.5642 54.5734L17.5891 56.471ZM17.3405 56.0962C17.3971 56.1706 17.4655 56.2762 17.5891 56.471L20.5642 54.5734C20.4612 54.4116 20.3104 54.1717 20.1466 53.9559L17.3405 56.0962ZM18.2587 56.7337C18.315 56.7439 18.3715 56.7542 18.4281 56.7644L19.059 53.2877C19.003 53.2775 18.947 53.2673 18.8907 53.257L18.2587 56.7337ZM17.4507 56.5882C17.7109 56.6337 17.9803 56.6826 18.2587 56.7337L18.8907 53.257C18.6149 53.2063 18.3313 53.1547 18.0546 53.1064L17.4507 56.5882ZM18.657 56.4157C18.7861 56.2883 18.833 56.2445 18.8626 56.2204L16.6428 53.4746C16.4557 53.6262 16.2827 53.7992 16.184 53.8964L18.657 56.4157ZM17.744 57.1713C18.1638 56.9137 18.5031 56.5673 18.657 56.4157L16.184 53.8964C16.0858 53.9931 16.0245 54.0531 15.9672 54.1038C15.9121 54.1526 15.8933 54.1628 15.9024 54.1572L17.744 57.1713ZM13.7081 55.6982C13.9443 56.1157 14.3455 56.6928 14.9452 57.0936C15.2623 57.3056 15.6917 57.5051 16.2149 57.547C16.7613 57.5907 17.2873 57.4517 17.7445 57.1708L15.9019 54.1577C16.0393 54.0731 16.2512 54.0047 16.4954 54.0242C16.7165 54.0419 16.8556 54.1228 16.9008 54.1531C16.9441 54.1819 16.9401 54.1893 16.9011 54.1424C16.8653 54.0991 16.821 54.0354 16.7761 53.9559L13.7081 55.6982ZM47.8878 58.2914C47.8882 58.2961 47.8864 58.2617 47.8989 58.1854C47.911 58.1115 47.9332 58.0171 47.9699 57.9064C48.0451 57.6814 48.1634 57.4386 48.3133 57.2233C48.6478 56.7439 48.9132 56.684 48.986 56.6835L48.9633 53.1496C47.2809 53.1603 46.0896 54.2428 45.4225 55.1997C44.7639 56.1446 44.3058 57.3945 44.3672 58.49L47.8878 58.2914ZM47.2331 56.8965C47.0071 56.9267 46.8563 56.9467 46.7357 56.9578C46.6044 56.9699 46.6076 56.9611 46.6749 56.9685C46.7306 56.9746 47.0698 57.0146 47.4034 57.3145C47.7866 57.659 47.8762 58.0794 47.8878 58.2923L44.3671 58.4895C44.3911 58.9187 44.5465 59.4939 45.0486 59.9449C45.5011 60.3518 46.012 60.4508 46.2918 60.4815C46.783 60.535 47.3774 60.4424 47.6999 60.3992L47.2331 56.8965ZM48.7137 56.7388C48.117 56.7779 47.6094 56.8462 47.2331 56.8965L47.6999 60.3992C48.0771 60.3485 48.478 60.2955 48.942 60.2653L48.7137 56.7388ZM50.2073 56.67C49.7284 56.6877 49.1944 56.7077 48.7137 56.7388L48.942 60.2653C49.3647 60.2378 49.8477 60.2197 50.3381 60.2016L50.2073 56.67ZM51.6057 56.5993C51.2953 56.6286 50.81 56.6477 50.2073 56.67L50.3381 60.2016C50.8958 60.1806 51.5027 60.1588 51.938 60.1174L51.6057 56.5993ZM50.7692 58.0803C50.7678 58.0691 50.7622 58.0185 50.7636 57.9441C50.7655 57.8687 50.7743 57.7464 50.8151 57.5995C50.9121 57.2475 51.1302 56.9527 51.4007 56.7621C51.5139 56.6821 51.6127 56.637 51.673 56.6128C51.7333 56.5891 51.7737 56.5798 51.7811 56.5779C51.789 56.5761 51.7445 56.5863 51.6067 56.5993L51.9375 60.1174C52.1412 60.0983 52.3658 60.07 52.5838 60.0188C52.7871 59.9714 53.1128 59.8761 53.4316 59.651C53.8079 59.3851 54.0872 59.0005 54.2143 58.5392C54.3206 58.1538 54.289 57.8181 54.2714 57.6674L50.7692 58.0803ZM50.5014 57.4191C50.5891 57.586 50.6611 57.753 50.7107 57.8934C50.7668 58.0501 50.7729 58.111 50.7692 58.0803L54.2714 57.6679C54.1999 57.0592 53.922 56.3445 53.6223 55.774L50.5014 57.4191ZM48.9856 56.6835C49.476 56.6802 49.7864 56.7639 49.985 56.8667C50.1609 56.9574 50.3372 57.1066 50.5014 57.4196L53.6223 55.7735C53.1453 54.8659 52.4641 54.1707 51.5997 53.7248C50.7571 53.29 49.8449 53.144 48.9638 53.1496L48.9856 56.6835ZM47.9796 55.8865C48.4344 55.9804 48.8673 55.9632 49.0826 55.9586L49.0055 52.4256C48.8696 52.4284 48.7981 52.4294 48.7373 52.4275C48.684 52.4256 48.6747 52.4224 48.6882 52.4247L47.9796 55.8865ZM47.9012 51.2488C47.6066 51.4971 47.1677 52.0025 46.8693 52.4791C46.7399 52.6865 46.4777 53.1301 46.4086 53.6662C46.3704 53.9596 46.3651 54.4781 46.6856 54.9951C47.0326 55.5554 47.5639 55.8014 47.9796 55.887L48.6877 52.4247C48.9559 52.48 49.3906 52.6614 49.6816 53.1319C49.946 53.5588 49.9261 53.961 49.9057 54.1205C49.8839 54.2879 49.8379 54.3865 49.8361 54.3907C49.8291 54.406 49.8328 54.3953 49.8574 54.3558C49.9075 54.2758 49.9869 54.1693 50.0741 54.0661C50.1762 53.9461 50.2156 53.9164 50.1697 53.9545L47.9012 51.2488ZM56.0285 53.6969C55.9575 52.8418 55.4583 52.1383 55.0398 51.6919C54.5697 51.1906 53.9447 50.7368 53.2214 50.4257C51.7171 49.7789 49.7001 49.7338 47.9012 51.2492L50.1697 53.9545C50.5172 53.662 50.8146 53.5658 51.0494 53.5402C51.2986 53.5132 51.5649 53.5588 51.8303 53.6732C52.1022 53.7899 52.3277 53.9601 52.4702 54.1121C52.5402 54.187 52.5699 54.2354 52.5746 54.2442C52.5857 54.2646 52.53 54.1754 52.5142 53.9898L56.0285 53.6969ZM54.218 55.8419C54.2723 55.8312 54.3837 55.8093 54.4909 55.7824C54.5906 55.7568 54.8008 55.6991 55.0272 55.575C55.2787 55.4369 55.6035 55.1881 55.8216 54.765C56.0332 54.3535 56.0503 53.9587 56.0285 53.696L52.5147 53.9908C52.5003 53.8197 52.5059 53.4974 52.6878 53.144C52.8757 52.7795 53.1513 52.5749 53.3364 52.474C53.4237 52.4261 53.4956 52.3977 53.5383 52.3829C53.581 52.368 53.6107 52.3601 53.6181 52.3582C53.6223 52.3573 53.6134 52.3596 53.5304 52.3759L54.218 55.8419ZM54.0895 55.8684C54.1294 55.8595 54.1684 55.8521 54.218 55.8419L53.5304 52.3759C53.4831 52.3852 53.4167 52.3987 53.3429 52.4145L54.0895 55.8684ZM52.8618 56.2664C52.9866 56.2078 53.0998 56.1548 53.2715 56.0934C53.4469 56.0311 53.7058 55.9516 54.09 55.8684L53.3425 52.4145C52.2753 52.6465 51.7194 52.9004 51.3659 53.0664L52.8618 56.2664ZM50.3126 56.1892C50.578 56.3176 51.0643 56.5538 51.6313 56.5686C52.2655 56.5849 52.7713 56.3092 52.8618 56.2664L51.3659 53.0664C51.3153 53.0901 51.293 53.1003 51.2772 53.1073C51.2629 53.1138 51.2772 53.1068 51.3079 53.0961C51.3413 53.085 51.3988 53.0673 51.4749 53.0538C51.5533 53.0403 51.6368 53.0334 51.7222 53.0357C51.8906 53.0399 52.0001 53.0775 52.009 53.0808C52.0103 53.0813 51.9686 53.0664 51.8415 53.005L50.3126 56.1892ZM49.0826 55.9586C49.3466 55.9525 49.4964 55.9521 49.6644 55.9772C49.818 56 50.0249 56.0507 50.3126 56.1897L51.8415 53.005C50.5734 52.3936 49.6203 52.4121 49.0055 52.4256L49.0826 55.9586ZM55.1409 57.2726C55.1172 57.2173 55.0824 57.1257 55.0184 56.955L51.7176 58.1984C51.7695 58.3379 51.8391 58.5234 51.905 58.6769L55.1409 57.2726ZM54.1113 56.5166C53.9981 56.524 53.9897 56.5235 53.999 56.5235C54.0148 56.524 54.1563 56.5245 54.3447 56.5872C54.5632 56.6598 54.7674 56.7886 54.9275 56.9597C55.0685 57.1099 55.1279 57.2419 55.1409 57.2717L51.9055 58.6774C52.0953 59.1158 52.479 59.6905 53.2348 59.9416C53.7457 60.1114 54.2867 60.0467 54.3396 60.043L54.1113 56.5166ZM55.8647 56.6291C55.0411 56.4566 54.4509 56.4947 54.1113 56.5166L54.3396 60.043C54.4811 60.0342 54.579 60.0281 54.6969 60.0318C54.8101 60.0356 54.9548 60.0486 55.1428 60.0881L55.8647 56.6291ZM57.1389 57.0411C56.8786 56.9355 56.4169 56.7449 55.8647 56.6291L55.1423 60.0881C55.3483 60.1309 55.5413 60.2058 55.8165 60.3174L57.1389 57.0411ZM55.5631 58.2923C55.5873 58.1668 55.6866 57.7753 56.08 57.4498C56.4958 57.1052 56.9389 57.0815 57.1361 57.0927C57.3091 57.1029 57.4089 57.1443 57.3588 57.1276C57.3226 57.115 57.2683 57.0936 57.1389 57.0411L55.8165 60.3174C55.9186 60.3587 56.0731 60.422 56.2229 60.4731C56.3589 60.5192 56.621 60.6028 56.9314 60.621C57.2669 60.6405 57.8228 60.5908 58.3257 60.1741C58.8064 59.7761 58.967 59.266 59.0254 58.9633L55.5631 58.2923ZM53.5262 56.6937C53.6622 56.6198 54.1118 56.5459 54.7859 57.1057C55.0829 57.3526 55.3126 57.6465 55.4448 57.912C55.584 58.1914 55.5585 58.3156 55.5631 58.2928L59.0254 58.9629C59.2124 57.9929 58.9637 57.0643 58.6 56.3338C58.2292 55.5894 57.6757 54.9156 57.0358 54.3846C55.8364 53.3891 53.7972 52.52 51.8373 53.5918L53.5262 56.6937ZM54.148 55.1783C54.1099 55.1212 54.0844 55.0826 54.0621 55.0477C54.0519 55.0319 54.0445 55.0198 54.0394 55.011C54.0366 55.0063 54.0347 55.003 54.0334 55.0007C54.0324 54.9998 54.032 54.9989 54.032 54.9984C54.0315 54.9979 54.0315 54.9975 54.0315 54.9975C54.0315 54.9975 54.0315 54.9979 54.032 54.9984C54.032 54.9989 54.0329 55.0003 54.0334 55.0012C54.0347 55.004 54.0366 55.0082 54.0394 55.0133C54.0445 55.024 54.0528 55.0421 54.0626 55.0663C54.0807 55.1128 54.1108 55.2002 54.1294 55.3202C54.1721 55.6005 54.1326 55.9609 53.9271 56.2906C53.7531 56.5691 53.5494 56.6812 53.5257 56.6942L51.8373 53.5918C51.5663 53.7397 51.2021 53.9917 50.9367 54.4176C50.6393 54.8947 50.5757 55.4099 50.6439 55.8558C50.7028 56.2422 50.8555 56.5445 50.9455 56.7077C51.0392 56.8779 51.1501 57.0429 51.2118 57.1355L54.148 55.1783ZM54.5549 55.8549C54.4073 55.5666 54.2421 55.3202 54.148 55.1783L51.2118 57.1355C51.3181 57.2959 51.3742 57.3833 51.4169 57.467L54.5549 55.8549ZM55.0184 56.955C54.9187 56.6891 54.7539 56.2445 54.5553 55.8554L51.4169 57.4665C51.5065 57.6423 51.6011 57.8878 51.7176 58.1984L55.0184 56.955ZM80.1181 56.9104C83.1052 55.8884 85.8238 55.7642 89.1418 56.3701L89.7737 52.8939C85.9532 52.1959 82.6157 52.3215 78.9785 53.5662L80.1181 56.9104ZM80.3018 56.2027C80.3083 56.1655 80.3037 56.1976 80.293 56.2394C80.28 56.2915 80.2536 56.3836 80.2021 56.4929C80.1487 56.6063 80.0805 56.7128 80.0007 56.8076C79.9237 56.8992 79.8494 56.9634 79.7961 57.0043C79.7019 57.0764 79.6513 57.0908 79.726 57.0578C79.7914 57.0285 79.9116 56.9811 80.1185 56.9099L78.978 53.5662C78.5433 53.715 78.0436 53.9001 77.6598 54.193C77.4116 54.3823 77.1754 54.6394 77.013 54.9849C76.8752 55.2774 76.8349 55.5578 76.8311 55.5782L80.3018 56.2027ZM80.1023 55.5136C79.9357 55.4355 79.8842 55.4099 79.8564 55.3932C79.8378 55.3825 79.9394 55.4369 80.0517 55.575C80.184 55.7363 80.2601 55.9232 80.2874 56.0869C80.3092 56.2208 80.2884 56.2785 80.3018 56.2022L76.8311 55.5787C76.7147 56.2278 76.7221 57.0778 77.3239 57.8139C77.774 58.3649 78.4421 58.6369 78.6078 58.7145L80.1023 55.5136ZM80.5858 55.7512C80.3983 55.6522 80.2257 55.5717 80.1023 55.5136L78.6078 58.7145C78.7368 58.775 78.8393 58.8234 78.9442 58.8787L80.5858 55.7512ZM81.3996 59.7054C81.5305 59.3874 81.8093 58.7569 81.8701 58.1528C81.9063 57.7929 81.8868 57.3052 81.6386 56.8067C81.3838 56.2952 80.9825 55.96 80.5862 55.7512L78.9442 58.8787C78.8402 58.8238 78.6282 58.676 78.483 58.3844C78.3447 58.1059 78.354 57.8711 78.3614 57.7976C78.3674 57.7376 78.3758 57.7451 78.3322 57.8706C78.2899 57.9915 78.231 58.1356 78.1401 58.357L81.3996 59.7054ZM81.0929 63.0347C80.5964 61.7314 80.9616 60.7688 81.3996 59.7054L78.1401 58.357C77.6784 59.4776 76.7727 61.6021 77.7986 64.2948L81.0929 63.0347ZM89.4875 63.8903C87.3707 66.9866 82.3629 66.3687 81.0929 63.0347L77.7986 64.2948C80.1278 70.4098 88.7437 71.2305 92.3962 65.8874L89.4875 63.8903ZM89.9538 59.4274C90.1695 60.0509 90.3635 60.6419 90.3681 61.3394C90.3718 61.9922 90.2057 62.8394 89.4875 63.8898L92.3962 65.8874C93.5149 64.2516 93.9028 62.7013 93.8945 61.3175C93.8861 59.9774 93.501 58.8922 93.2862 58.271L89.9538 59.4274ZM89.8072 57.0969C89.5162 57.7604 89.6545 58.3951 89.706 58.6206C89.7719 58.908 89.8814 59.2181 89.9538 59.4274L93.2862 58.271C93.243 58.1459 93.2105 58.0524 93.1841 57.9701C93.1576 57.8873 93.1465 57.845 93.1423 57.8278C93.1377 57.806 93.1521 57.8576 93.1539 57.9548C93.1558 58.0529 93.1465 58.2654 93.0361 58.5174L89.8072 57.0969ZM90.6242 56.0414C90.5366 56.1264 90.4006 56.258 90.2804 56.3906C90.1816 56.4998 89.958 56.7523 89.8072 57.0969L93.0361 58.5174C93.0078 58.5816 92.9804 58.6313 92.9595 58.6657C92.9386 58.7006 92.921 58.7257 92.9099 58.7411C92.8983 58.7569 92.8904 58.7666 92.8881 58.7694C92.8857 58.7727 92.8862 58.7717 92.8913 58.7662C92.9024 58.7536 92.9224 58.7322 92.9572 58.6978C92.992 58.6629 93.031 58.6253 93.082 58.5755L90.6242 56.0414ZM89.1418 56.3706C90.164 56.557 90.7351 56.7421 91.0261 56.8779C91.3634 57.0355 91.0516 56.9936 90.8999 56.5314C90.8196 56.2878 90.833 56.06 90.8739 55.8981C90.8924 55.8247 90.9152 55.7712 90.93 55.74C90.9379 55.7242 90.9444 55.7121 90.9486 55.7052C90.9528 55.6977 90.9555 55.6935 90.9555 55.6935C90.9555 55.6931 90.9495 55.7028 90.9328 55.7228C90.917 55.7424 90.8948 55.7675 90.8646 55.8C90.8006 55.8688 90.7273 55.9409 90.6238 56.0414L93.082 58.5755C93.2472 58.4142 93.611 58.0701 93.8838 57.6623C94.1557 57.2564 94.5784 56.4282 94.2494 55.4266C93.9418 54.4906 93.1544 53.9726 92.5136 53.6741C91.8264 53.3533 90.917 53.1022 89.7737 52.8939L89.1418 56.3706ZM77.993 48.5895C77.0321 48.9508 75.989 48.245 75.989 47.1969H79.5153C79.5153 45.7579 78.0802 44.7819 76.7537 45.281L77.993 48.5895ZM76.5546 48.0576C76.5546 48.6918 76.1533 49.2558 75.5561 49.4632L74.4012 46.1242C73.58 46.4096 73.0283 47.1853 73.0283 48.0576H76.5546ZM74.9246 57.129C75.8763 56.9332 76.5546 56.0939 76.5546 55.1253H73.0283C73.0283 54.4213 73.5215 53.8104 74.2147 53.6676L74.9246 57.129ZM69.6374 55.9911C69.6374 57.1117 70.6545 57.9562 71.7532 57.7478L71.0976 54.2753C72.1708 54.0721 73.1638 54.8966 73.1638 55.9911H69.6374ZM70.203 49.9352C70.203 50.6108 69.7492 51.2009 69.0983 51.3738L68.1958 47.9576C67.3003 48.1952 66.6767 49.0071 66.6767 49.9352H70.203ZM68.708 65.5345C69.5321 65.5289 70.203 66.1966 70.203 67.0224H66.6767C66.6767 68.1579 67.5991 69.0763 68.7322 69.0684L68.708 65.5345ZM69.6374 67.0085C69.6374 66.1882 70.2991 65.5238 71.1162 65.521L71.1301 69.0544C72.2539 69.0502 73.1638 68.1361 73.1638 67.0085H69.6374ZM76.5546 59.0033C76.5546 57.7497 75.4415 56.7946 74.2096 56.9797L74.7325 60.4745C73.8379 60.6094 73.0283 59.9156 73.0283 59.0033H76.5546ZM75.989 66.9662C75.989 66.1483 76.6479 65.4838 77.464 65.4782L77.4868 69.0121C78.6092 69.0047 79.5153 68.091 79.5153 66.9662H75.989ZM58.8844 65.5721C59.7061 65.5689 60.3743 66.2361 60.3743 67.0601H56.8479C56.8479 68.1928 57.7666 69.1097 58.8969 69.106L58.8844 65.5721ZM66.7463 66.2273C65.9051 66.2598 65.2049 65.5852 65.2049 64.7407H68.7312C68.7312 63.5797 67.7685 62.652 66.6117 62.6962L66.7463 66.2273ZM59.7915 64.3502C59.7915 65.5033 60.7427 66.43 61.8943 66.3952L61.7881 62.8627C62.626 62.8376 63.3178 63.5113 63.3178 64.3502H59.7915ZM61.6888 58.476C60.622 58.5523 59.7915 59.4413 59.7915 60.5173H63.3178C63.3178 61.2999 62.7137 61.9457 61.9389 62.0011L61.6888 58.476ZM64.6973 59.5952C64.6973 58.8261 65.2819 58.1831 66.0475 58.1133L66.3672 61.6328C67.4191 61.5365 68.2236 60.6526 68.2236 59.5952H64.6973ZM24.8075 66.7425C24.9476 66.0469 25.5589 65.5466 26.2684 65.5489L26.2557 69.0828C27.2309 69.0865 28.0715 68.3983 28.2642 67.4414L24.8075 66.7425ZM60.3743 51.6928C60.3743 52.4382 59.8244 53.0655 59.0923 53.1664L58.6125 49.6655C57.6038 49.8041 56.8479 50.6675 56.8479 51.6928H60.3743ZM23.7786 65.5377C24.7241 65.5414 25.4263 66.4184 25.2228 67.3451L21.7789 66.5858C21.4991 67.8603 22.4647 69.0665 23.7651 69.0716L23.7786 65.5377ZM66.776 51.8542C65.8601 52.0397 64.9984 51.339 64.9984 50.396H68.5248C68.5248 49.1001 67.3397 48.1352 66.0786 48.39L66.776 51.8542ZM43.0077 57.0136C43.0077 56.1492 43.7104 55.4499 44.5733 55.4559L44.5488 58.9894C45.643 58.9973 46.5338 58.1105 46.5338 57.0136H43.0077ZM44.8557 63.4053C43.8779 63.4016 43.1022 62.6046 43.1023 61.6416L46.6285 61.6421C46.629 60.6749 45.8498 59.8747 44.8679 59.8714L44.8557 63.4053ZM25.9415 60.4299C25.7019 61.637 26.5727 62.7827 27.7998 62.8696L28.0475 59.3441C28.9408 59.4074 29.5744 60.2416 29.4001 61.1194L25.9415 60.4299ZM10.586 50.3076C11.2036 50.5048 11.6203 51.0795 11.6203 51.7258H8.09399C8.09399 52.6144 8.66707 53.404 9.51529 53.6746L10.586 50.3076ZM43.7694 61.929C43.7591 62.7278 43.1097 63.3988 42.2774 63.3937L42.2996 59.8598C41.1583 59.8524 40.2577 60.7749 40.2434 61.8834L43.7694 61.929ZM65.2049 67.0322C65.2049 66.2124 65.8665 65.547 66.6846 65.5442L66.6971 69.0781C67.8218 69.0739 68.7312 68.1593 68.7312 67.0322H65.2049ZM30.8435 53.6834C30.4831 51.7491 27.726 51.7151 27.3228 53.6453L30.7743 54.3693C30.3852 56.2315 27.7249 56.1985 27.3771 54.3321L30.8435 53.6834ZM66.3658 58.8001C65.481 58.9108 64.6973 58.2198 64.6973 57.3238H68.2236C68.2236 56.0916 67.1458 55.1407 65.9283 55.2932L66.3658 58.8001ZM30.0353 63.0175C31.3717 63.104 32.4302 61.8978 32.1692 60.5782L28.7101 61.2654C28.5201 60.3053 29.2905 59.4283 30.2621 59.4911L30.0353 63.0175ZM28.9174 51.2339C28.7313 52.0095 27.9718 52.494 27.1989 52.3475L27.8544 48.8755C26.7889 48.6732 25.7444 49.3419 25.4887 50.4076L28.9174 51.2339ZM61.5528 51.9509C60.5455 52.0908 59.7915 52.9539 59.7915 53.9778H63.3178C63.3178 54.7227 62.7694 55.3495 62.0377 55.4513L61.5528 51.9509ZM59.7915 57.2573C59.7915 58.463 60.8285 59.412 62.0321 59.2935L61.6869 55.7763C62.5634 55.6898 63.3178 56.3813 63.3178 57.2573H59.7915ZM30.535 52.9199C29.9355 52.8237 29.4548 52.3712 29.3216 51.7774L32.762 51.0019C32.5788 50.1853 31.9178 49.5632 31.0934 49.4307L30.535 52.9199ZM64.9984 52.673C64.9984 51.9523 65.5144 51.3334 66.2252 51.2074L66.8386 54.6878C67.8153 54.5148 68.5248 53.6639 68.5248 52.673H64.9984ZM71.1607 57.4154C70.2889 57.5363 69.6374 58.2826 69.6374 59.1674H73.1638C73.1638 60.0504 72.5132 60.7958 71.6432 60.9163L71.1607 57.4154ZM42.1157 55.4359C42.976 55.4443 43.6681 56.146 43.6681 57.0071H40.1417C40.1417 58.0831 41.0061 58.9587 42.0804 58.9698L42.1157 55.4359ZM10.6031 56.9234C9.34088 56.6942 8.20479 57.6688 8.1963 58.9257L11.7225 58.9494C11.7165 59.8579 10.8953 60.5675 9.97506 60.4006L10.6031 56.9234ZM32.9384 67.4102C32.7139 66.4728 33.4251 65.5721 34.3872 65.5754L34.3753 69.1093C35.6982 69.1135 36.6761 67.8752 36.3675 66.5858L32.9384 67.4102ZM32.6933 63.7382C32.5012 62.819 31.7089 62.1485 30.772 62.1131L30.6391 65.6442C29.9577 65.6186 29.3815 65.1313 29.2418 64.4622L32.6933 63.7382ZM27.5332 61.9848C26.5374 61.942 25.6537 62.6269 25.448 63.6085L28.8992 64.3343C28.7495 65.0486 28.1065 65.5466 27.3827 65.5154L27.5332 61.9848ZM75.0596 65.4945C75.8837 65.4889 76.5546 66.1566 76.5546 66.9824H73.0283C73.0283 68.1179 73.9507 69.0363 75.0838 69.0284L75.0596 65.4945ZM12.2886 60.8079C11.5786 60.6856 11.0499 60.0663 11.0541 59.3311L14.5804 59.3511C14.5861 58.344 13.8615 57.4926 12.8841 57.3247L12.2886 60.8079ZM31.8836 65.567C32.5789 65.5693 33.181 66.0553 33.3296 66.7383L29.8842 67.4911C30.0883 68.4295 30.9158 69.0981 31.872 69.1009L31.8836 65.567ZM71.5064 50.7308C70.5645 50.9842 69.6374 50.2732 69.6374 49.294H73.1638C73.1638 47.9474 71.8892 46.9695 70.5928 47.3178L71.5064 50.7308ZM10.96 52.5065C10.96 51.4812 11.9442 50.7373 12.9321 51.0297L11.9328 54.419C13.2112 54.7975 14.4863 53.835 14.4863 52.5065H10.96ZM56.8479 51.6928V67.0601H60.3743V51.6928H56.8479ZM79.5153 66.9662V47.1969H75.989V66.9662H79.5153ZM73.0283 59.0033V66.9824H76.5546V59.0033H73.0283ZM73.1638 67.0085V59.1674H69.6374V67.0085H73.1638ZM66.6767 49.9352V67.0224H70.203V49.9352H66.6767ZM73.1638 55.9911V49.294H69.6374V55.9911H73.1638ZM73.0283 48.0576V55.1253H76.5546V48.0576H73.0283ZM18.5798 60.2383L18.4106 60.2332L18.304 63.7652L18.4731 63.7703L18.5798 60.2383Z" fill="#E41C53"/>
<path fill-rule="evenodd" clip-rule="evenodd" d="M16.2279 52.9778C16.1104 53.3875 16.1346 53.5907 16.2926 53.3875C16.7886 52.7509 17.5502 50.2934 17.8556 49.4109C18.0214 48.9324 18.6633 47.4003 18.2887 47.8806C17.7521 48.5702 17.2375 50.2307 16.8718 51.2248C16.6045 51.9511 16.3453 52.5682 16.2279 52.9778ZM18.4202 62.0008C17.0844 61.9604 15.3836 61.9115 14.5211 61.7209C13.6585 61.5303 13.6342 61.1973 13.7716 60.4101C14.0494 58.8245 14.5892 56.8381 15.242 54.8266C15.5893 55.4413 16.1835 56.0569 16.8231 55.664C17.4941 55.252 17.9634 54.2658 18.5399 54.7959C19.2388 55.4376 19.8146 57.6551 21.2934 56.2401C21.5606 55.9844 21.6661 55.717 21.8928 55.3883C21.9431 55.3153 21.9993 55.2395 22.0563 55.1553C22.5176 56.3531 22.9185 57.6063 23.2956 59.29C23.6871 61.0406 23.6416 61.7865 21.5502 61.9929C20.7283 62.0738 19.7564 62.0413 18.4202 62.0008ZM46.1275 58.3907C46.0607 57.2003 47.2195 54.9275 48.9748 54.9163C50.3459 54.908 51.421 55.3757 52.0618 56.5963C52.3123 57.0739 52.4845 57.5691 52.5202 57.8736C52.5559 58.1787 52.4557 58.2935 51.7718 58.3581C51.0878 58.4232 49.8198 58.4376 48.8277 58.5018C47.085 58.6153 46.1622 59.0128 46.1275 58.3907ZM48.3336 54.1556C49.0277 54.2984 49.7511 53.958 51.0767 54.5969C52.0947 55.0879 51.5987 54.6015 53.7164 54.1412C54.0964 54.0589 54.2894 54.0589 54.2713 53.8431C54.1808 52.75 51.4525 50.5664 49.0356 52.6016C48.7688 52.8258 47.7434 54.0342 48.3336 54.1556ZM53.5229 57.9745C53.3944 57.676 53.2078 57.0948 52.986 56.6605C52.6167 55.9393 52.0144 55.5073 52.6817 55.1428C54.7775 53.9966 57.6594 56.7335 57.2942 58.6274C57.1861 59.1877 56.5374 58.5753 55.5037 58.3581C54.153 58.075 53.785 58.5795 53.5229 57.9745ZM79.5482 55.2381C82.8602 54.1045 85.8882 53.9798 89.4577 54.6318C94.8725 55.6203 91.7215 57.1222 91.4213 57.8067C91.0984 58.5446 93.4916 61.1597 90.9415 64.8884C88.0569 69.1081 81.245 68.3892 79.4457 63.6645C78.1015 60.1362 81.1128 58.0257 79.7649 57.3147C78.9381 56.8786 78.3952 56.8474 78.5664 55.8905C78.6063 55.6673 78.6295 55.5529 79.5482 55.2381Z" fill="white"/>
<path fill-rule="evenodd" clip-rule="evenodd" d="M84.9297 43.5213C84.4035 44.5565 83.6208 46.5756 83.1522 47.8748C82.684 49.1735 82.5299 49.7519 83.3577 50.0867C84.0054 50.348 88.6064 51.0027 88.959 50.1058C89.2782 49.2934 87.0423 43.1094 86.0141 42.5826C85.7255 42.4347 85.4559 42.4863 84.9297 43.5213ZM18.3572 63.0091C17.65 63.0012 17.682 63.0086 17.689 63.9409C17.694 64.6472 17.7252 65.945 17.7743 66.6592C17.8277 67.4315 17.8389 67.7426 19.0127 67.6561C19.5334 67.6175 19.4694 67.0047 19.4864 65.9217C19.538 62.7082 19.6585 63.024 18.3572 63.0091ZM12.8184 59.1055C11.8631 58.9423 10.9077 58.7754 9.96104 58.602C9.96104 62.8324 9.45306 64.4054 8.16228 64.3138C7.28445 64.252 6.80093 63.3932 6.55288 61.7983C6.30186 60.1838 6.26878 57.838 6.26878 54.8249C6.26878 51.6923 6.33629 49.3999 6.60457 47.9757C6.86974 46.5672 7.34009 46.0521 8.16228 46.4175C9.34546 46.9429 9.85766 48.4927 9.85766 51.6388C9.85766 51.7388 9.85766 51.8355 9.85766 51.9294C10.813 52.2359 11.7683 52.5297 12.7236 52.8101C12.7236 52.7064 12.7236 52.6064 12.7236 52.5065C12.7236 50.1244 12.405 48.1835 11.6995 46.6509C10.9766 45.0809 9.82574 43.8883 8.16228 43.0244C5.79741 41.7962 4.57296 42.8247 3.94506 45.0762C3.29929 47.3921 3.24805 50.8079 3.24805 54.0246C3.24805 57.1675 3.25815 60.5856 3.85896 63.2662C4.4457 65.8836 5.64921 67.6701 7.99872 67.6701C10.0126 67.6701 11.2102 66.7322 11.9147 65.1982C12.6043 63.6963 12.8184 61.5746 12.8184 59.1055ZM34.7361 67.3432C34.1079 64.7207 33.4765 62.0693 32.8599 59.3961C32.2374 56.6978 31.6207 53.9679 31.001 51.205C29.753 51.005 28.5051 50.8014 27.2658 50.5614C26.6203 53.2504 25.9697 55.9785 25.3378 58.7387C24.696 61.5434 24.0642 64.4008 23.4272 67.3032C24.4428 67.3065 25.467 67.3134 26.4911 67.3167C26.7322 66.1189 26.9732 64.9243 27.2227 63.74C28.4535 63.7935 29.6842 63.84 30.9235 63.887C31.1645 65.0411 31.4056 66.1924 31.655 67.3334C32.6792 67.3367 33.7033 67.3399 34.7361 67.3432ZM30.5104 61.2779C29.5378 61.2142 28.574 61.1543 27.6101 61.0845C27.8511 59.863 28.0997 58.6484 28.3416 57.4409C28.5815 56.2431 28.8322 55.0453 29.0817 53.8507C29.3141 55.102 29.5548 56.35 29.7875 57.5878C30.0194 58.8219 30.2694 60.0532 30.5104 61.2779ZM44.866 61.6383C43.9107 61.6346 42.9553 61.6313 42.0087 61.6248C42.0087 64.444 41.5008 65.5107 40.2099 65.5051C39.3322 65.5009 38.8492 64.9778 38.6005 63.9902C38.3502 62.9965 38.3165 61.5379 38.3165 59.6598C38.3165 57.7045 38.3771 56.2566 38.6435 55.3154C38.9106 54.3715 39.3922 53.9293 40.2099 53.9577C41.3974 53.9991 41.9054 54.9151 41.9054 57.0071C41.9054 57.0735 41.9054 57.1373 41.9054 57.2005C42.8607 57.2107 43.816 57.2172 44.7714 57.2242C44.7714 57.154 44.7714 57.0838 44.7714 57.0136C44.7714 55.3392 44.452 54.0516 43.7386 53.1802C43.0234 52.307 41.8787 51.8513 40.2099 51.7658C37.8595 51.6449 36.6186 52.6218 35.9842 54.1209C35.345 55.6312 35.287 57.6711 35.287 59.5798C35.287 61.4411 35.3021 63.4675 35.9067 65.0345C36.5069 66.5904 37.6968 67.6701 40.0463 67.6701C42.0603 67.6701 43.2646 67.0326 43.9623 65.9589C44.6586 64.8871 44.866 63.3764 44.866 61.6383ZM49.9934 65.1992C50.237 65.7878 50.7237 66.7285 51.0569 67.2339C51.39 67.7403 51.5691 67.8119 51.9199 67.4171C52.1941 67.1084 53.9717 64.6514 53.2989 64.0832C52.7416 63.6122 50.6778 63.7214 50.0254 64.1799C49.7498 64.3738 49.7498 64.6105 49.9934 65.1992ZM47.4243 63.3127L55.5506 63.2625C56.5649 63.2337 57.1417 63.1723 57.4419 62.1823C57.6595 61.4621 57.4776 60.3694 56.9473 59.7918C56.661 59.4794 56.2596 59.3148 54.8663 59.2213C53.4126 59.1237 47.595 58.9116 46.4541 59.5156C45.2315 60.162 45.848 62.5255 46.2391 63.0686C46.3324 63.1979 46.4109 63.2839 47.4243 63.3127ZM58.6116 51.4486C58.6116 54.0981 58.6116 56.7504 58.6116 59.3961C58.6116 62.0452 58.6116 64.6909 58.6116 67.3399C61.3918 67.3297 64.18 67.3199 66.9686 67.3102C66.9686 66.356 66.9686 65.4019 66.9686 64.4505C65.1613 64.5207 63.3541 64.584 61.5552 64.6374C61.5552 63.1797 61.5552 61.7183 61.5552 60.2568C63.1903 60.1434 64.8258 59.9997 66.461 59.85C66.461 58.9023 66.461 57.9547 66.461 57.0071C64.8258 57.214 63.1903 57.4074 61.5552 57.5641C61.5552 56.29 61.5552 55.0118 61.5552 53.734C63.2849 53.4974 65.0235 53.217 66.7621 52.9068C66.7621 51.9559 66.7621 51.005 66.7621 50.0541C64.0422 50.6112 61.3227 51.0818 58.6116 51.4486ZM64.4124 49.2502C65.0453 49.1181 65.5571 48.3839 65.5571 47.6083C65.5571 46.8327 65.0453 46.3225 64.4124 46.4743C63.78 46.6258 63.2678 47.3619 63.2678 48.1189C63.2678 48.8763 63.78 49.3818 64.4124 49.2502ZM60.9009 49.9007C61.5292 49.7989 62.0456 49.0963 62.0456 48.3491C62.0456 47.6018 61.5292 47.1034 60.9009 47.2215C60.2732 47.34 59.7563 48.0143 59.7563 48.7461C59.7563 49.4785 60.2732 50.0021 60.9009 49.9007ZM77.7527 67.2432C77.7527 63.8335 77.7527 60.4233 77.7527 57.0173C77.7527 53.6108 77.7527 50.2011 77.7527 46.7914C76.763 47.1717 75.7728 47.5181 74.7919 47.8585C74.7919 49.1065 74.7919 50.3578 74.7919 51.6053C74.7919 52.8533 74.7919 54.1046 74.7919 55.3522C73.6556 55.5893 72.5286 55.8027 71.4011 56.0162C71.4011 54.8351 71.4011 53.6541 71.4011 52.473C71.4011 51.2919 71.4011 50.1109 71.4011 48.9298C70.4109 49.1967 69.4212 49.4604 68.4404 49.7208C68.4404 52.6497 68.4404 55.5823 68.4404 58.5117C68.4404 61.4411 68.4404 64.3738 68.4404 67.3032C69.4212 67.2967 70.4109 67.2897 71.4011 67.2865C71.4011 65.932 71.4011 64.5775 71.4011 63.2262C71.4011 61.8717 71.4011 60.5172 71.4011 59.166C72.5286 59.0088 73.6556 58.8521 74.7919 58.6787C74.7919 60.1099 74.7919 61.5411 74.7919 62.9728C74.7919 64.4008 74.7919 65.832 74.7919 67.2632C75.7728 67.2567 76.763 67.2497 77.7527 67.2432ZM81.5013 52.1745C83.6352 51.5946 87.4329 51.5165 89.6712 51.9411C91.4725 52.2828 91.6868 53.17 89.6002 53.0951C88.5136 53.0561 86.7151 52.7966 85.1886 52.7776C83.4844 52.7552 80.6638 53.3351 80.5505 52.745C80.5181 52.5762 80.738 52.3819 81.5013 52.1745Z" fill="#FFEE00"/>
</g>
</g>
</g>
<defs>
<clipPath id="clip0_2_2586">
<rect width="96" height="80" fill="white"/>
</clipPath>
</defs>
</svg>
