<svg width="210" height="59" viewBox="0 0 210 59" fill="none" xmlns="http://www.w3.org/2000/svg">
<path fill-rule="evenodd" clip-rule="evenodd" d="M73.5 0.47546C69.012 1.59046 66.603 3.11746 63.182 7.01346C51.994 19.7565 61.012 39.5685 78 39.5685C93.917 39.5685 103.32 22.0755 94.537 8.80346C90.244 2.31646 80.93 -1.37054 73.5 0.47546ZM1.557 2.79146C0.318 4.56046 0 8.04046 0 19.8565C0 28.1765 0.455 35.5505 1.035 36.6345C1.818 38.0975 3.144 38.5685 6.476 38.5685C8.92 38.5685 11.228 38.0115 11.659 37.3185C12.086 36.6315 12.45 33.5935 12.468 30.5685C12.498 25.4535 12.675 25.0485 15 24.7885C21.414 24.0705 22 23.6765 22 20.0845C22 16.1715 19.984 14.5685 15.066 14.5685C13.112 14.5685 12 14.0635 12 13.1755C12 11.4995 14.152 10.5685 18.023 10.5685C19.595 10.5685 21.2 10.0535 21.589 9.42446C22.74 7.56246 22.231 2.33146 20.813 1.43146C20.091 0.97346 15.813 0.59246 11.307 0.58346C3.964 0.57046 2.952 0.79946 1.557 2.79146ZM27.2 1.76846C25.516 3.45246 25.516 35.6845 27.2 37.3685C28.779 38.9475 35.471 38.9125 36.789 37.3185C37.358 36.6315 37.975 34.7185 38.162 33.0685C38.484 30.2065 38.657 30.3585 41.906 36.3495C43.895 40.0185 47.923 45.0735 51.589 48.5025C59.592 55.9895 66.516 58.8165 77 58.8775C86.019 58.9295 90.709 57.6935 98 53.3405C104.103 49.6975 105.386 46.7575 102.342 43.3935C98.758 39.4335 97.58 39.4135 90.353 43.1935C83.945 46.5465 83.036 46.7505 76.356 46.3305C65.555 45.6525 58.033 40.4145 52.593 29.7825C50.985 26.6395 50.999 26.3845 52.929 23.9315C59.102 16.0845 54.692 4.43846 44.5 1.66746C39.138 0.20946 28.698 0.27046 27.2 1.76846ZM102.571 2.13946C101.272 3.43946 101 6.52046 101 19.9395C101 31.2285 101.365 36.5335 102.2 37.3685C103.793 38.9615 110.475 38.9055 111.818 37.2885C112.402 36.5845 113.02 33.5465 113.19 30.5385L113.5 25.0685L117 30.0015C122.711 38.0505 123.608 38.7145 128.305 38.3735L132.5 38.0685L132.774 20.7005C133.075 1.64446 132.797 0.56846 127.578 0.56846C123.148 0.56846 122 2.15246 122 8.26846C122 11.1835 121.605 13.5685 121.122 13.5685C120.639 13.5685 118.513 11.0555 116.397 7.98346C114.281 4.91146 111.781 1.98646 110.841 1.48346C108.224 0.0824597 104.319 0.39246 102.571 2.13946ZM139.015 1.53846C137.845 2.27846 137.453 5.50646 137.166 16.7725C136.965 24.6355 137.212 32.6435 137.714 34.5685L138.627 38.0685H149.064H159.5L159.829 34.6125C160.223 30.4675 158.175 28.5685 153.309 28.5685C150.667 28.5685 150 28.1655 150 26.5685C150 24.9575 150.667 24.5685 153.429 24.5685C159.465 24.5685 162.213 19.2325 157.777 16.1255C156.555 15.2695 154.272 14.5685 152.704 14.5685C148.302 14.5685 149.455 11.1695 154.004 10.7365C158.321 10.3265 160 9.00446 160 6.01746C160 1.72746 157.581 0.56746 148.679 0.58346C144.18 0.59246 139.832 1.02146 139.015 1.53846ZM165.124 1.91846C163.481 3.89846 162.493 24.8255 163.677 32.5685L164.518 38.0685L168.973 38.3865C173.956 38.7425 175.971 37.0995 176.039 32.6275C176.074 30.3045 176.315 30.4605 178.641 34.3185C181.151 38.4825 181.314 38.5685 186.633 38.5685C193.326 38.5685 194.162 37.1405 191.128 30.8945L188.96 26.4335L191.23 23.2505C195.963 16.6165 193.61 7.59746 185.981 3.13046C181.415 0.45646 167.031 -0.37954 165.124 1.91846ZM198.75 1.64846C197.19 2.55746 197 4.54846 197 20.0115C197 39.2885 196.726 38.5685 204.047 38.5685C209.771 38.5685 210.189 37.1125 209.818 18.4685C209.471 1.03146 209.313 0.58446 203.5 0.61446C201.85 0.62246 199.713 1.08746 198.75 1.64846ZM42.8 12.7685C44.43 14.3985 44.308 16.1185 42.429 17.9975C39.614 20.8125 38 19.9275 38 15.5685C38 12.3835 38.367 11.5685 39.8 11.5685C40.79 11.5685 42.14 12.1085 42.8 12.7685ZM83.75 15.1615C84.987 16.5465 86 18.8005 86 20.1695C86 23.6805 81.796 27.5685 78 27.5685C74.145 27.5685 70 23.6665 70 20.0375C70 18.4515 71.196 16.2185 73.025 14.3895C76.592 10.8225 80.098 11.0745 83.75 15.1615ZM180.965 13.5025C182.304 16.0045 182.288 16.1375 180.429 17.9975C177.614 20.8125 176 19.9275 176 15.5685C176 12.2595 176.339 11.5685 177.965 11.5685C179.045 11.5685 180.395 12.4385 180.965 13.5025Z" fill="#50B7D7"/>
</svg>
