<svg width="100" height="100" viewBox="0 0 100 100" fill="none" xmlns="http://www.w3.org/2000/svg">
<path d="M21.2879 32.6729C20.894 32.6729 20.5162 32.8293 20.2377 33.1078C19.9592 33.3864 19.8027 33.7641 19.8027 34.158V65.8412C19.8027 66.2351 19.9592 66.6128 20.2377 66.8913C20.5162 67.1698 20.894 67.3263 21.2879 67.3263C21.6818 67.3263 22.0595 67.1698 22.338 66.8913C22.6166 66.6128 22.773 66.2351 22.773 65.8412V34.158C22.773 33.7641 22.6166 33.3864 22.338 33.1078C22.0595 32.8293 21.6818 32.6729 21.2879 32.6729Z" fill="#EB6359"/>
<path d="M29.2078 32.6729C28.8139 32.6729 28.4362 32.8293 28.1576 33.1078C27.8791 33.3864 27.7227 33.7641 27.7227 34.158V65.8412C27.7227 66.2351 27.8791 66.6128 28.1576 66.8913C28.4362 67.1698 28.8139 67.3263 29.2078 67.3263C29.6017 67.3263 29.9794 67.1698 30.258 66.8913C30.5365 66.6128 30.693 66.2351 30.693 65.8412V34.158C30.693 33.7641 30.5365 33.3864 30.258 33.1078C29.9794 32.8293 29.6017 32.6729 29.2078 32.6729Z" fill="#EB6359"/>
<path d="M34.157 32.6738C33.7631 32.6738 33.3854 32.8303 33.1069 33.1088C32.8283 33.3873 32.6719 33.7651 32.6719 34.159V65.8421C32.6719 66.236 32.8283 66.6138 33.1069 66.8923C33.3854 67.1708 33.7631 67.3273 34.157 67.3273C34.5509 67.3273 34.9287 67.1708 35.2072 66.8923C35.4857 66.6138 35.6422 66.236 35.6422 65.8421V34.159C35.6422 33.7651 35.4857 33.3873 35.2072 33.1088C34.9287 32.8303 34.5509 32.6738 34.157 32.6738Z" fill="#EB6359"/>
<path d="M62.8719 32.6738C62.478 32.6738 62.1002 32.8303 61.8217 33.1088C61.5432 33.3873 61.3867 33.7651 61.3867 34.159V65.8421C61.3867 66.236 61.5432 66.6138 61.8217 66.8923C62.1002 67.1708 62.478 67.3273 62.8719 67.3273C63.2658 67.3273 63.6435 67.1708 63.922 66.8923C64.2005 66.6138 64.357 66.236 64.357 65.8421V34.159C64.357 33.7651 64.2005 33.3873 63.922 33.1088C63.6435 32.8303 63.2658 32.6738 62.8719 32.6738Z" fill="#EB6359"/>
<path d="M67.8211 32.6738C67.4272 32.6738 67.0494 32.8303 66.7709 33.1088C66.4924 33.3873 66.3359 33.7651 66.3359 34.159V65.8421C66.3359 66.236 66.4924 66.6138 66.7709 66.8923C67.0494 67.1708 67.4272 67.3273 67.8211 67.3273C68.215 67.3273 68.5927 67.1708 68.8712 66.8923C69.1498 66.6138 69.3062 66.236 69.3062 65.8421V34.159C69.3062 33.7651 69.1498 33.3873 68.8712 33.1088C68.5927 32.8303 68.215 32.6738 67.8211 32.6738Z" fill="#EB6359"/>
<path d="M45.0496 32.6729C44.6557 32.6729 44.278 32.8293 43.9994 33.1078C43.7209 33.3864 43.5645 33.7641 43.5645 34.158V65.8412C43.5645 66.2351 43.7209 66.6128 43.9994 66.8913C44.278 67.1698 44.6557 67.3263 45.0496 67.3263C45.4435 67.3263 45.8212 67.1698 46.0998 66.8913C46.3783 66.6128 46.5348 66.2351 46.5348 65.8412V34.158C46.5348 33.7641 46.3783 33.3864 46.0998 33.1078C45.8212 32.8293 45.4435 32.6729 45.0496 32.6729Z" fill="#EB6359"/>
<path d="M54.95 32.6738C54.5561 32.6738 54.1784 32.8303 53.8998 33.1088C53.6213 33.3873 53.4648 33.7651 53.4648 34.159V65.8421C53.4648 66.236 53.6213 66.6138 53.8998 66.8923C54.1784 67.1708 54.5561 67.3273 54.95 67.3273C55.3439 67.3273 55.7216 67.1708 56.0002 66.8923C56.2787 66.6138 56.4351 66.236 56.4351 65.8421V34.159C56.4351 33.7651 56.2787 33.3873 56.0002 33.1088C55.7216 32.8303 55.3439 32.6738 54.95 32.6738Z" fill="#EB6359"/>
<path d="M81.189 65.8412V34.158C81.189 33.7641 81.0326 33.3864 80.7541 33.1078C80.4755 32.8293 80.0978 32.6729 79.7039 32.6729C79.31 32.6729 78.9323 32.8293 78.6537 33.1078C78.3752 33.3864 78.2188 33.7641 78.2188 34.158V65.8412C78.2188 66.2351 78.3752 66.6128 78.6537 66.8913C78.9323 67.1698 79.31 67.3263 79.7039 67.3263C80.0978 67.3263 80.4755 67.1698 80.7541 66.8913C81.0326 66.6128 81.189 66.2351 81.189 65.8412Z" fill="#EB6359"/>
<path d="M10.3953 37.6242C10.7892 37.6242 11.1669 37.4677 11.4455 37.1892C11.724 36.9107 11.8805 36.533 11.8805 36.1391V27.7232H20.2963C20.6902 27.7232 21.0679 27.5668 21.3465 27.2882C21.625 27.0097 21.7814 26.632 21.7814 26.2381C21.7814 25.8442 21.625 25.4664 21.3465 25.1879C21.0679 24.9094 20.6902 24.7529 20.2963 24.7529H10.3953C10.0014 24.7529 9.62367 24.9094 9.34515 25.1879C9.06663 25.4664 8.91016 25.8442 8.91016 26.2381V36.1391C8.91016 36.533 9.06663 36.9107 9.34515 37.1892C9.62367 37.4677 10.0014 37.6242 10.3953 37.6242Z" fill="#EB6359"/>
<path d="M90.5932 24.7529H80.6922C80.2983 24.7529 79.9205 24.9094 79.642 25.1879C79.3635 25.4664 79.207 25.8442 79.207 26.2381C79.207 26.632 79.3635 27.0097 79.642 27.2882C79.9205 27.5668 80.2983 27.7232 80.6922 27.7232H89.108V36.1391C89.108 36.533 89.2645 36.9107 89.543 37.1892C89.8215 37.4677 90.1993 37.6242 90.5932 37.6242C90.9871 37.6242 91.3648 37.4677 91.6433 37.1892C91.9218 36.9107 92.0783 36.533 92.0783 36.1391V26.2381C92.0783 25.8442 91.9218 25.4664 91.6433 25.1879C91.3648 24.9094 90.9871 24.7529 90.5932 24.7529Z" fill="#EB6359"/>
<path d="M20.2963 73.2673H11.8805V65.8416C11.8805 65.4477 11.724 65.07 11.4455 64.7914C11.1669 64.5129 10.7892 64.3564 10.3953 64.3564C10.0014 64.3564 9.62367 64.5129 9.34515 64.7914C9.06663 65.07 8.91016 65.4477 8.91016 65.8416V74.7525C8.91016 75.1464 9.06663 75.5241 9.34515 75.8026C9.62367 76.0812 10.0014 76.2376 10.3953 76.2376H20.2963C20.6902 76.2376 21.0679 76.0812 21.3465 75.8026C21.625 75.5241 21.7814 75.1464 21.7814 74.7525C21.7814 74.3586 21.625 73.9808 21.3465 73.7023C21.0679 73.4238 20.6902 73.2673 20.2963 73.2673Z" fill="#EB6359"/>
<path d="M90.5932 64.3564C90.1993 64.3564 89.8215 64.5129 89.543 64.7914C89.2645 65.07 89.108 65.4477 89.108 65.8416V73.2673H80.6922C80.2983 73.2673 79.9205 73.4238 79.642 73.7023C79.3635 73.9808 79.207 74.3586 79.207 74.7525C79.207 75.1464 79.3635 75.5241 79.642 75.8026C79.9205 76.0812 80.2983 76.2376 80.6922 76.2376H90.5932C90.9871 76.2376 91.3648 76.0812 91.6433 75.8026C91.9218 75.5241 92.0783 75.1464 92.0783 74.7525V65.8416C92.0783 65.4477 91.9218 65.07 91.6433 64.7914C91.3648 64.5129 90.9871 64.3564 90.5932 64.3564Z" fill="#EB6359"/>
</svg>
