<svg width="100" height="100" viewBox="0 0 100 100" fill="none" xmlns="http://www.w3.org/2000/svg">
<path d="M79.7018 16.8909H60.3948V13.4256C60.3948 13.0317 60.2384 12.6539 59.9599 12.3754C59.6813 12.0969 59.3036 11.9404 58.9097 11.9404H41.0879C40.694 11.9404 40.3163 12.0969 40.0378 12.3754C39.7592 12.6539 39.6028 13.0317 39.6028 13.4256V16.8909H21.2859C20.892 16.8909 20.5143 17.0474 20.2358 17.3259C19.9573 17.6044 19.8008 17.9822 19.8008 18.3761V89.6632C19.8008 90.0571 19.9573 90.4348 20.2358 90.7134C20.5143 90.9919 20.892 91.1484 21.2859 91.1484H79.7018C80.0957 91.1484 80.4734 90.9919 80.7519 90.7134C81.0304 90.4348 81.1869 90.0571 81.1869 89.6632V18.3761C81.1869 17.9822 81.0304 17.6044 80.7519 17.3259C80.4734 17.0474 80.0957 16.8909 79.7018 16.8909ZM42.5731 14.9107H57.4245V20.8513H42.5731V14.9107ZM78.2166 88.1781H22.7711V19.8612H39.6028V22.3365C39.6028 22.7304 39.7592 23.1081 40.0378 23.3866C40.3163 23.6651 40.694 23.8216 41.0879 23.8216H58.9097C59.3036 23.8216 59.6813 23.6651 59.9599 23.3866C60.2384 23.1081 60.3948 22.7304 60.3948 22.3365V19.8612H78.2166V88.1781Z" fill="#EB6359"/>
<path d="M33.1681 39.6641H28.2176C27.8237 39.6641 27.4459 39.8205 27.1674 40.0991C26.8889 40.3776 26.7324 40.7553 26.7324 41.1492C26.7324 41.5431 26.8889 41.9209 27.1674 42.1994C27.4459 42.4779 27.8237 42.6344 28.2176 42.6344H33.1681C33.562 42.6344 33.9397 42.4779 34.2182 42.1994C34.4967 41.9209 34.6532 41.5431 34.6532 41.1492C34.6532 40.7553 34.4967 40.3776 34.2182 40.0991C33.9397 39.8205 33.562 39.6641 33.1681 39.6641Z" fill="#EB6359"/>
<path d="M40.0984 39.6641C39.7045 39.6641 39.3268 39.8205 39.0483 40.0991C38.7698 40.3776 38.6133 40.7553 38.6133 41.1492C38.6133 41.5431 38.7698 41.9209 39.0483 42.1994C39.3268 42.4779 39.7045 42.6344 40.0984 42.6344H72.7717C73.1656 42.6344 73.5433 42.4779 73.8219 42.1994C74.1004 41.9209 74.2568 41.5431 74.2568 41.1492C74.2568 40.7553 74.1004 40.3776 73.8219 40.0991C73.5433 39.8205 73.1656 39.6641 72.7717 39.6641H40.0984Z" fill="#EB6359"/>
<path d="M33.1681 52.5352H28.2176C27.8237 52.5352 27.4459 52.6916 27.1674 52.9701C26.8889 53.2487 26.7324 53.6264 26.7324 54.0203C26.7324 54.4142 26.8889 54.7919 27.1674 55.0705C27.4459 55.349 27.8237 55.5055 28.2176 55.5055H33.1681C33.562 55.5055 33.9397 55.349 34.2182 55.0705C34.4967 54.7919 34.6532 54.4142 34.6532 54.0203C34.6532 53.6264 34.4967 53.2487 34.2182 52.9701C33.9397 52.6916 33.562 52.5352 33.1681 52.5352Z" fill="#EB6359"/>
<path d="M72.7717 52.5352H40.0984C39.7045 52.5352 39.3268 52.6916 39.0483 52.9701C38.7698 53.2487 38.6133 53.6264 38.6133 54.0203C38.6133 54.4142 38.7698 54.7919 39.0483 55.0705C39.3268 55.349 39.7045 55.5055 40.0984 55.5055H72.7717C73.1656 55.5055 73.5433 55.349 73.8219 55.0705C74.1004 54.7919 74.2568 54.4142 74.2568 54.0203C74.2568 53.6264 74.1004 53.2487 73.8219 52.9701C73.5433 52.6916 73.1656 52.5352 72.7717 52.5352Z" fill="#EB6359"/>
<path d="M33.1681 65.4062H28.2176C27.8237 65.4062 27.4459 65.5627 27.1674 65.8412C26.8889 66.1198 26.7324 66.4975 26.7324 66.8914C26.7324 67.2853 26.8889 67.663 27.1674 67.9416C27.4459 68.2201 27.8237 68.3765 28.2176 68.3765H33.1681C33.562 68.3765 33.9397 68.2201 34.2182 67.9416C34.4967 67.663 34.6532 67.2853 34.6532 66.8914C34.6532 66.4975 34.4967 66.1198 34.2182 65.8412C33.9397 65.5627 33.562 65.4062 33.1681 65.4062Z" fill="#EB6359"/>
<path d="M72.7717 65.4062H40.0984C39.7045 65.4062 39.3268 65.5627 39.0483 65.8412C38.7698 66.1198 38.6133 66.4975 38.6133 66.8914C38.6133 67.2853 38.7698 67.663 39.0483 67.9416C39.3268 68.2201 39.7045 68.3765 40.0984 68.3765H72.7717C73.1656 68.3765 73.5433 68.2201 73.8219 67.9416C74.1004 67.663 74.2568 67.2853 74.2568 66.8914C74.2568 66.4975 74.1004 66.1198 73.8219 65.8412C73.5433 65.5627 73.1656 65.4062 72.7717 65.4062Z" fill="#EB6359"/>
</svg>
