<svg width="100" height="100" viewBox="0 0 100 100" fill="none" xmlns="http://www.w3.org/2000/svg">
<path d="M50.3451 56.9707C41.6797 56.9707 33.3691 60.4131 27.2417 66.5405C21.1142 72.6679 17.6719 80.9785 17.6719 89.644C17.6719 90.0379 17.8283 90.4156 18.1069 90.6941C18.3854 90.9726 18.7631 91.1291 19.157 91.1291H81.5333C81.9271 91.1291 82.3049 90.9726 82.5834 90.6941C82.8619 90.4156 83.0184 90.0379 83.0184 89.644C83.0184 80.9785 79.5761 72.6679 73.4486 66.5405C67.3212 60.4131 59.0106 56.9707 50.3451 56.9707ZM20.6719 88.1687C21.0403 80.5482 24.3269 73.3617 29.8504 68.0988C35.3739 62.8358 42.7108 59.9001 50.3402 59.9001C57.9696 59.9001 65.3064 62.8358 70.83 68.0988C76.3535 73.3617 79.6401 80.5482 80.0085 88.1687H20.6719Z" fill="#EB6359"/>
<path d="M49.8021 15.8223C46.0815 15.8223 42.4444 16.9256 39.3508 18.9926C36.2572 21.0597 33.846 23.9977 32.4222 27.4352C30.9984 30.8726 30.6258 34.655 31.3517 38.3042C32.0776 41.9533 33.8692 45.3053 36.5001 47.9362C39.131 50.567 42.483 52.3587 46.1321 53.0846C49.7813 53.8104 53.5637 53.4379 57.0011 52.0141C60.4385 50.5902 63.3766 48.1791 65.4436 45.0855C67.5107 41.9919 68.614 38.3548 68.614 34.6341C68.5957 29.6505 66.6079 24.8763 63.084 21.3523C59.56 17.8283 54.7857 15.8405 49.8021 15.8223ZM49.8021 50.545C46.669 50.545 43.6061 49.6159 41.001 47.8753C38.3959 46.1346 36.3654 43.6604 35.1664 40.7658C33.9674 37.8711 33.6537 34.6859 34.2649 31.6129C34.8762 28.5399 36.3849 25.7172 38.6004 23.5018C40.8159 21.2863 43.6386 19.7775 46.7116 19.1663C49.7846 18.555 52.9698 18.8687 55.8644 20.0677C58.7591 21.2668 61.2332 23.2972 62.9739 25.9023C64.7146 28.5075 65.6437 31.5703 65.6437 34.7035C65.6255 38.8993 63.9506 42.9181 60.9837 45.885C58.0167 48.8519 53.998 50.5268 49.8021 50.545Z" fill="#EB6359"/>
<path d="M25.267 44.604H27.2472C27.6376 44.5988 28.0103 44.44 28.2846 44.1621C28.5588 43.8841 28.7126 43.5093 28.7125 43.1189V25.2971C28.7231 25.195 28.7231 25.0922 28.7125 24.9902C30.6007 20.8849 33.6447 17.4192 37.4721 15.0172C41.2995 12.6153 45.7441 11.3813 50.262 11.4664C54.7798 11.5515 59.1748 12.952 62.9091 15.4964C66.6433 18.0408 69.5546 21.6187 71.2868 25.7921V43.1189C71.2755 43.2242 71.2755 43.3304 71.2868 43.4357C70.15 46.261 68.4678 48.8348 66.3363 51.01C66.1911 51.1466 66.0749 51.3111 65.9947 51.4937C65.9144 51.6762 65.8717 51.8731 65.8692 52.0724C65.8666 52.2718 65.9043 52.4697 65.9798 52.6542C66.0554 52.8387 66.1674 53.0062 66.309 53.1465C66.4507 53.2868 66.6192 53.3972 66.8044 53.471C66.9896 53.5448 67.1878 53.5806 67.3872 53.5762C67.5865 53.5718 67.783 53.5272 67.9647 53.4453C68.1465 53.3633 68.3099 53.2456 68.4452 53.0991C70.859 50.6638 72.7699 47.7773 74.069 44.604H74.7323C77.4896 44.604 80.1338 43.5087 82.0835 41.5591C84.0331 39.6095 85.1284 36.9652 85.1284 34.208C85.1284 31.4508 84.0331 28.8065 82.0835 26.8569C80.1338 24.9072 77.4896 23.8119 74.7323 23.8119H73.6531C71.5708 19.2345 68.215 15.3531 63.9865 12.6312C59.758 9.90928 54.8354 8.46191 49.8066 8.46191C44.7778 8.46191 39.8552 9.90928 35.6267 12.6312C31.3982 15.3531 28.0424 19.2345 25.9601 23.8119H25.2769C22.5197 23.8119 19.8754 24.9072 17.9258 26.8569C15.9762 28.8065 14.8809 31.4508 14.8809 34.208C14.8809 36.9652 15.9762 39.6095 17.9258 41.5591C19.8754 43.5087 22.5197 44.604 25.2769 44.604H25.267ZM82.1779 34.208C82.1753 36.1766 81.3921 38.0638 80 39.4559C78.608 40.8479 76.7208 41.6311 74.7521 41.6337H74.2571V26.7822H74.7323C75.7088 26.7809 76.676 26.972 77.5786 27.3444C78.4812 27.7169 79.3017 28.2635 79.993 28.9531C80.6844 29.6426 81.2332 30.4616 81.6081 31.3632C81.983 32.2649 82.1766 33.2315 82.1779 34.208ZM25.267 26.7822H25.7422V41.6337H25.267C23.2976 41.6337 21.4088 40.8514 20.0162 39.4588C18.6236 38.0662 17.8413 36.1774 17.8413 34.208C17.8413 32.2385 18.6236 30.3498 20.0162 28.9572C21.4088 27.5646 23.2976 26.7822 25.267 26.7822Z" fill="#EB6359"/>
</svg>
