<svg width="32" height="32" viewBox="0 0 32 32" fill="none" xmlns="http://www.w3.org/2000/svg">
<path d="M28 16C28 22.6274 22.6274 28 16 28C9.37258 28 4 22.6274 4 16C4 9.37258 9.37258 4 16 4C22.6274 4 28 9.37258 28 16Z" fill="#F9D0CD"/>
<path d="M16 11.1992V15.7316C16 15.8988 16.0836 16.0549 16.2226 16.1477L19.6 18.3992" stroke="#EB6359" stroke-width="1.5" stroke-linecap="round"/>
<path d="M4.5 16C4.5 15.7239 4.27614 15.5 4 15.5C3.72386 15.5 3.5 15.7239 3.5 16H4.5ZM6.06892 8.64289C6.10157 8.91709 6.35033 9.11291 6.62454 9.08025L11.093 8.54808C11.3672 8.51542 11.563 8.26666 11.5303 7.99246C11.4977 7.71826 11.2489 7.52244 10.9747 7.5551L7.00277 8.02814L6.52973 4.05621C6.49708 3.782 6.24832 3.58619 5.97411 3.61884C5.69991 3.6515 5.50409 3.90026 5.53675 4.17446L6.06892 8.64289ZM27.5 16C27.5 22.3513 22.3513 27.5 16 27.5V28.5C22.9036 28.5 28.5 22.9036 28.5 16H27.5ZM16 27.5C9.64873 27.5 4.5 22.3513 4.5 16H3.5C3.5 22.9036 9.09644 28.5 16 28.5V27.5ZM16 4.5C22.3513 4.5 27.5 9.64873 27.5 16H28.5C28.5 9.09644 22.9036 3.5 16 3.5V4.5ZM6.95829 8.89302C9.0648 6.21693 12.3317 4.5 16 4.5V3.5C12.0122 3.5 8.46047 5.3679 6.17253 8.2745L6.95829 8.89302Z" fill="#EB6359"/>
</svg>
