<svg width="32" height="32" viewBox="0 0 32 32" fill="none" xmlns="http://www.w3.org/2000/svg">
<path d="M9.37228 18.3275V16.0034C9.37228 15.6231 9.68059 15.3147 10.0609 15.3147C10.0609 15.3147 8.79809 13.6319 9.02797 12.4741C9.2596 11.3075 11.0939 10.2361 11.0939 10.2361C11.0939 10.2361 10.17 8.30453 10.6635 7.2233C11.1949 6.05879 13.5041 5.5878 13.5041 5.5878C13.5041 5.5878 14.0196 4.8397 14.0206 4.29661C14.0208 4.16449 13.9906 4.02726 13.9408 3.89098C13.6948 3.21678 13.8154 2.36073 14.5129 2.19173C15.2712 2.00801 16.1821 1.8942 16.8612 2.14464C18.1101 2.60523 19.4855 3.24105 19.2714 4.55485C19.1694 5.18086 18.4106 5.93212 18.4106 5.93212C18.4106 5.93212 20.3206 6.79208 20.6486 7.91194C20.9066 8.79247 20.3043 10.2361 20.3043 10.2361C20.3043 10.2361 21.6692 11.1909 21.9398 12.1298C22.302 13.3862 20.9069 15.3147 20.9069 15.3147C21.3347 15.3147 21.6816 15.6616 21.6816 16.0895V18.2414C21.6816 18.6693 21.3347 19.0161 20.9069 19.0161L19.6487 28.138C19.5805 28.6328 19.1576 29.0013 18.6581 29.0013H12.3884C11.8921 29.0013 11.4709 28.6374 11.399 28.1463L10.0609 19.0161C9.68059 19.0161 9.37228 18.7078 9.37228 18.3275Z" fill="#F9D1CE"/>
<path d="M10.7217 19.0797H20.5347M10.7217 15.4256H20.5347M11.6563 10.4119L12.2793 11.0067M13.8369 5.82305C13.8369 5.82305 14.2743 5.74218 14.5379 5.82305C14.7739 5.89549 15.083 6.16296 15.083 6.16296M18.2761 6.16296L17.0301 6.67283M19.9895 10.4119C19.9895 10.4119 18.8787 11.3647 18.0425 11.6866C17.2029 12.0098 15.784 12.0265 15.784 12.0265" stroke="#EB6359" stroke-linecap="round"/>
</svg>
