<svg width="32" height="32" viewBox="0 0 32 32" fill="none" xmlns="http://www.w3.org/2000/svg">
<path fill-rule="evenodd" clip-rule="evenodd" d="M14.7257 4.31862C13.4785 5.04689 12.9655 5.8603 12.9655 7.10996C12.9655 7.90533 13.2996 8.85973 13.6532 9.07447C13.9281 9.24149 13.7859 9.41461 13.3738 9.41461C12.8457 9.41461 12.0407 9.81643 11.5657 10.3172C11.1291 10.7775 8.25228 16.7582 8.22552 17.2611C8.2149 17.4609 8.03379 17.7643 7.80538 17.9653C7.51876 18.2171 7.38055 18.4896 7.32262 18.9164C7.2469 19.4739 7.20924 19.519 6.768 19.5822C6.14414 19.6715 6.11766 19.7926 6.05297 22.8457L6 25.3438L8.63586 25.3805C10.64 25.4085 11.3048 25.3761 11.4099 25.245C11.5852 25.0266 11.3366 19.9952 11.1385 19.7516C11.0628 19.6584 10.8221 19.5822 10.6039 19.5822C10.2517 19.5822 10.2069 19.5346 10.2069 19.1611C10.2069 18.8665 10.3172 18.6546 10.5742 18.456C10.7825 18.295 11.257 17.5239 11.6705 16.6741L12.3993 15.1762L12.4411 21.1108L12.4828 27.0454L12.9908 27.5164C13.6901 28.1645 14.257 28.1614 14.904 27.5056L15.3793 27.0239L15.4483 23.1481C15.5105 19.6485 15.5407 19.2579 15.7586 19.123C15.9345 19.014 16.0655 19.014 16.2414 19.123C16.4593 19.2579 16.4895 19.6485 16.5517 23.1481L16.6207 27.0239L17.096 27.5056C17.743 28.1614 18.3099 28.1645 19.0092 27.5164L19.5172 27.0454L19.5589 21.1108L19.6007 15.1762L20.3295 16.6741C20.743 17.5239 21.2175 18.295 21.4258 18.456C21.6828 18.6546 21.7931 18.8665 21.7931 19.1611C21.7931 19.5346 21.7483 19.5822 21.3961 19.5822C21.1779 19.5822 20.9372 19.6585 20.8615 19.7516C20.6634 19.9952 20.4148 25.0266 20.5901 25.245C20.6952 25.3761 21.36 25.4085 23.3641 25.3805L26 25.3438L25.947 22.8457C25.8823 19.7926 25.8559 19.6715 25.232 19.5822C24.7908 19.519 24.7531 19.4739 24.6774 18.9164C24.6194 18.4896 24.4812 18.2171 24.1946 17.9653C23.9662 17.7643 23.7851 17.4609 23.7745 17.2611C23.7477 16.7582 20.8709 10.7775 20.4343 10.3172C19.9593 9.81643 19.1543 9.41461 18.6262 9.41461C18.2141 9.41461 18.0719 9.24149 18.3468 9.07447C18.7004 8.85973 19.0345 7.90533 19.0345 7.10996C19.0345 5.84525 18.4902 5.00771 17.199 4.28555C16.4961 3.89254 15.431 3.90677 14.7257 4.31862ZM17.9939 8.12007C18.5106 7.0499 18.0585 5.63092 17.0509 5.16091C16.0651 4.7012 14.7615 4.98873 14.1775 5.79482C13.7684 6.35959 13.6873 7.45972 14.0061 8.12007C14.7698 9.70215 17.2302 9.70215 17.9939 8.12007ZM21.4236 13.9771C20.1601 11.3275 19.8764 10.8331 19.4586 10.5541C18.9804 10.2347 18.9101 10.228 16 10.228C12.0764 10.228 12.5055 9.93139 10.5764 13.9771C9.76414 15.6805 9.10055 17.2039 9.10152 17.3627C9.10441 17.7924 9.46138 18.028 9.88055 17.877C10.1574 17.7772 10.4494 17.287 11.3274 15.4474C11.9324 14.1798 12.5127 13.0581 12.6168 12.9547C12.721 12.8514 12.9041 12.8037 13.0237 12.8488C13.2179 12.922 13.2414 13.6622 13.2414 19.7224C13.2414 24.1447 13.2912 26.6054 13.3841 26.7762C13.4754 26.9438 13.6727 27.0384 13.931 27.0384C14.1894 27.0384 14.3866 26.9438 14.4779 26.7762C14.5663 26.6138 14.6207 25.103 14.6207 22.8071C14.6207 18.6918 14.6291 18.6503 15.5353 18.2781C15.9349 18.1141 16.0651 18.1141 16.4647 18.2781C17.3709 18.6503 17.3793 18.6918 17.3793 22.8071C17.3793 25.103 17.4337 26.6138 17.5221 26.7762C17.7148 27.1299 18.4232 27.1299 18.6159 26.7762C18.7088 26.6054 18.7586 24.1447 18.7586 19.7224C18.7586 13.6622 18.7821 12.922 18.9763 12.8488C19.0959 12.8037 19.279 12.8514 19.3832 12.9547C19.4873 13.0581 20.0676 14.1798 20.6726 15.4474C21.5506 17.287 21.8426 17.7772 22.1194 17.877C22.5386 18.028 22.8956 17.7924 22.8985 17.3627C22.8994 17.2039 22.2359 15.6805 21.4236 13.9771ZM8.68152 19.5822C9.2891 19.5822 9.44234 19.4409 9.32662 18.9877C9.28345 18.8183 9.1029 18.6148 8.92552 18.5353C8.44841 18.3215 8.13793 18.5498 8.13793 19.1145C8.13793 19.5686 8.15366 19.5822 8.68152 19.5822ZM23.3185 19.5822C23.8468 19.5822 23.8621 19.5689 23.8621 19.1124C23.8621 18.5536 23.5426 18.3225 23.0659 18.5365C22.7412 18.6824 22.5274 19.1886 22.6848 19.4389C22.7343 19.5176 23.0194 19.5822 23.3185 19.5822ZM10.5734 23.073C10.5243 22.2343 10.4837 21.2887 10.4834 20.9717L10.4828 20.3956H8.76703H7.05145L6.9789 20.9717C6.9389 21.2887 6.86786 22.2343 6.82083 23.073L6.73531 24.5982H8.69917H10.6629L10.5734 23.073ZM25.1792 23.073C25.1321 22.2343 25.0611 21.2887 25.0211 20.9717L24.9486 20.3956H23.233H21.5172L21.5166 20.9717C21.5163 21.2887 21.4757 22.2343 21.4266 23.073L21.3371 24.5982H23.3008H25.2647L25.1792 23.073Z" fill="#F9D1CE"/>
<path d="M19.4586 10.5541C19.8764 10.8331 20.1601 11.3275 21.4236 13.9771C22.2359 15.6805 22.8994 17.2039 22.8985 17.3627C22.8956 17.7924 22.5386 18.028 22.1194 17.877C21.8426 17.7772 21.5506 17.287 20.6726 15.4474C20.0676 14.1798 19.4873 13.0581 19.3832 12.9547C19.279 12.8514 19.0959 12.8037 18.9763 12.8488C18.7821 12.922 18.7586 13.6622 18.7586 19.7224C18.7586 24.1447 18.7088 26.6054 18.6159 26.7762C18.4232 27.1299 17.7148 27.1299 17.5221 26.7762C17.4337 26.6138 17.3793 25.103 17.3793 22.8071C17.3793 18.6918 17.3709 18.6503 16.4647 18.2781C16.0651 18.1141 15.9349 18.1141 15.5353 18.2781C14.6291 18.6503 14.6207 18.6918 14.6207 22.8071C14.6207 25.103 14.5663 26.6138 14.4779 26.7762C14.3866 26.9438 14.1894 27.0384 13.931 27.0384C13.6727 27.0384 13.4754 26.9438 13.3841 26.7762C13.2912 26.6054 13.2414 24.1447 13.2414 19.7224C13.2414 13.6622 13.2179 12.922 13.0237 12.8488C12.9041 12.8037 12.721 12.8514 12.6168 12.9547C12.5127 13.0581 11.9324 14.1798 11.3274 15.4474C10.4494 17.287 10.1574 17.7772 9.88055 17.877C9.46138 18.028 9.10441 17.7924 9.10152 17.3627C9.10055 17.2039 9.76414 15.6805 10.5764 13.9771C12.5055 9.93139 12.0764 10.228 16 10.228C18.9101 10.228 18.9804 10.2347 19.4586 10.5541Z" fill="#F9D1CE"/>
<path d="M17.0509 5.16091C18.0585 5.63092 18.5106 7.0499 17.9939 8.12007C17.2302 9.70215 14.7698 9.70215 14.0061 8.12007C13.6873 7.45972 13.7684 6.35959 14.1775 5.79482C14.7615 4.98873 16.0651 4.7012 17.0509 5.16091Z" fill="#F9D1CE"/>
<path d="M10.4834 20.9717C10.4837 21.2887 10.5243 22.2343 10.5734 23.073L10.6629 24.5982H8.69917H6.73531L6.82083 23.073C6.86786 22.2343 6.9389 21.2887 6.9789 20.9717L7.05145 20.3956H8.76703H10.4828L10.4834 20.9717Z" fill="#EB6359"/>
<path d="M25.0211 20.9717C25.0611 21.2887 25.1321 22.2343 25.1792 23.073L25.2647 24.5982H23.3008H21.3371L21.4266 23.073C21.4757 22.2343 21.5163 21.2887 21.5166 20.9717L21.5172 20.3956H23.233H24.9486L25.0211 20.9717Z" fill="#EB6359"/>
</svg>
