<svg width="32" height="32" viewBox="0 0 32 32" fill="none" xmlns="http://www.w3.org/2000/svg">
<path fill-rule="evenodd" clip-rule="evenodd" d="M8.99751 23.5196C9.17514 23.8516 9.325 24.1317 9.56724 25.3124L9.63078 25.624C10.2092 28.4664 10.5559 30.1704 13.8108 30.4274C15.3053 30.5452 16.5723 29.9358 16.6404 29.066C16.6741 28.6341 16.49 28.4355 16.2962 28.2264C16.1177 28.0338 15.931 27.8323 15.8986 27.4314C15.8341 26.6302 19.0307 26.5741 19.0547 27.253C19.062 27.449 19.0264 27.707 18.8013 27.931C17.262 29.4634 19.0054 30.5252 20.7462 30.4867C22.2452 30.4533 23.4784 29.7096 23.6075 28.8468C23.7858 27.6551 24.1916 26.9538 24.6089 26.2329C25.0156 25.5302 25.433 24.8089 25.6611 23.5963C25.7727 23.0024 26.077 22.6855 26.3673 22.3831C26.6924 22.0444 27 21.7239 27 21.0533C27 20.2443 26.7241 19.8492 26.492 19.5167C26.3314 19.2867 26.1917 19.0867 26.1787 18.8002C26.0589 16.1454 24.5665 11.1849 23.7361 9.39986C23.089 8.00769 22.1137 6.86826 21.1857 5.78391C20.8142 5.34983 20.4502 4.92458 20.1179 4.49547C19.9283 4.25056 19.9102 4.18262 19.9011 3.97868C19.8973 3.89108 19.8964 3.78717 19.8954 3.67364C19.8902 3.09124 19.8827 2.25534 19.4677 2.06581C18.7742 1.74928 17.8369 2.6533 17.3933 3.10368C17.315 3.1833 17.2544 3.24787 17.2058 3.29978C17.0947 3.41831 17.0454 3.47089 16.9864 3.4862C16.9394 3.49841 16.8863 3.48694 16.7907 3.46632C16.7684 3.4615 16.7437 3.45618 16.7163 3.45054C14.9133 3.08051 13.4551 3.42454 13.0422 3.52196C12.974 3.53807 12.9343 3.54743 12.9263 3.54571C12.722 3.50179 12.2266 3.10539 11.7882 2.75455L11.7882 2.75454L11.7882 2.75454C11.5011 2.52483 11.2385 2.31465 11.0979 2.23574C9.9273 1.5791 10.0809 3.9895 10.7278 4.97587C10.8894 5.22228 11.0086 5.31869 11.0796 5.37602C11.1171 5.40641 11.1411 5.42582 11.1507 5.45076C11.1675 5.49487 11.1391 5.55629 11.0605 5.72633L11.0303 5.79178C10.4231 7.11312 9.67006 9.33172 9.7392 10.7916C9.80813 12.2456 10.3896 12.9597 10.7199 13.3655C10.962 13.6628 11.0693 13.7946 10.7414 13.9306C10.1982 14.1558 9.60752 13.763 8.94795 13.3245C8.43757 12.9852 7.88598 12.6184 7.28329 12.4893C7.23484 12.479 7.18686 12.4699 7.13937 12.4622C7.17148 12.1433 7.2262 11.7099 7.26101 11.4342L7.27117 11.3537C7.27646 11.3116 7.281 11.2753 7.28477 11.2438C7.57609 11.2763 7.85519 11.2889 8.02789 11.2565C8.42978 11.1812 8.43579 10.8844 8.44691 10.3349C8.44795 10.2835 8.44904 10.2299 8.4505 10.174L8.51385 6.79425C8.48444 6.44462 8.32032 6.30393 7.99624 6.24474C7.67689 6.18645 7.51739 6.26591 7.34036 6.53288C6.83587 7.29368 5.7463 9.722 5.90469 10.6141C5.96211 10.9378 6.02332 11.0044 6.30193 11.0741C6.44883 11.1108 6.67927 11.1572 6.92976 11.1961C6.92396 11.2412 6.91791 11.2986 6.91013 11.3723C6.90437 11.4269 6.89767 11.4904 6.88942 11.5646C6.86274 11.8039 6.8199 12.1543 6.78576 12.4297C5.86402 12.4127 5.18545 12.9637 5.02418 14.0546C4.76262 15.8244 6.67897 16.7418 8.07282 17.4092L8.07284 17.4092L8.07285 17.4092L8.07286 17.4092C8.47302 17.6007 8.83011 17.7717 9.08024 17.9363C9.61681 18.2893 9.37597 18.7517 9.04089 19.3952C8.64887 20.1479 8.12787 21.1483 8.57181 22.5109C8.74939 23.0558 8.87957 23.2991 8.99751 23.5196Z" fill="#F9D1CE"/>
<mask id="path-2-inside-1_21_3490" fill="white">
<path fill-rule="evenodd" clip-rule="evenodd" d="M15.1237 10.1036C16.296 10.6444 16.2093 9.52722 16.4013 9.17258C16.4242 9.1304 16.4714 9.11907 16.5355 9.13078C16.3452 8.58463 15.9938 8.10208 15.7462 7.93342C14.9396 7.38379 13.8046 8.97562 13.8078 9.20271C13.8087 9.27165 13.8368 9.35673 13.9102 9.42564C14.0544 9.56117 14.4126 9.65432 14.7069 9.94034C14.7969 10.0278 14.8825 10.135 14.9671 10.2472L14.9691 10.2314C14.9923 10.0539 15.0247 10.0579 15.1237 10.1036ZM14.7163 8.75794C14.2227 9.25659 14.9738 10.223 15.6041 9.90073C16.359 9.51472 15.3047 8.16269 14.7163 8.75794Z"/>
<path fill-rule="evenodd" clip-rule="evenodd" d="M10.8869 9.65702C10.9116 9.61661 10.9363 9.57699 10.9606 9.53824C11.1235 9.27879 11.0268 9.50891 11.1886 9.77026C11.3518 10.034 11.5604 10.0233 11.3517 10.4745C11.3067 10.5719 11.2637 10.6593 11.223 10.7399C11.4924 10.4948 11.7128 10.0612 11.8739 9.85931C12.1809 9.47459 12.4819 9.12318 12.3729 8.45455C12.3057 8.04275 11.87 7.30676 11.42 7.97459C11.2596 8.21255 11.285 8.392 11.1887 8.74123C11.1435 8.90557 11.0098 9.27168 10.8869 9.65702ZM12.0975 8.74248C12.4805 9.12936 11.8977 9.87929 11.4086 9.62924C10.8228 9.32967 11.6409 8.28055 12.0975 8.74248Z"/>
<path d="M10.3788 12.112C10.5021 12.3734 10.7978 12.7151 10.8095 12.1096C10.8221 11.4565 10.982 11.2173 11.223 10.7399C11.0759 10.8738 10.9141 10.9514 10.7395 10.9041C10.5438 10.8512 10.7033 10.2327 10.8869 9.65702C10.4568 10.3595 9.99632 11.3016 10.3788 12.112Z"/>
<path d="M11.5052 12.6439C11.26 12.0622 10.7069 12.7775 11.4534 13.3245C12.6099 14.172 13.4839 12.4333 12.7691 12.451C12.3309 12.4619 12.8516 12.9378 11.6643 12.7515C11.5431 12.7325 11.5329 12.7098 11.5052 12.6439Z"/>
<path fill-rule="evenodd" clip-rule="evenodd" d="M12.0975 8.74248C12.4805 9.12936 11.8977 9.87929 11.4086 9.62924C10.8228 9.32967 11.6409 8.28055 12.0975 8.74248ZM12.0795 9.01634C12.1363 9.31803 11.6561 9.69365 11.4522 9.38078C11.1475 8.91326 11.9702 8.43468 12.0795 9.01634Z"/>
<path fill-rule="evenodd" clip-rule="evenodd" d="M12.0795 9.01634C12.1363 9.31803 11.6561 9.69365 11.4522 9.38078C11.1475 8.91326 11.9702 8.43468 12.0795 9.01634ZM11.7268 9.01898C11.5784 9.15869 11.8928 9.31191 11.8989 9.11067C11.901 9.04201 11.7977 8.9522 11.7268 9.01898ZM11.5939 9.23079C11.49 9.34999 11.74 9.3402 11.6553 9.22745C11.6411 9.20851 11.6116 9.21035 11.5939 9.23079Z"/>
<path d="M11.7268 9.01898C11.5784 9.15869 11.8928 9.31191 11.8989 9.11067C11.901 9.04201 11.7977 8.9522 11.7268 9.01898Z"/>
<path fill-rule="evenodd" clip-rule="evenodd" d="M14.7395 9.11095C14.6663 9.49965 15.2852 9.98377 15.5479 9.58056C15.9405 8.97805 14.8803 8.36129 14.7395 9.11095ZM14.9523 9.27171C14.8184 9.42539 15.1405 9.4127 15.0315 9.26744C15.0131 9.24298 14.9751 9.24541 14.9523 9.27171ZM15.1236 8.99879C14.9323 9.17884 15.3374 9.37626 15.3454 9.11693C15.348 9.02846 15.2148 8.91273 15.1236 8.99879Z"/>
<path fill-rule="evenodd" clip-rule="evenodd" d="M14.7163 8.75794C14.2227 9.25659 14.9738 10.223 15.6041 9.90073C16.359 9.51472 15.3047 8.16269 14.7163 8.75794ZM14.7395 9.11095C14.6663 9.49965 15.2852 9.98377 15.5479 9.58056C15.9405 8.97805 14.8803 8.36129 14.7395 9.11095Z"/>
<path d="M15.1236 8.99879C14.9323 9.17884 15.3374 9.37626 15.3454 9.11693C15.348 9.02846 15.2148 8.91273 15.1236 8.99879Z"/>
<path d="M14.9523 9.27171C14.8184 9.42539 15.1405 9.4127 15.0315 9.26744C15.0131 9.24298 14.9751 9.24541 14.9523 9.27171Z"/>
<path d="M11.3517 10.4745C11.5604 10.0233 11.3518 10.034 11.1886 9.77026C11.0268 9.50891 11.1235 9.27879 10.9606 9.53824C10.9363 9.57699 10.9116 9.61661 10.8869 9.65702C10.7033 10.2327 10.5438 10.8512 10.7395 10.9041C10.9141 10.9514 11.0759 10.8738 11.223 10.7399C11.2637 10.6593 11.3067 10.5719 11.3517 10.4745Z"/>
<path d="M16.4013 9.17258C16.2093 9.52722 16.296 10.6444 15.1237 10.1036C15.0247 10.0579 14.9923 10.0539 14.9691 10.2314L14.9671 10.2472C15.3257 10.7226 15.6656 11.2874 16.2401 10.8196C16.7589 10.3973 16.7429 9.72622 16.5355 9.13078C16.4714 9.11907 16.4242 9.1304 16.4013 9.17258Z"/>
<path d="M16.6479 12.7882C18.074 12.495 18.3294 10.6548 17.8396 10.0853C17.6661 9.88347 16.8706 9.19203 16.5355 9.13078C16.7429 9.72622 16.7589 10.3973 16.2401 10.8196C15.6656 11.2874 15.3257 10.7226 14.9671 10.2472C14.8262 11.3634 15.175 13.0909 16.6479 12.7882Z"/>
<path d="M11.5939 9.23079C11.49 9.34999 11.74 9.3402 11.6553 9.22745C11.6411 9.20851 11.6116 9.21035 11.5939 9.23079Z"/>
<path d="M6.30193 11.0741C6.68445 11.1698 7.63355 11.3304 8.02789 11.2565C8.46739 11.1742 8.43344 10.8269 8.4505 10.174L8.51385 6.79425C8.48444 6.44462 8.32032 6.30393 7.99624 6.24474C7.67689 6.18645 7.51739 6.26591 7.34036 6.53288C6.83587 7.29368 5.7463 9.722 5.90469 10.6141C5.96211 10.9378 6.02332 11.0044 6.30193 11.0741Z"/>
</mask>
<path fill-rule="evenodd" clip-rule="evenodd" d="M15.1237 10.1036C16.296 10.6444 16.2093 9.52722 16.4013 9.17258C16.4242 9.1304 16.4714 9.11907 16.5355 9.13078C16.3452 8.58463 15.9938 8.10208 15.7462 7.93342C14.9396 7.38379 13.8046 8.97562 13.8078 9.20271C13.8087 9.27165 13.8368 9.35673 13.9102 9.42564C14.0544 9.56117 14.4126 9.65432 14.7069 9.94034C14.7969 10.0278 14.8825 10.135 14.9671 10.2472L14.9691 10.2314C14.9923 10.0539 15.0247 10.0579 15.1237 10.1036ZM14.7163 8.75794C14.2227 9.25659 14.9738 10.223 15.6041 9.90073C16.359 9.51472 15.3047 8.16269 14.7163 8.75794Z" fill="#EB6359"/>
<path fill-rule="evenodd" clip-rule="evenodd" d="M10.8869 9.65702C10.9116 9.61661 10.9363 9.57699 10.9606 9.53824C11.1235 9.27879 11.0268 9.50891 11.1886 9.77026C11.3518 10.034 11.5604 10.0233 11.3517 10.4745C11.3067 10.5719 11.2637 10.6593 11.223 10.7399C11.4924 10.4948 11.7128 10.0612 11.8739 9.85931C12.1809 9.47459 12.4819 9.12318 12.3729 8.45455C12.3057 8.04275 11.87 7.30676 11.42 7.97459C11.2596 8.21255 11.285 8.392 11.1887 8.74123C11.1435 8.90557 11.0098 9.27168 10.8869 9.65702ZM12.0975 8.74248C12.4805 9.12936 11.8977 9.87929 11.4086 9.62924C10.8228 9.32967 11.6409 8.28055 12.0975 8.74248Z" fill="#EB6359"/>
<path d="M10.3788 12.112C10.5021 12.3734 10.7978 12.7151 10.8095 12.1096C10.8221 11.4565 10.982 11.2173 11.223 10.7399C11.0759 10.8738 10.9141 10.9514 10.7395 10.9041C10.5438 10.8512 10.7033 10.2327 10.8869 9.65702C10.4568 10.3595 9.99632 11.3016 10.3788 12.112Z" fill="#EB6359"/>
<path d="M11.5052 12.6439C11.26 12.0622 10.7069 12.7775 11.4534 13.3245C12.6099 14.172 13.4839 12.4333 12.7691 12.451C12.3309 12.4619 12.8516 12.9378 11.6643 12.7515C11.5431 12.7325 11.5329 12.7098 11.5052 12.6439Z" fill="#EB6359"/>
<path fill-rule="evenodd" clip-rule="evenodd" d="M12.0975 8.74248C12.4805 9.12936 11.8977 9.87929 11.4086 9.62924C10.8228 9.32967 11.6409 8.28055 12.0975 8.74248ZM12.0795 9.01634C12.1363 9.31803 11.6561 9.69365 11.4522 9.38078C11.1475 8.91326 11.9702 8.43468 12.0795 9.01634Z" fill="#EB6359"/>
<path fill-rule="evenodd" clip-rule="evenodd" d="M12.0795 9.01634C12.1363 9.31803 11.6561 9.69365 11.4522 9.38078C11.1475 8.91326 11.9702 8.43468 12.0795 9.01634ZM11.7268 9.01898C11.5784 9.15869 11.8928 9.31191 11.8989 9.11067C11.901 9.04201 11.7977 8.9522 11.7268 9.01898ZM11.5939 9.23079C11.49 9.34999 11.74 9.3402 11.6553 9.22745C11.6411 9.20851 11.6116 9.21035 11.5939 9.23079Z" fill="#EB6359"/>
<path d="M11.7268 9.01898C11.5784 9.15869 11.8928 9.31191 11.8989 9.11067C11.901 9.04201 11.7977 8.9522 11.7268 9.01898Z" fill="#EB6359"/>
<path fill-rule="evenodd" clip-rule="evenodd" d="M14.7395 9.11095C14.6663 9.49965 15.2852 9.98377 15.5479 9.58056C15.9405 8.97805 14.8803 8.36129 14.7395 9.11095ZM14.9523 9.27171C14.8184 9.42539 15.1405 9.4127 15.0315 9.26744C15.0131 9.24298 14.9751 9.24541 14.9523 9.27171ZM15.1236 8.99879C14.9323 9.17884 15.3374 9.37626 15.3454 9.11693C15.348 9.02846 15.2148 8.91273 15.1236 8.99879Z" fill="#EB6359"/>
<path fill-rule="evenodd" clip-rule="evenodd" d="M14.7163 8.75794C14.2227 9.25659 14.9738 10.223 15.6041 9.90073C16.359 9.51472 15.3047 8.16269 14.7163 8.75794ZM14.7395 9.11095C14.6663 9.49965 15.2852 9.98377 15.5479 9.58056C15.9405 8.97805 14.8803 8.36129 14.7395 9.11095Z" fill="#EB6359"/>
<path d="M15.1236 8.99879C14.9323 9.17884 15.3374 9.37626 15.3454 9.11693C15.348 9.02846 15.2148 8.91273 15.1236 8.99879Z" fill="#EB6359"/>
<path d="M14.9523 9.27171C14.8184 9.42539 15.1405 9.4127 15.0315 9.26744C15.0131 9.24298 14.9751 9.24541 14.9523 9.27171Z" fill="#EB6359"/>
<path d="M11.3517 10.4745C11.5604 10.0233 11.3518 10.034 11.1886 9.77026C11.0268 9.50891 11.1235 9.27879 10.9606 9.53824C10.9363 9.57699 10.9116 9.61661 10.8869 9.65702C10.7033 10.2327 10.5438 10.8512 10.7395 10.9041C10.9141 10.9514 11.0759 10.8738 11.223 10.7399C11.2637 10.6593 11.3067 10.5719 11.3517 10.4745Z" fill="#EB6359"/>
<path d="M16.4013 9.17258C16.2093 9.52722 16.296 10.6444 15.1237 10.1036C15.0247 10.0579 14.9923 10.0539 14.9691 10.2314L14.9671 10.2472C15.3257 10.7226 15.6656 11.2874 16.2401 10.8196C16.7589 10.3973 16.7429 9.72622 16.5355 9.13078C16.4714 9.11907 16.4242 9.1304 16.4013 9.17258Z" fill="#EB6359"/>
<path d="M16.6479 12.7882C18.074 12.495 18.3294 10.6548 17.8396 10.0853C17.6661 9.88347 16.8706 9.19203 16.5355 9.13078C16.7429 9.72622 16.7589 10.3973 16.2401 10.8196C15.6656 11.2874 15.3257 10.7226 14.9671 10.2472C14.8262 11.3634 15.175 13.0909 16.6479 12.7882Z" fill="#EB6359"/>
<path d="M11.5939 9.23079C11.49 9.34999 11.74 9.3402 11.6553 9.22745C11.6411 9.20851 11.6116 9.21035 11.5939 9.23079Z" fill="#EB6359"/>
<path d="M6.30193 11.0741C6.68445 11.1698 7.63355 11.3304 8.02789 11.2565C8.46739 11.1742 8.43344 10.8269 8.4505 10.174L8.51385 6.79425C8.48444 6.44462 8.32032 6.30393 7.99624 6.24474C7.67689 6.18645 7.51739 6.26591 7.34036 6.53288C6.83587 7.29368 5.7463 9.722 5.90469 10.6141C5.96211 10.9378 6.02332 11.0044 6.30193 11.0741Z" fill="#EB6359"/>
<path d="M9.56724 25.3124L10.0571 25.2121L10.057 25.2119L9.56724 25.3124ZM8.57181 22.5109L8.09641 22.6658L8.09642 22.6658L8.57181 22.5109ZM9.08024 17.9363L8.80539 18.354L8.80545 18.354L9.08024 17.9363ZM5.51881 14.1277C5.55918 13.8545 5.37045 13.6003 5.09728 13.5599C4.8241 13.5196 4.56992 13.7083 4.52955 13.9815L5.51881 14.1277ZM10.5498 13.4688C10.2948 13.5746 10.1738 13.8671 10.2796 14.1222C10.3854 14.3773 10.6779 14.4983 10.933 14.3925L10.5498 13.4688ZM9.7392 10.7916L9.23976 10.8153L9.23976 10.8153L9.7392 10.7916ZM11.0303 5.79178L10.576 5.58292L10.576 5.583L11.0303 5.79178ZM10.7278 4.97587L11.1459 4.70171L11.1459 4.70165L10.7278 4.97587ZM11.0979 2.23574L11.3427 1.79975L11.3426 1.79966L11.0979 2.23574ZM12.9263 3.54571L13.032 3.05701L13.0314 3.05688L12.9263 3.54571ZM16.7163 3.45054L16.8169 2.96077L16.8168 2.96075L16.7163 3.45054ZM17.3933 3.10368L17.0371 2.75282L17.037 2.75291L17.3933 3.10368ZM19.4677 2.06581L19.6755 1.611L19.6753 1.61094L19.4677 2.06581ZM19.9011 3.97868L19.4016 4.00059L19.4016 4.00086L19.9011 3.97868ZM20.1179 4.49547L19.7224 4.80148L19.7225 4.80164L20.1179 4.49547ZM23.7361 9.39986L23.2827 9.61062L23.2828 9.61074L23.7361 9.39986ZM26.1787 18.8002L25.6792 18.8227L25.6792 18.8228L26.1787 18.8002ZM25.6611 23.5963L26.1525 23.6887L26.1525 23.6887L25.6611 23.5963ZM23.6075 28.8468L23.113 28.7728L23.113 28.7728L23.6075 28.8468ZM20.7462 30.4867L20.7573 30.9866L20.7574 30.9866L20.7462 30.4867ZM18.8013 27.931L18.4487 27.5765L18.4486 27.5766L18.8013 27.931ZM19.0547 27.253L18.555 27.2706L18.5551 27.2714L19.0547 27.253ZM15.8986 27.4314L15.4002 27.4716L15.4002 27.4717L15.8986 27.4314ZM16.6404 29.066L17.1389 29.105L17.1389 29.1049L16.6404 29.066ZM13.8108 30.4274L13.7715 30.9258L13.7716 30.9258L13.8108 30.4274ZM10.4205 12.3965L10.7848 12.054L10.7787 12.0475L10.7723 12.0412L10.4205 12.3965ZM9.97095 9.69372L9.47616 9.62172L9.47614 9.62185L9.97095 9.69372ZM10.7464 6.98318L11.2115 7.1667L11.2115 7.16662L10.7464 6.98318ZM12.3789 4.06483L12.6319 4.49612L12.6319 4.49609L12.3789 4.06483ZM16.8777 3.79722L17.247 3.46021L17.2469 3.46007L16.8777 3.79722ZM18.4308 5.373L18.1193 4.9819L18.1193 4.98192L18.4308 5.373ZM19.5886 5.81304L20.0277 5.57384L20.0277 5.57382L19.5886 5.81304ZM20.5609 8.7594L21.0583 8.70768L21.0582 8.70756L20.5609 8.7594ZM19.9736 10.59L20.4659 10.6772L20.4659 10.6772L19.9736 10.59ZM18.5633 12.7681L18.4287 13.2497L18.4289 13.2497L18.5633 12.7681ZM17.9963 13.397L18.288 13.8031L18.2881 13.803L17.9963 13.397ZM16.2785 13.1558C16.0025 13.1652 15.7864 13.3965 15.7958 13.6725C15.8052 13.9485 16.0366 14.1646 16.3126 14.1552L16.2785 13.1558ZM12.913 14.2601L12.8321 13.7666L12.8247 13.7679L12.8174 13.7693L12.913 14.2601ZM10.6327 12.8454L11.1073 12.6878L11.1072 12.6877L10.6327 12.8454ZM10.4964 21.4403C10.4634 21.1661 10.2144 20.9706 9.94025 21.0036C9.66609 21.0366 9.47059 21.2856 9.50358 21.5597L10.4964 21.4403ZM13.7449 25.4905L13.8856 25.0107L13.8856 25.0107L13.7449 25.4905ZM17.6143 25.722L17.5062 25.2338L17.5062 25.2338L17.6143 25.722ZM24.1292 20.7314L23.6932 20.4866L23.6931 20.4867L24.1292 20.7314ZM24.0522 18.5155L24.2529 18.0575L24.2529 18.0575L24.0522 18.5155ZM22.0758 21.0226L21.6971 20.6962L21.6971 20.6962L22.0758 21.0226ZM19.3848 22.7231L19.4658 23.2165L19.4659 23.2164L19.3848 22.7231ZM18.8097 18.5839L19.128 18.9695L19.1281 18.9693L18.8097 18.5839ZM19.635 17.0035L19.1992 17.2486L19.1992 17.2486L19.635 17.0035ZM17.5591 15.2087C17.3044 15.102 17.0115 15.2219 16.9047 15.4766C16.798 15.7313 16.918 16.0242 17.1726 16.131L17.5591 15.2087ZM16.4013 9.17258L15.9617 8.93434L15.9616 8.93451L16.4013 9.17258ZM15.1237 10.1036L15.3331 9.64959L15.3331 9.64957L15.1237 10.1036ZM10.9606 9.53824L11.3839 9.80439L11.3841 9.80406L10.9606 9.53824ZM11.3517 10.4745L11.8056 10.6844L11.8056 10.6844L11.3517 10.4745ZM11.1886 9.77026L11.6137 9.50715L11.6137 9.50711L11.1886 9.77026ZM10.7395 10.9041L10.87 10.4215L10.87 10.4215L10.7395 10.9041ZM14.9523 9.27171L15.3293 9.60014L15.3298 9.59958L14.9523 9.27171ZM15.0315 9.26744L15.4313 8.96721L15.431 8.9668L15.0315 9.26744ZM11.7268 9.01898L12.0696 9.38301L12.0698 9.38279L11.7268 9.01898ZM11.8989 9.11067L11.3992 9.09535L11.3992 9.09538L11.8989 9.11067ZM11.5939 9.23079L11.9709 9.55926L11.9716 9.55842L11.5939 9.23079ZM11.6553 9.22745L12.0552 8.92721L12.0545 8.92632L11.6553 9.22745ZM15.1236 8.99879L15.4663 9.36282L15.4666 9.36259L15.1236 8.99879ZM15.3454 9.11693L15.8451 9.13224L15.8451 9.13202L15.3454 9.11693ZM14.7395 9.11095L15.2309 9.20355L15.2309 9.20324L14.7395 9.11095ZM15.5479 9.58056L15.9668 9.85353L15.9669 9.85352L15.5479 9.58056ZM12.0795 9.01634L11.5881 9.10866L11.5881 9.10884L12.0795 9.01634ZM11.4522 9.38078L11.0333 9.65375L11.0333 9.65376L11.4522 9.38078ZM12.0975 8.74248L11.7418 9.09395L11.7421 9.09425L12.0975 8.74248ZM11.4086 9.62924L11.1809 10.0744L11.181 10.0744L11.4086 9.62924ZM14.7163 8.75794L15.0717 9.1097L15.072 9.10942L14.7163 8.75794ZM15.6041 9.90073L15.8317 10.3459L15.8317 10.3459L15.6041 9.90073ZM16.2401 10.8196L15.9244 10.4318L15.9244 10.4319L16.2401 10.8196ZM14.9671 10.2472L14.4711 10.1845L14.4456 10.3861L14.5679 10.5482L14.9671 10.2472ZM16.5355 9.13078L17.0076 8.96627L16.9118 8.69128L16.6254 8.63893L16.5355 9.13078ZM10.8869 9.65702L10.4604 9.39597L10.4289 9.44752L10.4105 9.5051L10.8869 9.65702ZM11.223 10.7399L11.5595 11.1097L11.6278 11.0476L11.6693 10.9652L11.223 10.7399ZM14.4231 14.2601L14.2414 13.7943L14.4231 14.2601ZM11.1886 14L10.7704 14.2742L11.1886 14ZM15.3454 13.2441L15.7644 13.5168L15.0477 12.8424L15.3454 13.2441ZM10.057 25.2119C9.85143 24.2097 9.70296 23.8025 9.53198 23.4625C9.3779 23.156 9.25469 22.9927 9.04721 22.356L8.09642 22.6658C8.33398 23.3948 8.50695 23.6499 8.63856 23.9117C8.75326 24.1398 8.87999 24.4505 9.07744 25.4129L10.057 25.2119ZM9.04722 22.356C8.70015 21.2908 9.03761 20.4952 9.39873 19.7914C9.48585 19.6216 9.58622 19.4346 9.66511 19.2694C9.74504 19.1021 9.8239 18.9154 9.86505 18.7238C9.90744 18.5264 9.9156 18.2973 9.82389 18.0653C9.73177 17.8323 9.56202 17.6548 9.35503 17.5186L8.80545 18.354C8.8481 18.3821 8.87085 18.4038 8.88218 18.4167C8.88774 18.423 8.8907 18.4273 8.89211 18.4296C8.89348 18.4318 8.89388 18.4328 8.89392 18.4329C8.89397 18.4331 8.89417 18.4335 8.89443 18.4349C8.89472 18.4363 8.89526 18.4395 8.89547 18.4451C8.8959 18.4568 8.89493 18.4785 8.88735 18.5138C8.87109 18.5895 8.83267 18.692 8.76273 18.8385C8.69175 18.9871 8.60967 19.1387 8.509 19.3349C8.11897 20.095 7.62006 21.2038 8.09641 22.6658L9.04722 22.356ZM9.35509 17.5186C9.03876 17.3105 8.58215 17.0993 8.14254 16.8881C7.68353 16.6676 7.20584 16.431 6.77732 16.1533C5.90163 15.5859 5.39577 14.9602 5.51881 14.1277L4.52955 13.9815C4.31594 15.4268 5.2774 16.373 6.23355 16.9925C6.72095 17.3083 7.25031 17.5689 7.70954 17.7895C8.18818 18.0194 8.56101 18.1932 8.80539 18.354L9.35509 17.5186ZM10.933 14.3925C11.0476 14.3449 11.2288 14.2573 11.3445 14.0801C11.4953 13.8491 11.4526 13.6117 11.3882 13.4616C11.3344 13.3362 11.247 13.2237 11.1884 13.1498C11.1094 13.0502 11.0571 12.9902 10.9712 12.8792C10.6838 12.5079 10.2923 11.8995 10.2386 10.7679L9.23976 10.8153C9.30556 12.2032 9.80281 13.0034 10.1805 13.4913C10.2609 13.5952 10.3608 13.7156 10.4047 13.771C10.4689 13.852 10.4748 13.8688 10.4692 13.8559C10.4531 13.8183 10.4137 13.6766 10.5072 13.5334C10.5656 13.4439 10.6291 13.4359 10.5498 13.4688L10.933 14.3925ZM10.2386 10.768C10.2079 10.1188 10.3616 9.26078 10.6122 8.37597C10.8602 7.50016 11.1911 6.63939 11.4846 6.00056L10.576 5.583C10.2623 6.26551 9.91307 7.17471 9.65005 8.1035C9.38957 9.0233 9.20136 10.0045 9.23976 10.8153L10.2386 10.768ZM11.4846 6.00064C11.5335 5.89436 11.5963 5.76534 11.6253 5.6701C11.6428 5.61247 11.6701 5.50253 11.6456 5.37095C11.6183 5.22483 11.5419 5.12674 11.4887 5.07155C11.3445 4.92201 11.3239 4.9731 11.1459 4.70171L10.3097 5.25003C10.4335 5.43893 10.5445 5.56565 10.6419 5.65793C10.6896 5.70323 10.7303 5.73657 10.7576 5.75872C10.7957 5.78958 10.7824 5.77971 10.7689 5.76577C10.7431 5.73895 10.6837 5.66778 10.6626 5.55456C10.6441 5.45586 10.6668 5.38481 10.6684 5.37945C10.6705 5.37272 10.6686 5.38046 10.6496 5.42281C10.6316 5.46313 10.6096 5.50983 10.576 5.58292L11.4846 6.00064ZM11.1459 4.70165C10.8902 4.31178 10.7073 3.57067 10.7308 3.01068C10.7364 2.87764 10.7533 2.77137 10.7759 2.69371C10.7995 2.61277 10.8217 2.58838 10.8196 2.59063C10.8076 2.60341 10.7756 2.62241 10.7428 2.62395C10.7251 2.62478 10.7568 2.61766 10.8533 2.67182L11.3426 1.79966C11.1464 1.68966 10.9269 1.61423 10.696 1.62505C10.45 1.63657 10.2431 1.74386 10.091 1.90569C9.8213 2.19255 9.74634 2.62127 9.73173 2.96867C9.70114 3.69632 9.91849 4.65359 10.3097 5.25008L11.1459 4.70165ZM10.8532 2.67174C10.9028 2.6996 11.0101 2.77691 11.1778 2.90812C11.3398 3.03483 11.5145 3.1768 11.708 3.33016C11.8942 3.47765 12.0894 3.62891 12.263 3.74926C12.3496 3.80938 12.4379 3.86671 12.5218 3.91347C12.5969 3.95534 12.7043 4.00941 12.8213 4.03455L13.0314 3.05688C13.0638 3.06385 13.0617 3.06959 13.0087 3.04C12.9644 3.01531 12.9057 2.97808 12.8329 2.92756C12.6874 2.82664 12.5133 2.69234 12.329 2.54635C12.1522 2.40623 11.9554 2.2468 11.7941 2.12056C11.6385 1.99881 11.4707 1.8716 11.3427 1.79975L10.8532 2.67174ZM12.8206 4.03442C12.8855 4.04844 12.9383 4.04602 12.9525 4.04538C12.9747 4.04439 12.9928 4.04217 13.0033 4.04075C13.0246 4.03787 13.0436 4.03415 13.055 4.03181C13.0791 4.0269 13.1078 4.0202 13.1335 4.01415C13.1894 4.00102 13.261 3.98384 13.3527 3.96395C13.5348 3.92443 13.7934 3.87487 14.1124 3.83759C14.7517 3.76289 15.6298 3.73798 16.6158 3.94033L16.8168 2.96075C15.7017 2.73189 14.7128 2.76062 13.9964 2.84435C13.6376 2.88627 13.3461 2.94212 13.1407 2.98668C13.0386 3.00884 12.957 3.02837 12.9046 3.04069C12.8763 3.04736 12.8621 3.05056 12.8551 3.052C12.851 3.05284 12.8574 3.05139 12.869 3.04982C12.8747 3.04904 12.8888 3.04724 12.9077 3.04639C12.9186 3.0459 12.9689 3.04337 13.032 3.05701L12.8206 4.03442ZM16.6157 3.94031C16.6698 3.95142 16.7791 3.97724 16.8546 3.98589C16.9742 3.9996 17.1229 3.9913 17.2765 3.90238C17.3847 3.83972 17.4706 3.74749 17.5173 3.69832C17.581 3.6313 17.6451 3.56067 17.7497 3.45444L17.037 2.75291C16.9249 2.86682 16.8406 2.95876 16.7924 3.00949C16.7657 3.03753 16.7524 3.05065 16.7453 3.05712C16.7382 3.06363 16.7498 3.05178 16.7754 3.03694C16.8062 3.01916 16.8465 3.00299 16.893 2.99548C16.9349 2.98869 16.9642 2.99191 16.9684 2.99239C16.9703 2.9926 16.9634 2.99184 16.9328 2.9854C16.9125 2.98114 16.8594 2.96949 16.8169 2.96077L16.6157 3.94031ZM17.7496 3.45454C17.9702 3.23057 18.2819 2.92746 18.6078 2.71737C18.9649 2.48712 19.1665 2.47794 19.2602 2.52068L19.6753 1.61094C19.0754 1.33715 18.4617 1.62172 18.0658 1.87693C17.6388 2.15231 17.2601 2.5264 17.0371 2.75282L17.7496 3.45454ZM19.26 2.52063C19.2257 2.50497 19.2442 2.49202 19.2802 2.57803C19.3158 2.66296 19.3454 2.79113 19.3648 2.96217C19.4064 3.32947 19.3869 3.6646 19.4016 4.00059L20.4007 3.95677C20.3919 3.75579 20.4036 3.24773 20.3584 2.84946C20.3344 2.63772 20.291 2.4025 20.2025 2.19144C20.1145 1.98145 19.9577 1.7399 19.6755 1.611L19.26 2.52063ZM19.4016 4.00086C19.4065 4.10999 19.4148 4.25096 19.4778 4.40804C19.5354 4.55135 19.6262 4.67713 19.7224 4.80148L20.5133 4.18947C20.4692 4.13257 20.4423 4.0951 20.425 4.06829C20.4085 4.04276 20.4052 4.03393 20.4058 4.03538C20.4102 4.04629 20.4049 4.05131 20.4007 3.9565L19.4016 4.00086ZM19.7225 4.80164C20.298 5.54465 21.0257 6.34511 21.6351 7.09486C22.2702 7.87627 22.8548 8.69018 23.2827 9.61062L24.1895 9.18909C23.7112 8.16006 23.068 7.27229 22.4111 6.46414C21.7285 5.62431 21.1002 4.94732 20.5132 4.18931L19.7225 4.80164ZM23.2828 9.61074C23.6806 10.4661 24.2527 12.1215 24.7416 13.906C25.2314 15.6934 25.6219 17.5532 25.6792 18.8227L26.6782 18.7777C26.6157 17.3924 26.2001 15.4445 25.7061 13.6417C25.2113 11.8361 24.622 10.1187 24.1895 9.18898L23.2828 9.61074ZM25.6792 18.8228C25.6918 19.1 25.7816 19.3204 25.8865 19.5037C25.9732 19.6552 26.1139 19.8456 26.1841 19.9519C26.3451 20.1953 26.5 20.4891 26.5 21.0533H27.5C27.5 20.2487 27.2601 19.7662 27.0183 19.4004C26.8873 19.2021 26.8246 19.1297 26.7544 19.0069C26.7023 18.9159 26.6815 18.8507 26.6782 18.7776L25.6792 18.8228ZM26.5 21.0533C26.5 21.2916 26.4499 21.4489 26.3834 21.5729C26.3113 21.7075 26.2085 21.8255 26.0576 21.9836C25.7612 22.2941 25.3188 22.7105 25.1697 23.5039L26.1525 23.6887C26.24 23.2232 26.4671 23.0029 26.781 22.674C26.9352 22.5124 27.1228 22.3101 27.2647 22.0455C27.4123 21.7704 27.5 21.4498 27.5 21.0533H26.5ZM25.1697 23.5039C24.9553 24.6437 24.5675 25.3061 24.1603 26.0097C23.7417 26.7332 23.3036 27.4991 23.113 28.7728L24.102 28.9208C24.2635 27.841 24.6212 27.2099 25.0259 26.5106C25.442 25.7914 25.9049 25.0054 26.1525 23.6887L25.1697 23.5039ZM23.113 28.7728C23.0799 28.994 22.8833 29.287 22.439 29.5457C22.008 29.7966 21.4093 29.9718 20.7351 29.9869L20.7574 30.9866C21.5821 30.9682 22.3496 30.7549 22.9422 30.4099C23.5215 30.0726 24.006 29.5624 24.102 28.9207L23.113 28.7728ZM20.7352 29.9869C19.9374 30.0045 19.2219 29.7627 18.8938 29.441C18.7457 29.2957 18.6981 29.1594 18.7093 29.0231C18.7219 28.87 18.817 28.6209 19.1541 28.2853L18.4486 27.5766C18.016 28.0072 17.7518 28.4655 17.7127 28.9413C17.6722 29.4339 17.8807 29.8479 18.1936 30.1549C18.7876 30.7375 19.8142 31.0074 20.7573 30.9866L20.7352 29.9869ZM19.154 28.2854C19.5137 27.9275 19.5646 27.5098 19.5544 27.2345L18.5551 27.2714C18.5573 27.3323 18.5521 27.3862 18.5374 27.434C18.5238 27.4781 18.4994 27.5261 18.4487 27.5765L19.154 28.2854ZM19.5544 27.2353C19.5436 26.9303 19.3518 26.7306 19.1937 26.6214C19.0356 26.5122 18.8453 26.4434 18.6669 26.3975C18.3042 26.3042 17.8532 26.2717 17.425 26.2875C16.9985 26.3033 16.5467 26.3687 16.1881 26.501C16.011 26.5663 15.8213 26.6606 15.6711 26.8027C15.5114 26.9537 15.3769 27.1819 15.4002 27.4716L16.397 27.3913C16.4042 27.4807 16.3555 27.5318 16.3583 27.5291C16.3707 27.5174 16.4203 27.4812 16.5342 27.4392C16.7576 27.3568 17.0943 27.3004 17.4619 27.2868C17.8278 27.2733 18.1765 27.3039 18.4178 27.366C18.5415 27.3978 18.6044 27.4298 18.6254 27.4443C18.6465 27.4589 18.5598 27.4059 18.555 27.2706L19.5544 27.2353ZM15.4002 27.4717C15.4491 28.077 15.7673 28.3905 15.9518 28.5903C16.0445 28.6907 16.0855 28.7427 16.1111 28.7955C16.1305 28.8357 16.1519 28.8998 16.1419 29.027L17.1389 29.1049C17.1614 28.8172 17.1146 28.5741 17.0116 28.3607C16.9146 28.16 16.7789 28.0119 16.6864 27.9118C16.5007 27.7108 16.4156 27.6219 16.397 27.3912L15.4002 27.4717ZM16.142 29.0269C16.1276 29.2102 15.9759 29.4586 15.5437 29.6665C15.1245 29.8681 14.5252 29.9821 13.8501 29.9289L13.7716 30.9258C14.5909 30.9904 15.3723 30.8586 15.9773 30.5676C16.5692 30.2828 17.0851 29.7915 17.1389 29.105L16.142 29.0269ZM13.8502 29.9289C12.2628 29.8036 11.5274 29.3293 11.0768 28.6341C10.8363 28.2629 10.6579 27.7995 10.5004 27.2209C10.3423 26.6399 10.2143 25.9794 10.0571 25.2121L9.07742 25.4128C9.23055 26.1601 9.36667 26.8631 9.53551 27.4835C9.70503 28.1064 9.91647 28.6824 10.2377 29.178C10.9107 30.2165 11.9867 30.7849 13.7715 30.9258L13.8502 29.9289ZM10.7723 12.0412C10.6077 11.8782 10.4821 11.5827 10.4276 11.1488C10.3744 10.7256 10.3974 10.2362 10.4658 9.7656L9.47614 9.62185C9.39969 10.1482 9.36749 10.733 9.43536 11.2734C9.50187 11.803 9.67344 12.3604 10.0687 12.7518L10.7723 12.0412ZM10.4657 9.76572C10.5897 8.91412 10.7864 8.24392 11.2115 7.1667L10.2813 6.79966C9.8389 7.92081 9.61481 8.66889 9.47616 9.62172L10.4657 9.76572ZM11.2115 7.16662C11.3853 6.72594 11.5963 6.13637 11.86 5.58801C11.9904 5.31657 12.1264 5.07165 12.2659 4.87501C12.409 4.67318 12.534 4.55351 12.6319 4.49612L12.126 3.63354C11.8534 3.79337 11.6307 4.04193 11.4502 4.29654C11.2659 4.55634 11.1023 4.85609 10.9587 5.15475C10.6742 5.74659 10.4393 6.39897 10.2813 6.79974L11.2115 7.16662ZM12.6319 4.49609C12.7239 4.44216 12.9837 4.35183 13.3942 4.26128C13.7834 4.17544 14.2533 4.10086 14.7205 4.05614C15.1905 4.01116 15.6403 3.99807 15.9945 4.0283C16.172 4.04346 16.3102 4.0683 16.4083 4.09821C16.5156 4.13091 16.5276 4.15534 16.5085 4.13438L17.2469 3.46007C17.0904 3.28872 16.8797 3.19646 16.6998 3.14164C16.5108 3.08403 16.2972 3.05051 16.0795 3.03192C15.6431 2.99467 15.1278 3.01258 14.6253 3.06069C14.12 3.10905 13.6099 3.18967 13.1788 3.28475C12.769 3.37514 12.3681 3.49147 12.1259 3.63357L12.6319 4.49609ZM16.5083 4.13424C16.6008 4.23553 16.7074 4.39314 16.8374 4.60088C16.9574 4.79261 17.1 5.03179 17.2388 5.23248C17.3717 5.42457 17.5489 5.65492 17.7677 5.79764C17.8847 5.87399 18.0418 5.94417 18.2301 5.94647C18.4273 5.94887 18.6017 5.87616 18.7424 5.76409L18.1193 4.98192C18.1305 4.97298 18.1751 4.94572 18.2423 4.94654C18.3006 4.94725 18.3274 4.96881 18.3141 4.96014C18.2723 4.93282 18.1885 4.84753 18.0612 4.6635C17.9398 4.48808 17.8229 4.29067 17.6851 4.07043C17.5573 3.86621 17.4079 3.6365 17.247 3.46021L16.5083 4.13424ZM18.7423 5.76411C18.8134 5.70752 18.8714 5.64714 18.914 5.60043C18.9355 5.57682 18.9561 5.55336 18.9726 5.53456C18.9903 5.51443 19.0037 5.49918 19.0164 5.48539C19.0436 5.45568 19.0508 5.45122 19.0456 5.45505C19.0379 5.46062 18.9983 5.48788 18.9318 5.49718C18.7708 5.5197 18.7109 5.41508 18.7878 5.49616C18.8589 5.57122 18.9758 5.73342 19.1496 6.05226L20.0277 5.57382C19.8426 5.23413 19.676 4.97968 19.5136 4.8083C19.3569 4.64293 19.1134 4.46205 18.7933 4.50682C18.5173 4.54543 18.3414 4.74189 18.2796 4.80918C18.1738 4.92449 18.16 4.9495 18.1193 4.9819L18.7423 5.76411ZM19.1495 6.05224C19.6586 6.98665 19.9587 7.80499 20.0636 8.81124L21.0582 8.70756C20.9362 7.53719 20.582 6.59133 20.0277 5.57384L19.1495 6.05224ZM20.0636 8.81112C20.1373 9.52006 20.0127 9.65526 19.9834 9.69095C19.9657 9.71253 19.9441 9.73447 19.9059 9.77102C19.8732 9.80232 19.8154 9.85609 19.762 9.91611C19.6362 10.0577 19.5279 10.2392 19.4812 10.5028L20.4659 10.6772C20.4762 10.6192 20.4897 10.6027 20.5096 10.5803C20.5291 10.5583 20.5501 10.5386 20.5971 10.4937C20.6386 10.454 20.6975 10.397 20.7561 10.3258C21.0318 9.99018 21.1439 9.53163 21.0583 8.70768L20.0636 8.81112ZM19.4812 10.5027C19.4679 10.5781 19.4648 10.6893 19.4624 10.7553C19.4591 10.8442 19.4555 10.9481 19.4479 11.0645C19.4326 11.3002 19.4023 11.5644 19.337 11.7982C19.269 12.0418 19.1808 12.1868 19.0972 12.2558C19.045 12.2989 18.9469 12.3561 18.6977 12.2865L18.4289 13.2497C18.9357 13.3912 19.3864 13.3135 19.7333 13.0274C20.0488 12.7673 20.2103 12.3891 20.3002 12.0671C20.3928 11.7354 20.4287 11.3917 20.4458 11.1293C20.4544 10.9966 20.4585 10.8788 20.4617 10.7924C20.4657 10.6831 20.468 10.6654 20.4659 10.6772L19.4812 10.5027ZM18.6979 12.2866C18.6379 12.2698 18.5265 12.2458 18.3957 12.2751C18.2428 12.3094 18.1364 12.3988 18.0709 12.4852C18.0183 12.5545 17.9898 12.6256 17.9803 12.6487C17.9563 12.7073 17.9696 12.6777 17.9521 12.7194C17.9366 12.7564 17.8994 12.8509 17.7045 12.991L18.2881 13.803C18.4606 13.679 18.5887 13.5542 18.685 13.4304C18.7827 13.3047 18.8382 13.1922 18.8741 13.1066C18.8825 13.0865 18.8896 13.0686 18.8949 13.0552C18.9009 13.0397 18.9033 13.0336 18.9057 13.0276C18.9135 13.0086 18.9011 13.0454 18.8677 13.0894C18.8214 13.1505 18.7374 13.2234 18.6144 13.2509C18.5134 13.2736 18.4394 13.2527 18.4287 13.2497L18.6979 12.2866ZM17.7046 12.9909C17.5159 13.1265 17.2958 13.1755 17.0471 13.1831C16.9217 13.1869 16.7979 13.18 16.6694 13.1713C16.5543 13.1636 16.4048 13.1514 16.2785 13.1558L16.3126 14.1552C16.3742 14.1531 16.4565 14.1592 16.602 14.1691C16.734 14.178 16.8996 14.188 17.0774 14.1826C17.4353 14.1717 17.8776 14.0979 18.288 13.8031L17.7046 12.9909ZM11.1072 12.6877C11.0845 12.6193 11.0738 12.5774 11.0676 12.5505C11.0632 12.5316 11.0622 12.5264 11.057 12.503C11.0533 12.4862 11.0461 12.4546 11.0347 12.4196C11.005 12.3285 10.9616 12.2585 10.9134 12.1978C10.877 12.1519 10.8293 12.1013 10.7848 12.054L10.0562 12.739C10.0812 12.7655 10.0986 12.7842 10.112 12.7989C10.1184 12.806 10.1229 12.8111 10.1261 12.8147C10.1293 12.8184 10.1304 12.8198 10.1301 12.8195C10.1296 12.8188 10.1208 12.8077 10.1101 12.7888C10.0982 12.7678 10.0896 12.747 10.084 12.7297C10.0797 12.7167 10.0784 12.7091 10.0811 12.721C10.0823 12.7264 10.0884 12.7547 10.0936 12.7771C10.1065 12.8327 10.1254 12.9042 10.1582 13.003L11.1072 12.6877ZM9.50358 21.5597C9.65123 22.7865 10.0703 23.7328 10.7887 24.4586C11.4975 25.1747 12.4561 25.6336 13.6042 25.9703L13.8856 25.0107C12.8169 24.6973 12.0403 24.3015 11.4994 23.7551C10.9682 23.2184 10.6233 22.4944 10.4964 21.4403L9.50358 21.5597ZM13.6041 25.9703C14.8408 26.3332 16.5806 26.463 17.7224 26.2101L17.5062 25.2338C16.5661 25.442 15.0014 25.3381 13.8856 25.0107L13.6041 25.9703ZM17.7224 26.2101C21.3949 25.3969 23.4337 22.9926 24.5652 20.976L23.6931 20.4867C22.6458 22.3531 20.8071 24.5028 17.5062 25.2338L17.7224 26.2101ZM24.5652 20.9761C24.7564 20.6355 24.8832 20.0534 24.8996 19.5457C24.908 19.2848 24.8892 19.0018 24.8132 18.7498C24.7399 18.5067 24.584 18.2027 24.2529 18.0575L23.8515 18.9734C23.7947 18.9486 23.8202 18.9203 23.8558 19.0385C23.8888 19.1479 23.9066 19.3117 23.9001 19.5134C23.8866 19.9307 23.7775 20.3363 23.6932 20.4866L24.5652 20.9761ZM24.2529 18.0575C24.0671 17.9761 23.8664 17.9515 23.6656 17.9997C23.4736 18.0458 23.3203 18.149 23.2024 18.2572C22.9789 18.4623 22.8022 18.7627 22.6571 19.0342C22.5808 19.1769 22.5042 19.3296 22.4292 19.4787C22.353 19.63 22.2774 19.7798 22.1982 19.9271C22.0384 20.2242 21.8759 20.4887 21.6971 20.6962L22.4546 21.349C22.7045 21.0591 22.9076 20.7194 23.0789 20.4007C23.1653 20.24 23.2466 20.0789 23.3224 19.9283C23.3994 19.7754 23.4698 19.6351 23.539 19.5057C23.6849 19.2327 23.7936 19.0719 23.8786 18.9939C23.915 18.9605 23.9216 18.9667 23.899 18.9721C23.8675 18.9796 23.8456 18.9708 23.8515 18.9734L24.2529 18.0575ZM21.6971 20.6962C21.4244 21.0125 21.0049 21.3725 20.5485 21.6698C20.0847 21.9719 19.6347 22.1753 19.3038 22.2297L19.4659 23.2164C19.9958 23.1294 20.5823 22.8412 21.0942 22.5078C21.6135 22.1695 22.109 21.75 22.4546 21.349L21.6971 20.6962ZM19.3039 22.2297C18.7844 22.3149 18.4028 22.2422 18.1519 22.1069C17.9096 21.9762 17.7589 21.7725 17.7032 21.5099C17.5873 20.9622 17.879 20.0006 19.128 18.9695L18.4913 18.1983C17.116 19.3337 16.4965 20.6384 16.7249 21.717C16.8415 22.2675 17.1768 22.717 17.6771 22.987C18.1689 23.2523 18.7865 23.3279 19.4658 23.2165L19.3039 22.2297ZM19.1281 18.9693C19.1831 18.9239 19.243 18.8771 19.3106 18.8243C19.3764 18.773 19.4493 18.7162 19.5214 18.6571C19.6634 18.5407 19.8238 18.3981 19.9564 18.229C20.0908 18.0577 20.2128 17.8387 20.2473 17.5708C20.2826 17.2961 20.2192 17.0223 20.0708 16.7584L19.1992 17.2486C19.2598 17.3563 19.2591 17.4152 19.2555 17.4432C19.251 17.4779 19.2325 17.5317 19.1696 17.6119C19.1049 17.6943 19.0113 17.7821 18.8873 17.8839C18.8263 17.9339 18.7632 17.9831 18.6955 18.0359C18.6298 18.0872 18.5588 18.1426 18.4912 18.1984L19.1281 18.9693ZM20.0708 16.7584C19.9421 16.5295 19.7211 16.3428 19.5216 16.2006C19.3094 16.0495 19.0612 15.9073 18.8179 15.7812C18.3311 15.5288 17.8171 15.3168 17.5591 15.2087L17.1726 16.131C17.4382 16.2422 17.9134 16.4386 18.3576 16.6689C18.5799 16.7842 18.7825 16.902 18.9413 17.0151C19.1127 17.1372 19.1826 17.219 19.1992 17.2486L20.0708 16.7584ZM15.9616 8.93451C15.9114 9.02724 15.8799 9.12519 15.8589 9.19802C15.8377 9.27159 15.8171 9.35711 15.801 9.42042C15.763 9.56949 15.733 9.66209 15.6979 9.72257C15.6831 9.74791 15.6748 9.75411 15.6765 9.7527C15.6808 9.74921 15.6866 9.74716 15.6861 9.74726C15.677 9.74921 15.58 9.76349 15.3331 9.64959L14.9142 10.5576C15.2535 10.7141 15.5853 10.7916 15.8956 10.7251C16.2308 10.6532 16.4391 10.4372 16.5624 10.2252C16.6761 10.0297 16.7336 9.81026 16.7701 9.66701C16.7912 9.58416 16.8044 9.52845 16.8198 9.47515C16.8354 9.42111 16.8432 9.40657 16.841 9.41064L15.9616 8.93451ZM15.3331 9.64957C15.3134 9.64049 15.2486 9.6096 15.1742 9.59232C15.0904 9.57287 14.9153 9.55212 14.7419 9.667C14.5892 9.76813 14.5339 9.91391 14.5141 9.97408C14.4913 10.0436 14.4802 10.1141 14.4734 10.1667L15.4649 10.2962C15.4697 10.26 15.4713 10.2645 15.4642 10.2862C15.4601 10.2987 15.4234 10.415 15.2941 10.5007C15.1441 10.6001 14.997 10.5778 14.9479 10.5664C14.9082 10.5572 14.8845 10.5439 14.9143 10.5576L15.3331 9.64957ZM11.8056 10.6844C11.9269 10.422 12.0126 10.1186 11.8503 9.81587C11.7916 9.70639 11.7077 9.61984 11.6821 9.59163C11.6451 9.55095 11.6285 9.53102 11.6137 9.50715L10.7634 10.0334C10.8302 10.1414 10.901 10.219 10.9424 10.2646C10.9658 10.2903 10.9738 10.2991 10.9801 10.3068C10.9846 10.3124 10.9779 10.305 10.9689 10.2884C10.9589 10.2696 10.949 10.2445 10.9435 10.2155C10.9382 10.1873 10.9392 10.1664 10.9402 10.1572C10.9414 10.1461 10.9401 10.1735 10.8979 10.2647L11.8056 10.6844ZM11.6137 9.50711C11.5816 9.45521 11.5929 9.45236 11.556 9.32235C11.5513 9.30582 11.5424 9.27639 11.5281 9.24299C11.5157 9.21425 11.4855 9.14899 11.4244 9.08466C11.3541 9.0105 11.2341 8.93041 11.0704 8.92475C10.9235 8.91967 10.8168 8.97787 10.7663 9.0113C10.6768 9.07054 10.6214 9.14824 10.6077 9.16676C10.5831 9.20026 10.5588 9.23788 10.5371 9.27241L11.3841 9.80406C11.393 9.78995 11.3998 9.77928 11.4052 9.77123C11.4078 9.76728 11.4098 9.76434 11.4112 9.76222C11.4127 9.76009 11.4134 9.75917 11.4133 9.75923C11.4133 9.75925 11.4121 9.76086 11.4099 9.76364C11.4077 9.76634 11.4037 9.77122 11.398 9.77753C11.3896 9.78673 11.3625 9.81589 11.3181 9.84528C11.2757 9.87329 11.1762 9.92901 11.0358 9.92415C10.8784 9.9187 10.7641 9.84155 10.6989 9.7728C10.643 9.71387 10.6173 9.6565 10.6094 9.63791C10.5994 9.61466 10.5946 9.59764 10.594 9.59555C10.5899 9.58108 10.6338 9.82396 10.7634 10.0334L11.6137 9.50711ZM14.5753 8.94329C14.5116 9.01638 14.3165 9.28045 14.4822 9.59144C14.5563 9.73037 14.6719 9.80424 14.7601 9.83985C14.8481 9.87536 14.9335 9.8842 15.0037 9.88123C15.1214 9.87626 15.3298 9.82777 15.4627 9.62777C15.5373 9.51548 15.5673 9.38111 15.5494 9.24845C15.5327 9.12559 15.4791 9.03084 15.4313 8.96721L14.6316 9.56767C14.6111 9.54036 14.5713 9.47777 14.5584 9.38282C14.5442 9.27806 14.568 9.16731 14.6299 9.07423C14.7373 8.91266 14.8939 8.88498 14.9615 8.88212C15.0066 8.88022 15.0673 8.88545 15.1344 8.91254C15.2018 8.93973 15.3004 9.00039 15.3648 9.12117C15.4333 9.24976 15.4267 9.37816 15.4007 9.46507C15.3774 9.54265 15.34 9.58783 15.3293 9.60014L14.5753 8.94329ZM15.431 8.9668C15.1647 8.61298 14.7399 8.75375 14.5748 8.94385L15.3298 9.59958C15.2571 9.68327 15.1486 9.74248 15.0221 9.74972C14.8912 9.75722 14.7355 9.70567 14.632 9.56808L15.431 8.9668ZM11.3841 8.65495C11.2375 8.79292 11.1407 9.01375 11.209 9.25618C11.2658 9.45774 11.4118 9.57972 11.5301 9.63928C11.6456 9.69745 11.8384 9.74738 12.042 9.66197C12.293 9.5567 12.3927 9.32159 12.3987 9.12597L11.3992 9.09538C11.4004 9.0558 11.4104 8.98716 11.4552 8.91263C11.5024 8.83405 11.5737 8.774 11.6552 8.73981C11.8028 8.67791 11.925 8.71854 11.9798 8.74609C12.0373 8.77503 12.1321 8.84509 12.1715 8.98492C12.193 9.06123 12.193 9.14578 12.1668 9.22618C12.1415 9.3037 12.0995 9.35483 12.0696 9.38301L11.3841 8.65495ZM12.3987 9.126C12.4067 8.86559 12.2446 8.68166 12.1153 8.5965C12.0371 8.54496 11.9244 8.4962 11.7865 8.49549C11.6373 8.49471 11.4942 8.55115 11.3838 8.65517L12.0698 9.38279C11.9949 9.45342 11.8912 9.49604 11.7813 9.49547C11.6827 9.49496 11.609 9.46042 11.5652 9.43157C11.5207 9.40226 11.4845 9.3646 11.4573 9.32044C11.4321 9.27958 11.3959 9.20216 11.3992 9.09535L12.3987 9.126ZM11.2169 8.90232C11.1607 8.96683 10.9668 9.22463 11.1303 9.53156C11.2033 9.66844 11.317 9.74083 11.4029 9.77549C11.4885 9.81006 11.5711 9.8185 11.6385 9.81566C11.7506 9.81093 11.9533 9.76477 12.0833 9.56896C12.1565 9.45877 12.1858 9.32703 12.1682 9.19755C12.1519 9.07786 12.0999 8.98675 12.0552 8.92721L11.2555 9.52768C11.232 9.49633 11.1906 9.43019 11.1773 9.33216C11.1626 9.22432 11.1871 9.11091 11.2504 9.01564C11.3606 8.84965 11.5232 8.81963 11.5963 8.81655C11.6443 8.81452 11.7077 8.82016 11.7772 8.8482C11.8469 8.87633 11.9474 8.93847 12.0128 9.06126C12.0824 9.19187 12.0762 9.32287 12.0492 9.41296C12.025 9.49372 11.9854 9.54263 11.9709 9.55926L11.2169 8.90232ZM12.0545 8.92632C11.7927 8.57933 11.3769 8.71794 11.2162 8.90316L11.9716 9.55842C11.8963 9.64518 11.7843 9.70613 11.6544 9.71354C11.5202 9.7212 11.3617 9.66839 11.2562 9.52858L12.0545 8.92632ZM14.7808 8.63476C14.6236 8.78279 14.5243 9.01393 14.5952 9.26529C14.6545 9.47578 14.8079 9.60527 14.935 9.66923C15.0593 9.73182 15.2622 9.78306 15.4739 9.69426C15.7329 9.58559 15.8387 9.34239 15.8451 9.13224L14.8456 9.10161C14.8466 9.06929 14.8549 9.00632 14.8972 8.93608C14.9418 8.86177 15.0096 8.80461 15.087 8.77212C15.2265 8.71361 15.3386 8.75288 15.3846 8.77602C15.4333 8.80054 15.5208 8.86311 15.5577 8.99406C15.5779 9.06592 15.5778 9.14567 15.5533 9.22111C15.5296 9.29367 15.4909 9.33969 15.4663 9.36282L14.7808 8.63476ZM15.8451 9.13202C15.8533 8.86188 15.684 8.6666 15.5448 8.57488C15.4616 8.52007 15.3432 8.46925 15.1997 8.46851C15.0448 8.46771 14.896 8.52617 14.7806 8.63498L15.4666 9.36259C15.3968 9.42838 15.2988 9.46903 15.1945 9.4685C15.1015 9.46802 15.0334 9.43552 14.9946 9.40995C14.9551 9.38391 14.9233 9.35075 14.8991 9.31155C14.877 9.27563 14.8425 9.20361 14.8456 9.10183L15.8451 9.13202ZM14.2482 9.01835C14.2025 9.26084 14.2697 9.48279 14.3604 9.64692C14.4522 9.8129 14.5866 9.95602 14.7399 10.0584C14.8898 10.1586 15.0956 10.2442 15.3284 10.2312C15.5855 10.2168 15.8167 10.084 15.9668 9.85353L15.129 9.30759C15.134 9.30001 15.1501 9.2794 15.1818 9.2608C15.2136 9.24215 15.2464 9.23419 15.2726 9.23273C15.2969 9.23137 15.3106 9.2357 15.3117 9.23606C15.3128 9.23643 15.3068 9.23452 15.2955 9.22699C15.2704 9.2102 15.2475 9.1846 15.2356 9.16309C15.2226 9.13973 15.2399 9.15541 15.2309 9.20355L14.2482 9.01835ZM15.9669 9.85352C16.1521 9.56916 16.1754 9.25451 16.0783 8.9805C15.9873 8.72374 15.8004 8.5258 15.5951 8.40644C15.3949 8.29006 15.1097 8.21192 14.8204 8.30962C14.4976 8.41865 14.3085 8.69735 14.2481 9.01865L15.2309 9.20324C15.237 9.17084 15.2423 9.17653 15.2257 9.19782C15.2071 9.22185 15.1767 9.2448 15.1404 9.25705C15.1077 9.26812 15.0852 9.26553 15.0802 9.26471C15.0755 9.26395 15.0807 9.26411 15.0924 9.27095C15.1038 9.27757 15.1152 9.28689 15.1241 9.29712C15.1329 9.30727 15.1355 9.314 15.1358 9.31466C15.1358 9.31476 15.1353 9.31325 15.1349 9.3103C15.1345 9.30724 15.1345 9.30369 15.1349 9.30017C15.1359 9.29127 15.1383 9.2933 15.129 9.30761L15.9669 9.85352ZM11.5881 9.10884C11.5815 9.07371 11.5843 9.0457 11.5879 9.02866C11.5914 9.01212 11.5959 9.00371 11.5965 9.00264C11.5972 9.00136 11.5963 9.00333 11.593 9.00687C11.5897 9.01039 11.5868 9.0126 11.5858 9.01329C11.5773 9.01899 11.6059 8.99534 11.6721 8.99903C11.7088 9.00109 11.7518 9.01188 11.793 9.03604C11.8341 9.06014 11.8588 9.08893 11.8711 9.1078L11.0333 9.65376C11.1687 9.86159 11.3802 9.98428 11.6163 9.99748C11.8281 10.0093 12.0115 9.93156 12.1414 9.84475C12.2747 9.75567 12.3915 9.63145 12.4717 9.48648C12.5508 9.34335 12.6124 9.14453 12.5709 8.92384L11.5881 9.10884ZM11.8711 9.10781C11.8728 9.11037 11.8811 9.12526 11.884 9.15054C11.8868 9.17512 11.8829 9.19672 11.8776 9.21188C11.8726 9.22589 11.8671 9.23266 11.8657 9.23424C11.8644 9.23575 11.8636 9.23639 11.8619 9.23737C11.8606 9.23814 11.8518 9.24321 11.8331 9.24625C11.8142 9.24933 11.778 9.25121 11.7326 9.23587C11.6837 9.21936 11.6418 9.18857 11.6138 9.15251C11.5879 9.11917 11.586 9.09727 11.5881 9.10866L12.5709 8.92402C12.5184 8.64469 12.35 8.38888 12.0525 8.28843C11.7886 8.19931 11.5333 8.27169 11.3593 8.37286C11.1802 8.47701 11.0157 8.65027 10.935 8.87772C10.8483 9.12243 10.87 9.40315 11.0333 9.65375L11.8711 9.10781ZM11.7421 9.09425C11.7378 9.08993 11.7304 9.07984 11.7254 9.06561C11.7209 9.05248 11.7214 9.04432 11.7214 9.04467C11.721 9.04965 11.7151 9.07952 11.6852 9.11795C11.6557 9.15593 11.6247 9.17394 11.6109 9.17876C11.6059 9.18055 11.6079 9.17892 11.6158 9.17926C11.6249 9.17965 11.6327 9.18225 11.6362 9.18405L11.181 10.0744C11.7239 10.352 12.2359 10.0391 12.4749 9.73148C12.7125 9.42573 12.8956 8.83799 12.4528 8.39072L11.7421 9.09425ZM11.6363 9.18408C11.6396 9.18577 11.6635 9.20026 11.6836 9.23501C11.7028 9.268 11.705 9.29574 11.7049 9.3048C11.7048 9.31177 11.7037 9.30394 11.7126 9.28189C11.7212 9.26059 11.7358 9.23429 11.7567 9.20743C11.7776 9.18063 11.8004 9.15881 11.8211 9.14353C11.8424 9.12784 11.8544 9.12417 11.8537 9.12437C11.8516 9.12498 11.8315 9.13004 11.8006 9.12294C11.7671 9.11522 11.7469 9.09909 11.7418 9.09395L12.4531 8.39102C12.1949 8.12973 11.8618 8.08111 11.576 8.16369C11.3177 8.23836 11.1084 8.41234 10.9676 8.59317C10.8277 8.77294 10.7079 9.02083 10.705 9.29388C10.7016 9.60314 10.8537 9.90705 11.1809 10.0744L11.6363 9.18408ZM14.361 8.40619C13.8629 8.90933 14.0604 9.57911 14.3439 9.94396C14.6288 10.3107 15.2182 10.6596 15.8317 10.3459L15.3764 9.45555C15.3562 9.46593 15.335 9.47029 15.2955 9.45643C15.2478 9.43972 15.186 9.39793 15.1336 9.33042C15.0808 9.26247 15.0597 9.19732 15.057 9.15746C15.055 9.1289 15.0604 9.12107 15.0717 9.1097L14.361 8.40619ZM15.8317 10.3459C16.2012 10.157 16.3703 9.81789 16.3665 9.47016C16.3631 9.15863 16.2256 8.86893 16.0585 8.65423C15.8905 8.43847 15.6446 8.23644 15.3483 8.15076C15.0245 8.05718 14.6519 8.11185 14.3607 8.40647L15.072 9.10942C15.0833 9.0979 15.0813 9.10418 15.0664 9.10759C15.0543 9.11037 15.0536 9.10654 15.0706 9.11143C15.1137 9.12391 15.1946 9.1724 15.2694 9.26849C15.345 9.36564 15.3662 9.44913 15.3666 9.48107C15.3667 9.49124 15.3648 9.4819 15.3745 9.4652C15.3852 9.44675 15.3943 9.44644 15.3764 9.45556L15.8317 10.3459ZM16.0633 9.2953C16.2486 9.82696 16.1918 10.2142 15.9244 10.4318L16.5557 11.2074C17.326 10.5803 17.2373 9.62548 17.0076 8.96627L16.0633 9.2953ZM15.9244 10.4319C15.8362 10.5037 15.8067 10.4958 15.8264 10.4949C15.8493 10.4938 15.8492 10.5055 15.8107 10.4784C15.7661 10.447 15.7063 10.3884 15.6248 10.2879C15.5406 10.1841 15.4681 10.081 15.3663 9.94609L14.5679 10.5482C14.6454 10.651 14.7499 10.7968 14.8482 10.918C14.9492 11.0425 15.0775 11.185 15.2345 11.2957C15.3977 11.4108 15.6127 11.5057 15.8721 11.4938C16.1283 11.4821 16.3567 11.3694 16.5558 11.2073L15.9244 10.4319ZM16.6254 8.63893C16.4937 8.61487 16.1438 8.59835 15.9617 8.93434L16.8409 9.41082C16.7847 9.51458 16.69 9.58304 16.5934 9.61133C16.5136 9.63469 16.4557 9.62448 16.4456 9.62264L16.6254 8.63893ZM14.4734 10.1664C14.4726 10.1724 14.4718 10.1785 14.4711 10.1845L15.4632 10.3098C15.4637 10.3053 15.4643 10.3009 15.4649 10.2964L14.4734 10.1664ZM15.463 10.311L15.4651 10.2952L14.4732 10.1676L14.4712 10.1833L15.463 10.311ZM11.3133 9.91806C11.3369 9.87961 11.3604 9.84171 11.3839 9.80439L10.5373 9.27208C10.5121 9.31227 10.4864 9.35361 10.4604 9.39597L11.3133 9.91806ZM10.8979 10.2647C10.856 10.3553 10.8157 10.4373 10.7767 10.5145L11.6693 10.9652C11.7118 10.8813 11.7574 10.7885 11.8056 10.6844L10.8979 10.2647ZM10.609 11.3868C11.0274 11.4999 11.3619 11.2895 11.5595 11.1097L10.8865 10.3701C10.8653 10.3893 10.8482 10.4024 10.8353 10.4109C10.8224 10.4193 10.8161 10.4217 10.8161 10.4217C10.8166 10.4215 10.8236 10.419 10.8357 10.4183C10.8483 10.4174 10.8605 10.4189 10.87 10.4215L10.609 11.3868ZM10.4105 9.5051C10.318 9.79513 10.2223 10.1235 10.1776 10.3955C10.1561 10.5259 10.139 10.6842 10.1584 10.8325C10.174 10.9526 10.249 11.2895 10.609 11.3868L10.87 10.4215C10.9874 10.4532 11.0673 10.5298 11.1097 10.5998C11.145 10.6581 11.1499 10.7028 11.15 10.7033C11.1506 10.7078 11.149 10.698 11.1508 10.6688C11.1525 10.6411 11.1567 10.6043 11.1643 10.5578C11.1963 10.3633 11.2722 10.0946 11.3632 9.80894L10.4105 9.5051ZM14.2414 13.7943C13.8362 13.9524 13.5635 14.1847 12.7691 14.1847V15.1847C13.8098 15.1847 14.349 14.8257 14.6049 14.7259L14.2414 13.7943ZM12.7691 14.1847C12.0845 14.1847 11.729 13.9124 11.6067 13.7258L10.7704 14.2742C11.1158 14.8008 11.8235 15.1847 12.7691 15.1847V14.1847ZM12.8174 13.7693C12.1935 13.8908 11.7115 13.6638 11.3941 13.2441L10.5965 13.8473C11.1336 14.5576 11.993 14.9486 13.0085 14.7508L12.8174 13.7693ZM11.3941 13.2441C11.2757 13.0876 11.1778 12.9003 11.1073 12.6878L10.1582 13.0029C10.2603 13.3105 10.407 13.5968 10.5965 13.8473L11.3941 13.2441ZM11.6067 13.7258C11.5858 13.6939 11.5532 13.624 11.5203 13.5366C11.5058 13.4978 11.4939 13.4629 11.4856 13.4379C11.4816 13.4255 11.4785 13.4158 11.4766 13.4097C11.4756 13.4066 11.4749 13.4044 11.4746 13.4032C11.4744 13.4026 11.4743 13.4022 11.4742 13.4021C11.4742 13.4021 11.4742 13.4021 11.4743 13.4022C11.4743 13.4022 11.4743 13.4023 11.4743 13.4024C11.4743 13.4024 11.4743 13.4025 11.4743 13.4025C11.4744 13.4025 11.4744 13.4026 11.4744 13.4026C11.4744 13.4026 11.4744 13.4027 10.9953 13.5457C10.5162 13.6888 10.5162 13.6889 10.5162 13.6889C10.5162 13.6889 10.5163 13.689 10.5163 13.689C10.5163 13.6891 10.5163 13.6891 10.5163 13.6892C10.5164 13.6894 10.5164 13.6895 10.5165 13.6897C10.5166 13.6901 10.5167 13.6905 10.5169 13.6911C10.5172 13.6921 10.5176 13.6934 10.5181 13.695C10.519 13.6981 10.5204 13.7024 10.522 13.7076C10.5253 13.7181 10.5298 13.7326 10.5356 13.7502C10.5471 13.7851 10.5637 13.8336 10.5842 13.8883C10.6216 13.9877 10.6856 14.1448 10.7704 14.2742L11.6067 13.7258ZM15.0477 12.8424C14.844 12.9933 14.6846 13.1412 14.3652 13.3064C14.0524 13.468 13.5823 13.6437 12.8321 13.7666L12.9938 14.7535C13.8306 14.6164 14.404 14.412 14.8244 14.1947C15.2381 13.9808 15.5013 13.7508 15.643 13.6458L15.0477 12.8424ZM14.6049 14.7259C14.7932 14.6524 14.9553 14.509 15.0663 14.3994C15.1896 14.2775 15.3082 14.1372 15.4081 14.0105C15.5092 13.8823 15.5975 13.7599 15.6603 13.6701C15.6918 13.625 15.7173 13.5875 15.7351 13.561C15.7441 13.5477 15.7511 13.5371 15.756 13.5296C15.7585 13.5259 15.7605 13.5229 15.7619 13.5207C15.7626 13.5197 15.7631 13.5188 15.7636 13.5181C15.7638 13.5178 15.764 13.5175 15.7641 13.5173C15.7642 13.5172 15.7642 13.5171 15.7643 13.517C15.7643 13.517 15.7644 13.5169 15.7644 13.5169C15.7644 13.5169 15.7644 13.5168 15.3454 13.2441C14.9263 12.9714 14.9263 12.9713 14.9263 12.9713C14.9263 12.9713 14.9264 12.9713 14.9264 12.9713C14.9264 12.9712 14.9264 12.9712 14.9264 12.9712C14.9264 12.9712 14.9264 12.9712 14.9263 12.9713C14.9262 12.9715 14.9259 12.9719 14.9255 12.9725C14.9248 12.9737 14.9235 12.9757 14.9217 12.9784C14.918 12.9839 14.9124 12.9923 14.905 13.0034C14.8902 13.0254 14.8682 13.0577 14.8407 13.0972C14.7852 13.1765 14.7086 13.2825 14.6229 13.3913C14.536 13.5015 14.4459 13.6066 14.3634 13.6881C14.2687 13.7817 14.2281 13.7995 14.2414 13.7943L14.6049 14.7259ZM11.5052 12.6439L12.4274 12.2571L12.4267 12.2555L11.5052 12.6439ZM11.4534 13.3245L10.8623 14.1311L10.8623 14.1311L11.4534 13.3245ZM12.7691 12.451L12.7444 11.4513H12.7444L12.7691 12.451ZM11.6643 12.7515L11.8194 11.7636L11.8189 11.7635L11.6643 12.7515ZM16.6479 12.7882L16.4466 11.8086L16.4465 11.8086L16.6479 12.7882ZM17.8396 10.0853L17.0814 10.7373L17.0815 10.7374L17.8396 10.0853ZM10.3788 12.112L11.2831 11.6853L11.2831 11.6852L10.3788 12.112ZM10.8095 12.1096L9.80966 12.0903L9.80966 12.0903L10.8095 12.1096ZM11.1887 8.74123L10.2247 8.47557L10.2246 8.4757L11.1887 8.74123ZM11.8739 9.85931L12.6555 10.4831L12.6555 10.4831L11.8739 9.85931ZM12.3729 8.45455L13.3598 8.29361L13.3598 8.29359L12.3729 8.45455ZM11.42 7.97459L10.5907 7.41577L10.5906 7.41584L11.42 7.97459ZM13.9102 9.42564L14.5951 8.69698L14.5949 8.69676L13.9102 9.42564ZM14.7069 9.94034L15.4039 9.22327L15.4038 9.22322L14.7069 9.94034ZM15.7462 7.93342L16.3093 7.10703L16.3093 7.10702L15.7462 7.93342ZM13.8078 9.20271L14.8077 9.18957L14.8077 9.18885L13.8078 9.20271ZM6.30193 11.0741L6.54463 10.104L6.54458 10.104L6.30193 11.0741ZM8.02789 11.2565L7.84377 10.2736L7.84372 10.2736L8.02789 11.2565ZM8.4505 10.174L9.45018 10.2001L9.45032 10.1928L8.4505 10.174ZM8.51385 6.79425L9.51368 6.813L9.51464 6.76162L9.51033 6.71042L8.51385 6.79425ZM7.99624 6.24474L8.17588 5.26101L8.17582 5.261L7.99624 6.24474ZM7.34036 6.53288L6.50694 5.98023L6.50694 5.98024L7.34036 6.53288ZM5.90469 10.6141L6.88931 10.4394L6.88929 10.4393L5.90469 10.6141ZM14.9671 10.2472L15.9592 10.3724L16.0101 9.96937L15.7655 9.64501L14.9671 10.2472ZM16.5355 9.13078L15.5912 9.45982L15.7828 10.0098L16.3557 10.1145L16.5355 9.13078ZM10.8869 9.65702L11.7398 10.1791L11.8029 10.076L11.8396 9.96085L10.8869 9.65702ZM11.223 10.7399L10.55 10.0002L10.4135 10.1244L10.3303 10.2892L11.223 10.7399ZM12.4267 12.2555C12.3071 11.9717 11.9958 11.4832 11.3714 11.4314C10.7213 11.3774 10.3305 11.8389 10.1899 12.1633C9.8737 12.8928 10.2364 13.6724 10.8623 14.1311L12.0445 12.5179C11.9239 12.4295 12.1899 12.578 12.025 12.9586C11.96 13.1085 11.7068 13.4661 11.206 13.4245C10.9768 13.4055 10.811 13.301 10.7156 13.211C10.6252 13.1257 10.5909 13.0492 10.5837 13.0323L12.4267 12.2555ZM10.8623 14.1311C11.3463 14.4858 11.8938 14.6263 12.4308 14.5261C12.9389 14.4313 13.3273 14.1421 13.5794 13.8414C13.8138 13.5617 14.0293 13.1515 14.0277 12.6958C14.0269 12.4543 13.9603 12.1119 13.6881 11.8272C13.4031 11.5291 13.0371 11.4441 12.7444 11.4513L12.7939 13.4507C12.6798 13.4536 12.4429 13.419 12.2424 13.2093C12.0547 13.0129 12.0281 12.7969 12.0277 12.7027C12.0272 12.5414 12.0859 12.5097 12.0467 12.5565C12.025 12.5823 12.0227 12.5677 12.064 12.56C12.1342 12.5469 12.1387 12.587 12.0444 12.5179L10.8623 14.1311ZM12.7444 11.4513C12.6023 11.4549 12.4192 11.4784 12.2297 11.5648C12.0232 11.659 11.8731 11.7983 11.7692 11.9415C11.7226 12.0057 11.6903 12.0637 11.6703 12.1024C11.6522 12.1371 11.6361 12.1723 11.6342 12.1763C11.6215 12.2034 11.6472 12.1422 11.6986 12.0739C11.761 11.9909 11.845 11.9152 11.9452 11.8611C12.0362 11.812 12.1075 11.7987 12.1291 11.7955C12.1543 11.7918 12.0828 11.8049 11.8194 11.7636L11.5093 13.7394C11.8395 13.7912 12.1481 13.8147 12.4233 13.7738C12.5699 13.752 12.7336 13.7083 12.895 13.6212C13.0655 13.5292 13.1977 13.408 13.2967 13.2764C13.3845 13.1597 13.435 13.0468 13.4458 13.0237C13.4699 12.9723 13.4399 13.0444 13.388 13.116C13.3155 13.2159 13.2059 13.3178 13.0594 13.3846C12.9299 13.4436 12.8264 13.4499 12.7939 13.4507L12.7444 11.4513ZM11.8189 11.7635C11.8101 11.7621 11.8428 11.7664 11.8934 11.7824C11.9484 11.7997 12.0502 11.8387 12.1592 11.9225C12.2756 12.012 12.3484 12.1125 12.3909 12.1861C12.4217 12.2395 12.4402 12.2877 12.4274 12.2571L10.583 13.0307C10.584 13.0331 10.6142 13.1088 10.6585 13.1856C10.7145 13.2826 10.8026 13.4023 10.9402 13.5081C11.1815 13.6936 11.4448 13.7293 11.5098 13.7395L11.8189 11.7635ZM16.8492 13.7677C18.0108 13.5289 18.6571 12.6538 18.915 11.8439C19.0442 11.4386 19.0915 11.0131 19.0567 10.6189C19.0239 10.2458 18.9067 9.79243 18.5978 9.43325L17.0815 10.7374C17.0174 10.6629 17.052 10.6532 17.0645 10.7944C17.075 10.9146 17.0612 11.0743 17.0094 11.2369C16.9056 11.5627 16.711 11.7543 16.4466 11.8086L16.8492 13.7677ZM9.4744 12.5388C9.53191 12.6606 9.60897 12.7924 9.70131 12.9135C9.77111 13.005 9.94087 13.215 10.2129 13.342C10.3663 13.4136 10.6284 13.4932 10.9403 13.4162C11.2682 13.3353 11.4802 13.124 11.5976 12.9401C11.7889 12.6402 11.8059 12.3019 11.8093 12.1289L9.80966 12.0903C9.80892 12.1286 9.80622 12.128 9.8114 12.1016C9.81499 12.0833 9.83477 11.9847 9.91158 11.8643C9.99766 11.7294 10.1731 11.5456 10.4609 11.4745C10.7326 11.4074 10.9511 11.4794 11.0591 11.5298C11.1658 11.5797 11.2297 11.637 11.2511 11.6572C11.2773 11.6818 11.2901 11.6987 11.2916 11.7007C11.2935 11.7031 11.2873 11.6941 11.2831 11.6853L9.4744 12.5388ZM12.6555 10.4831C12.7849 10.3209 13.0274 10.0336 13.1894 9.67793C13.3718 9.27752 13.446 8.82217 13.3598 8.29361L11.3859 8.61549C11.4088 8.75556 11.387 8.81023 11.3694 8.84886C11.3314 8.93227 11.2699 9.01298 11.0923 9.23554L12.6555 10.4831ZM13.3598 8.29359C13.3252 8.08119 13.2514 7.86379 13.1561 7.67032C13.0635 7.482 12.9174 7.24882 12.6988 7.05737C12.4767 6.86292 12.0826 6.63605 11.5762 6.72502C11.0928 6.80996 10.7779 7.1379 10.5907 7.41577L12.2492 8.53341C12.287 8.47736 12.1954 8.64687 11.9223 8.69485C11.6263 8.74686 11.4297 8.6045 11.3812 8.56205C11.3362 8.5226 11.3398 8.50889 11.3617 8.55351C11.3811 8.59299 11.387 8.62202 11.3859 8.61552L13.3598 8.29359ZM10.5906 7.41584C10.417 7.67352 10.3456 7.90877 10.3032 8.10355C10.2558 8.32109 10.2659 8.32611 10.2247 8.47557L12.1528 9.0069C12.1859 8.88675 12.2078 8.78354 12.2242 8.70007C12.244 8.59918 12.247 8.57678 12.2574 8.52882C12.2641 8.49822 12.2658 8.49756 12.2618 8.50803C12.2597 8.5134 12.257 8.51938 12.254 8.52508C12.2511 8.5307 12.2491 8.53359 12.2493 8.53334L10.5906 7.41584ZM13.2253 10.1543C13.3567 10.2778 13.4977 10.3581 13.571 10.3985C13.6364 10.4346 13.7514 10.493 13.7865 10.5115C13.9058 10.5742 13.9671 10.6158 14.0099 10.6575L15.4038 9.22322C15.1524 8.97885 14.8875 8.83083 14.718 8.74165C14.6088 8.68413 14.5888 8.67591 14.5373 8.6475C14.4937 8.62342 14.5358 8.64125 14.5951 8.69698L13.2253 10.1543ZM16.3093 7.10702C15.7841 6.74912 15.2155 6.77183 14.7778 6.92217C14.3717 7.06164 14.0347 7.31893 13.792 7.54485C13.5398 7.77958 13.3263 8.03997 13.1717 8.26503C13.0945 8.37735 13.0218 8.49564 12.9638 8.61081C12.9352 8.66768 12.9028 8.7383 12.8755 8.81684C12.8555 8.87458 12.8052 9.02614 12.8078 9.21657L14.8077 9.18885C14.8089 9.28111 14.7961 9.35185 14.7883 9.38811C14.7797 9.42799 14.7703 9.45735 14.7648 9.47315C14.7542 9.50369 14.7466 9.51736 14.7503 9.51005C14.7569 9.49684 14.7787 9.4578 14.8201 9.39755C14.9026 9.27744 15.0227 9.13165 15.1547 9.00874C15.2962 8.87702 15.3939 8.82521 15.4275 8.8137C15.4366 8.81055 15.408 8.82216 15.3517 8.81767C15.2883 8.81261 15.2273 8.78989 15.1832 8.75981L16.3093 7.10702ZM12.8078 9.21585C12.812 9.53607 12.94 9.88632 13.2256 10.1545L14.5949 8.69676C14.7336 8.82713 14.8053 9.00723 14.8077 9.18957L12.8078 9.21585ZM6.05924 12.0442C6.29434 12.103 6.66643 12.1737 7.03329 12.2208C7.35726 12.2623 7.84018 12.3091 8.21207 12.2394L7.84372 10.2736C7.85695 10.2711 7.81306 10.2787 7.68657 10.2735C7.57386 10.2689 7.43661 10.2561 7.28767 10.237C6.98577 10.1983 6.69205 10.1409 6.54463 10.104L6.05924 12.0442ZM8.21201 12.2394C8.44854 12.1951 8.7203 12.096 8.95507 11.8794C9.1913 11.6614 9.30517 11.4028 9.36259 11.1915C9.41624 10.9942 9.43096 10.7988 9.4379 10.6554C9.44465 10.5161 9.44662 10.3354 9.45015 10.2001L7.45084 10.1479C7.44863 10.2322 7.44714 10.3166 7.4457 10.383C7.44417 10.4536 7.44261 10.5099 7.44024 10.5587C7.43502 10.6666 7.42756 10.6855 7.43263 10.6669C7.44147 10.6344 7.48035 10.5188 7.59881 10.4095C7.7158 10.3016 7.82699 10.2767 7.84377 10.2736L8.21201 12.2394ZM9.45032 10.1928L9.51368 6.813L7.51403 6.77551L7.45067 10.1553L9.45032 10.1928ZM9.51033 6.71042C9.48386 6.39571 9.38239 6.01703 9.077 5.70785C8.78475 5.41197 8.42915 5.30726 8.17588 5.26101L7.81659 7.22847C7.8874 7.24141 7.7759 7.23664 7.65409 7.11331C7.51913 6.97668 7.51443 6.84316 7.51737 6.87809L9.51033 6.71042ZM8.17582 5.261C7.91821 5.21397 7.5668 5.19161 7.20393 5.3552C6.85008 5.51473 6.6371 5.78395 6.50694 5.98023L8.17377 7.08553C8.22065 7.01484 8.17593 7.11085 8.02592 7.17847C7.8669 7.25016 7.75491 7.21722 7.81666 7.22849L8.17582 5.261ZM6.50694 5.98024C6.19996 6.44319 5.77118 7.31309 5.44164 8.16258C5.27411 8.59443 5.12065 9.05031 5.01896 9.47327C4.92563 9.86144 4.84233 10.3509 4.92009 10.7889L6.88929 10.4393C6.89163 10.4525 6.88459 10.4179 6.89506 10.3152C6.90486 10.219 6.92672 10.0939 6.96354 9.94081C7.03736 9.63378 7.15812 9.26776 7.30625 8.88592C7.60802 8.10803 7.97627 7.38337 8.17378 7.08552L6.50694 5.98024ZM4.92007 10.7888C4.94701 10.9406 5.00723 11.2985 5.26612 11.5959C5.54567 11.9171 5.91122 12.0072 6.05929 12.0442L6.54458 10.104C6.4934 10.0912 6.50907 10.0918 6.54879 10.1101C6.60153 10.1344 6.69093 10.1866 6.77462 10.2828C6.85459 10.3746 6.88764 10.459 6.8975 10.4877C6.90479 10.5089 6.90086 10.5045 6.88931 10.4394L4.92007 10.7888ZM13.975 10.1219C13.8891 10.8023 13.9385 11.7206 14.2992 12.4792C14.4856 12.8713 14.7829 13.2764 15.2451 13.5424C15.7239 13.8181 16.2771 13.8853 16.8492 13.7677L16.4465 11.8086C16.3585 11.8267 16.3063 11.8241 16.2818 11.8208C16.2592 11.8177 16.249 11.8127 16.243 11.8092C16.2299 11.8017 16.1727 11.7619 16.1054 11.6204C15.9587 11.3119 15.9042 10.8083 15.9592 10.3724L13.975 10.1219ZM18.5979 9.43335C18.4476 9.25854 18.1452 8.98795 17.8651 8.76833C17.7167 8.65198 17.5481 8.52902 17.3805 8.42581C17.2441 8.34187 16.9958 8.19835 16.7153 8.14708L16.3557 10.1145C16.281 10.1008 16.244 10.0809 16.2593 10.088C16.2678 10.092 16.2916 10.1041 16.332 10.129C16.4132 10.1789 16.5172 10.2529 16.6312 10.3423C16.743 10.43 16.8514 10.5221 16.9394 10.6016C16.9832 10.6412 17.0194 10.6753 17.0466 10.7021C17.0767 10.7317 17.0858 10.7424 17.0814 10.7373L18.5979 9.43335ZM17.4798 8.80175C17.3535 8.43932 17.1768 8.10451 16.9896 7.82881C16.8146 7.57096 16.5814 7.29237 16.3093 7.10703L15.1831 8.7598C15.1606 8.74445 15.1707 8.7475 15.2086 8.78898C15.2428 8.82645 15.2867 8.88114 15.335 8.95227C15.433 9.09655 15.5271 9.27609 15.5912 9.45982L17.4798 8.80175ZM14.0099 10.6574C14.0419 10.6885 14.0894 10.7442 14.1687 10.8493L15.7655 9.64501C15.6756 9.52583 15.5519 9.36712 15.4039 9.22327L14.0099 10.6574ZM11.896 11.4796C12.1292 11.2674 12.309 11.0072 12.4225 10.836C12.5754 10.6053 12.6111 10.5388 12.6555 10.4831L11.0923 9.23553C11.0194 9.32681 10.9528 9.4272 10.9045 9.50131C10.8439 9.59416 10.81 9.6488 10.7556 9.73084C10.6512 9.8882 10.5861 9.96737 10.55 10.0002L11.896 11.4796ZM10.2246 8.4757C10.1833 8.62576 10.084 8.88337 9.93416 9.35318L11.8396 9.96085C11.9356 9.65999 12.1036 9.18539 12.1528 9.00677L10.2246 8.4757ZM11.8093 12.1289C11.8139 11.8909 11.8431 11.7773 11.8725 11.6946C11.9165 11.5711 11.9694 11.4803 12.1157 11.1906L10.3303 10.2892C10.2356 10.4769 10.088 10.7444 9.98862 11.0231C9.87473 11.3427 9.81767 11.6752 9.80966 12.0903L11.8093 12.1289ZM10.034 9.13493C9.80496 9.50908 9.52532 10.0128 9.36647 10.5698C9.20579 11.1333 9.14459 11.8399 9.4744 12.5388L11.2831 11.6852C11.2305 11.5737 11.2083 11.404 11.2898 11.1183C11.3731 10.8261 11.5388 10.5075 11.7398 10.1791L10.034 9.13493Z" fill="#EB6359" mask="url(#path-2-inside-1_21_3490)"/>
</svg>
