<svg width="32" height="32" viewBox="0 0 32 32" fill="none" xmlns="http://www.w3.org/2000/svg">
<path d="M15.7423 10.2692C14.9421 10.5813 13.8528 11.4039 13.8528 11.4039L10.7607 12.8003C10.7607 12.8003 10.456 13.7943 10.7607 14.2841C11.0903 14.8137 11.6063 14.843 12.2209 14.895C13.1645 14.9749 14.454 13.9349 14.454 13.9349H16.6871L23.9018 18.5607L25.0184 17.3388L25.7914 18.7353L30 16.7279L25.9632 8L21.8405 9.92013L22.3558 11.4039C22.3558 11.4039 18.1877 9.31556 15.7423 10.2692Z" fill="#F9D1CE"/>
<path d="M8.35583 20.83C8.9763 21.2702 10.2454 20.3936 10.2454 20.3936C10.2454 20.3936 10.6668 18.9247 10.0736 18.4734C9.53393 18.0628 8.35583 18.648 8.35583 18.648C8.35583 18.648 7.66828 20.3422 8.35583 20.83Z" fill="#F9D1CE"/>
<path d="M10.4172 22.401C11.0203 22.808 12.2209 21.9646 12.2209 21.9646C12.2209 21.9646 12.7544 20.4257 12.135 19.9572C11.5279 19.498 10.2454 20.3936 10.2454 20.3936C10.2454 20.3936 9.77211 21.9656 10.4172 22.401Z" fill="#F9D1CE"/>
<path d="M12.3926 23.7974C12.9759 24.2335 14.1963 23.361 14.1963 23.361C14.1963 23.361 14.579 21.8274 13.9387 21.4409C13.3365 21.0774 12.2209 21.9646 12.2209 21.9646C12.2209 21.9646 11.8227 23.3713 12.3926 23.7974Z" fill="#F9D1CE"/>
<path d="M10.0736 9.92013L5.77914 8L2 16.7279L6.29448 18.648L6.80982 17.4261L8.35583 18.648C8.35583 18.648 9.53393 18.0628 10.0736 18.4734C10.6668 18.9247 10.2454 20.3936 10.2454 20.3936C10.2454 20.3936 11.5279 19.498 12.135 19.9572C12.7544 20.4257 12.2209 21.9646 12.2209 21.9646C12.2209 21.9646 13.3365 21.0774 13.9387 21.4409C14.579 21.8274 14.1963 23.361 14.1963 23.361L15.7423 24.4957C15.7423 24.4957 17.0608 25.3388 17.6319 24.8448C18.1938 24.3587 17.6319 22.9246 17.6319 22.9246C17.6319 22.9246 19.6319 24.3108 20.2086 23.4483C20.6272 22.8224 19.9509 21.5282 19.9509 21.5282C19.9509 21.5282 21.8312 22.5882 22.3558 21.79C22.751 21.1888 22.0982 19.9572 22.0982 19.9572C22.0982 19.9572 23.4216 20.6598 23.9018 20.1317C24.3116 19.6812 23.9018 18.5607 23.9018 18.5607L16.6871 13.9349H14.454C14.454 13.9349 13.1645 14.9749 12.2209 14.895C11.6063 14.843 11.0903 14.8137 10.7607 14.2841C10.456 13.7943 10.7607 12.8003 10.7607 12.8003L13.8528 11.4039L12.7362 10.7929L9.55828 11.5784L10.0736 9.92013Z" fill="#EB6359"/>
</svg>
