<svg width="32" height="32" viewBox="0 0 32 32" fill="none" xmlns="http://www.w3.org/2000/svg">
<path d="M13.3617 6.00063C10.1384 6.02014 7.89474 6.49361 4.90902 7.83665C4.62837 7.96289 4.42327 8.21574 4.35886 8.51667C3.84402 10.9219 3.90803 12.2294 4.39209 14.6102C4.43827 14.8374 4.5655 15.0425 4.74616 15.1877C9.57643 19.0704 12.2736 21.703 17.9866 24.9104C18.1932 25.0264 18.4374 25.0647 18.6697 25.0181C22.561 24.2366 24.2149 23.835 27.4576 22.0428C27.7901 21.8591 27.9864 21.4986 27.9649 21.1193L27.5871 14.4432C27.5716 14.1698 27.445 13.914 27.2342 13.7392C23.5133 10.654 19.6063 8.66334 13.7669 6.0855C13.6399 6.02944 13.5005 5.99979 13.3617 6.00063Z" fill="#F9D1CE"/>
<path d="M13.5067 6.58203C10.2278 6.94635 8.84337 7.23781 5.41878 8.54935C4.69014 10.9539 5.12732 12.4111 5.41878 14.5242L18.6071 24.5794C17.7328 21.7377 19.19 20.3533 18.3157 16.9287C22.7604 16.9287 23.489 14.5242 27.0593 14.5242L13.5067 6.58203Z" fill="#EB6359"/>
</svg>
