<svg width="32" height="32" viewBox="0 0 32 32" fill="none" xmlns="http://www.w3.org/2000/svg">
<path d="M15.8521 4.10393C15.8521 4.10393 14.0561 1.70572 11.5759 4.10393C9.48065 6.13 14.9113 10.7846 14.9113 10.7846C14.9113 10.7846 8.24042 10.0993 6.35893 11.3841C4.02772 12.976 5.16176 18.5786 5.16176 18.5786C5.16176 18.5786 4.11597 20.0696 3.70788 21.1481C2.7611 23.6503 2.76698 28 3.70788 28H28.3384C29.0224 28 29.3989 23.6041 28.3384 21.1481C27.8604 20.0412 26.6279 18.5786 26.6279 18.5786C26.6279 18.5786 27.894 12.6605 25.3451 11.3841C22.9504 10.185 16.8783 10.7846 16.8783 10.7846C16.8783 10.7846 22.4686 6.07284 20.2992 4.10393C17.5625 1.62009 15.8521 4.10393 15.8521 4.10393Z" fill="#F9D1CE"/>
<path d="M15.8285 4.88399C15.8285 4.88399 14.2464 2.42967 12.1511 4.45574C10.0558 6.48181 15.9996 10.9651 15.9996 10.9651C15.9996 10.9651 21.7609 6.42464 19.5915 4.45574C17.4222 2.48684 15.8285 4.88399 15.8285 4.88399Z" fill="#EB6359"/>
<path d="M5.73685 12.8493V14.7336C5.73685 14.7336 7.37286 16.405 8.73014 16.5323C10.1627 16.6666 10.7133 15.2179 12.1511 15.1619C13.745 15.0998 14.4049 16.568 15.9996 16.5323C17.5003 16.4986 18.0913 15.1099 19.5915 15.1619C20.9678 15.2095 21.4654 16.5883 22.8413 16.5323C24.2902 16.4733 26.0912 14.7336 26.0912 14.7336V12.8493C26.0912 12.8493 24.3982 15.1619 22.8413 15.1619C21.2845 15.1619 21.1416 12.9945 19.5915 12.8493C17.9557 12.6962 17.4715 14.7489 15.8285 14.7336C14.2154 14.7187 13.7635 12.801 12.1511 12.8493C10.6271 12.895 10.2522 14.8226 8.73014 14.7336C7.35179 14.653 5.73685 12.8493 5.73685 12.8493Z" fill="#EB6359"/>
<path d="M3.94092 21.4999V23.3842C3.94092 23.3842 5.57692 25.0555 6.9342 25.1828C8.36681 25.3171 10.7133 23.8684 12.1511 23.8124C13.745 23.7503 14.4049 25.2185 15.9996 25.1828C17.5003 25.1492 18.096 23.9411 19.5915 23.8124C21.5296 23.6457 23.0049 25.2388 24.3808 25.1828C25.8296 25.1238 27.6306 23.3842 27.6306 23.3842V21.4999C27.6306 21.4999 25.9377 23.8124 24.3808 23.8124C22.8239 23.8124 21.1416 21.645 19.5915 21.4999C17.9557 21.3467 17.4715 23.3994 15.8285 23.3842C14.2154 23.3692 13.7635 21.4515 12.1511 21.4999C10.6271 21.5456 8.4563 23.4732 6.9342 23.3842C5.55585 23.3036 3.94092 21.4999 3.94092 21.4999Z" fill="#EB6359"/>
</svg>
