<svg width="32" height="32" viewBox="0 0 32 32" fill="none" xmlns="http://www.w3.org/2000/svg">
<path d="M16.093 9.09383C9.55446 9.55661 0.746076 12.0338 2.14886 18.4369C3.48343 24.5286 11.3482 23.3307 17.5485 22.6624C23.3613 22.0359 30.4762 21.8675 30.9762 16.0424C31.5247 9.65144 22.4915 8.64097 16.093 9.09383Z" fill="#F9D1CE"/>
<path d="M9.00357 11.0657L10.459 10.6432C13.0332 12.5212 12.4229 14.1175 12.0084 17.0753C11.5778 14.3523 11.3431 12.709 9.00357 11.0657Z" fill="#EB6359"/>
<path d="M15.3888 9.79808L17.9241 9.61028C19.5593 12.1456 19.4184 13.7889 18.6283 16.8875C18.5264 13.5541 17.6813 12.0987 15.3888 9.79808Z" fill="#EB6359"/>
<path d="M22.0087 9.79808L25.483 10.4554C25.8036 13.0847 25.7097 14.3523 24.591 17.0753C24.489 14.1645 24.4421 12.0987 22.0087 9.79808Z" fill="#EB6359"/>
</svg>
